<svg width="119" height="40" viewBox="0 0 119 40" fill="none" xmlns="http://www.w3.org/2000/svg">
<g clip-path="url(#clip0_1551_6672)">
<path fill-rule="evenodd" clip-rule="evenodd" d="M24.864 3.57744C24.9994 3.55325 25.2438 3.4343 25.359 3.37886C25.6408 3.2448 25.9186 3.09662 26.1933 2.94844C26.3964 2.83857 26.5974 2.72768 26.7994 2.6168C28.954 1.43138 31.6015 0 34.1218 0C37.4006 0 40.4118 1.34771 42.5957 3.78812C44.7118 6.15292 45.8169 9.22433 45.8169 12.3885C45.8169 13.6162 45.6957 14.8561 45.5149 16.0698C45.3028 17.4931 45.0007 18.9063 44.6442 20.3004L44.6068 20.4466L44.6048 20.4536L44.5674 20.5967V20.5988L44.5634 20.6109C44.5381 20.7056 44.5129 20.8004 44.4876 20.8951V20.8981L44.4492 21.0372L44.4472 21.0453L44.4442 21.0564L44.4139 21.1693L44.4068 21.1945L44.4038 21.2066L44.3694 21.3326L44.3664 21.3437L44.3634 21.3558L44.3462 21.4183L44.329 21.4798L44.325 21.4929L44.3108 21.5413L44.2876 21.6239L44.2826 21.641L44.2755 21.6652L44.2401 21.7892L44.2028 21.9193L44.1916 21.9586L44.1876 21.9737L44.1694 22.0352L44.1543 22.0856L44.1512 22.0967L44.1492 22.1017L44.1149 22.2207L44.1108 22.2338L44.1078 22.2459L44.0775 22.3497L44.0623 22.4011L44.032 22.5019L44.0118 22.5694L44.0048 22.5916L43.9866 22.6531V22.6571L43.9714 22.7045L43.9684 22.7146L43.9492 22.7761L43.9341 22.8265L43.931 22.8376L43.9118 22.899L43.8926 22.9605L43.8886 22.9746L43.8735 23.022L43.8543 23.0835V23.0886L43.8351 23.145L43.8159 23.2065L43.7967 23.268V23.27L43.7906 23.2881L43.7603 23.3849L43.7391 23.4524L43.7199 23.5139V23.516L43.7007 23.5754L43.6805 23.6369L43.6603 23.6984L43.6401 23.7599L43.6199 23.8214L43.5997 23.8829L43.5795 23.9444L43.5734 23.9645L43.5421 24.0603L43.5401 24.0673L43.5199 24.1288L43.4997 24.1903L43.4795 24.2518C42.8674 26.0813 42.1674 27.8837 41.4037 29.6417C40.8249 30.9732 40.2007 32.2897 39.5178 33.5719C38.9421 34.6525 38.3188 35.722 37.6238 36.733C36.8087 37.9185 35.2582 39.9919 33.6349 39.9909C32.5783 39.9909 31.9167 39.1976 31.5844 38.2672C31.048 36.7653 30.6328 35.2019 30.2116 33.6636C30.1197 33.329 30.0278 32.9933 29.9358 32.6586C29.6379 31.5821 29.3328 30.5055 28.9843 29.4431C28.6702 28.4855 28.3196 27.5218 27.8833 26.6116C27.356 25.5098 26.3752 23.7639 24.9489 23.7639H24.7893C23.6216 23.7639 22.7549 25.0955 22.266 25.9967C21.8569 26.7507 21.5205 27.5591 21.2215 28.3625C20.8852 29.2657 20.5902 30.186 20.3114 31.1083C20.0589 31.9429 19.8205 32.7826 19.5821 33.6213C19.1407 35.1756 18.7043 36.7512 18.1528 38.2713C17.8134 39.2077 17.1417 40.003 16.077 40.003C14.4527 40.003 12.9113 37.9789 12.085 36.7935C11.3891 35.7946 10.7658 34.7351 10.19 33.6636C9.50821 32.3945 8.88699 31.0912 8.31223 29.7717C7.00009 26.7628 5.88896 23.6188 5.0839 20.4355C4.72732 19.0252 4.42732 17.5949 4.21721 16.1544C4.03539 14.9126 3.9162 13.6465 3.9162 12.3905C3.9162 9.22736 5.02127 6.15493 7.13747 3.79013C9.31831 1.34771 12.3285 0 15.6083 0C17.9791 0 20.4387 1.24893 22.5165 2.38698C22.6094 2.43435 24.2772 3.3335 24.3711 3.37886C24.4852 3.43329 24.7297 3.55224 24.865 3.57744H24.864ZM40.8401 25.666L40.8734 25.5773L40.8855 25.5451L40.8946 25.5199L40.9229 25.4423L40.936 25.406L40.938 25.3999L40.9704 25.3112L40.9744 25.3011L41.0017 25.2255V25.2215L41.035 25.1328L41.037 25.1268L41.0673 25.0431L41.0734 25.027L41.0946 24.9675L41.0997 24.9544L41.132 24.8657L41.1542 24.8042L41.1643 24.776L41.1886 24.7074L41.1956 24.6863L41.2269 24.5965L41.237 24.5673L41.2461 24.5401L41.2805 24.4433L41.2865 24.4272L41.2896 24.4181L41.3209 24.3284L41.3239 24.3203L41.3461 24.2548L41.3512 24.2387L41.3825 24.149V24.147L41.4128 24.0593L41.4179 24.0442L41.4401 23.9786L41.4431 23.9696L41.4734 23.8798L41.4785 23.8657L41.4886 23.8355L41.5189 23.7468L41.529 23.7155L41.5643 23.6107L41.5734 23.5845L41.5774 23.5734C41.6057 23.4897 41.633 23.4051 41.6603 23.3204L41.6744 23.2771L41.7118 23.1611L41.7542 23.0281L41.7603 23.0099L41.7987 22.89L41.8017 22.8789L41.8078 22.8618L41.8391 22.764L41.8512 22.7257L41.8866 22.6138L41.9007 22.5674L41.9259 22.4848L41.9411 22.4374L41.9694 22.3467L41.9734 22.3336L41.9876 22.2892L42.0239 22.1703V22.1652L42.0613 22.0483L42.0744 22.0039L42.0805 21.9838L42.1078 21.893L42.1098 21.886L42.1158 21.8658L42.1472 21.762L42.1562 21.7308C42.1825 21.6431 42.2078 21.5544 42.234 21.4667L42.236 21.4596L42.2421 21.4394L42.2684 21.3487L42.2714 21.3386L42.2845 21.2933C42.3229 21.1602 42.3603 21.0272 42.3977 20.8941V20.8901L42.3997 20.886L42.433 20.7641L42.4411 20.7359L42.4734 20.6199L42.4775 20.6048L42.4835 20.5836L42.5138 20.4728L42.5189 20.4556L42.5552 20.3216L42.5573 20.3145L42.5936 20.1764L42.5967 20.1643L42.626 20.0514L42.6381 20.006L42.6684 19.8901C43.0128 18.5565 43.3058 17.2028 43.5149 15.8399C43.6886 14.7039 43.8098 13.5386 43.8098 12.3885C43.8098 11.0982 43.5785 9.80394 43.1411 8.59029C42.73 7.44821 42.133 6.37065 41.3643 5.42916C39.5461 3.20347 37.0006 2.00292 34.1218 2.00292C32.053 2.00292 29.554 3.38793 27.7701 4.36974C27.4843 4.52699 27.2004 4.69634 26.9227 4.86871C26.8035 4.94229 26.3428 5.22857 26.1792 5.37775C26.3075 5.4715 26.5974 5.6096 26.6822 5.64891C27.0469 5.81826 27.4318 5.96442 27.8136 6.09042C27.9964 6.1509 28.1803 6.20634 28.3661 6.25573C29.4641 6.54604 30.6066 6.73353 31.7338 6.86457C32.2692 6.92606 32.8096 6.97747 33.347 7.0057C33.4915 7.00771 33.7298 7.02989 33.7511 7.21032C33.7723 7.39076 33.5339 7.47543 33.3915 7.51172C33.3248 7.53389 33.2339 7.55002 33.1672 7.56414C32.9702 7.60647 32.7702 7.64074 32.5712 7.67098C31.8783 7.77582 31.1712 7.82521 30.4702 7.82521C28.7722 7.82521 27.1136 7.49055 25.5509 6.82828C25.165 6.66499 24.8054 6.45734 24.4448 6.24565C23.8216 5.87974 23.2327 5.47049 22.6549 5.03805C22.5054 4.92616 22.3569 4.81125 22.2084 4.69734C21.87 4.43728 21.5155 4.15503 21.1559 3.92722C19.6185 2.95247 17.4619 2.00393 15.6093 2.00393C12.7305 2.00393 10.185 3.20448 8.36678 5.43017C6.78493 7.36656 5.92128 9.89567 5.92128 12.3885C5.92128 13.5669 6.04048 14.7583 6.21422 15.9226C6.42028 17.3015 6.7112 18.6714 7.05565 20.0222C7.83243 23.0694 8.89204 26.0874 10.1486 28.9693C10.6981 30.2293 11.2921 31.4732 11.9416 32.6848C12.484 33.6969 13.0719 34.7049 13.7295 35.6474C14.0578 36.1191 14.4063 36.5889 14.7851 37.0223C15.0012 37.2703 15.2406 37.5223 15.5002 37.7269C15.6053 37.8096 15.8992 38.0213 16.0497 37.9991C16.0649 37.9971 16.079 37.993 16.0912 37.984C16.1538 37.9376 16.2336 37.6634 16.2619 37.5868C16.7962 36.1131 17.2195 34.5799 17.6467 33.0719C17.7589 32.6748 17.872 32.2786 17.9861 31.8825C18.2983 30.7958 18.6205 29.7102 18.9841 28.6387C19.3205 27.6478 19.6942 26.6569 20.1478 25.7134C21.0478 23.8425 22.4721 21.758 24.7863 21.758H24.9459C27.3196 21.758 28.7661 23.8113 29.6914 25.7447C30.1429 26.6882 30.5106 27.679 30.8399 28.6709C31.1944 29.7384 31.5056 30.821 31.8066 31.9046C31.9197 32.3129 32.0318 32.7211 32.1429 33.1294C32.3581 33.9176 32.5733 34.7059 32.8026 35.4901C33.0076 36.1947 33.2248 36.8994 33.4713 37.5908C33.4904 37.6453 33.5854 37.9447 33.6288 37.9759C33.6369 37.982 33.6511 37.985 33.6601 37.987C33.7056 37.9951 33.8298 37.9326 33.8682 37.9114C34.043 37.8146 34.2127 37.6725 34.3602 37.5384C34.6127 37.3086 34.847 37.0506 35.0662 36.7895C35.3854 36.4084 35.6824 36.0052 35.9642 35.596C36.6218 34.6404 37.2097 33.6213 37.7542 32.5982C38.4067 31.3724 39.0037 30.1144 39.5582 28.8413C40.0118 27.799 40.4411 26.7386 40.8411 25.666H40.8401Z" fill="#49B858"/>
<path fill-rule="evenodd" clip-rule="evenodd" d="M54.4807 17.1403H59.3697C61.6414 17.1403 64.1607 17.6675 65.5597 19.627C66.2971 20.6602 66.5769 21.8971 66.5769 23.15C66.5769 24.4897 66.2496 25.8142 65.4456 26.9039C64.1284 28.6881 61.9637 29.2999 59.8303 29.2999H56.0737V19.5121C56.0737 19.1402 56.0636 18.5182 55.7919 18.2289C55.6141 18.0394 55.3363 18.0001 55.0888 18.0001H54.4817V17.1413L54.4807 17.1403ZM70.4699 18.3529V22.4374H75.2467V23.65H70.4699V28.0883H73.3124C74.7366 28.0883 75.571 27.672 76.0831 26.3102L76.1629 26.0985L77.0104 26.3102L76.2932 28.2526C76.0366 28.9481 75.4679 29.3009 74.7285 29.3009H68.3709V19.5131C68.3709 19.1412 68.3608 18.5192 68.089 18.2299C67.9112 18.0404 67.6335 18.0011 67.386 18.0011H66.7779V17.1423H74.5689C75.6942 17.1423 76.3265 17.6947 76.3265 18.8075V20.3851H75.4659V20.132C75.4659 18.8337 74.7487 18.3549 73.5083 18.3549H70.4709L70.4699 18.3529ZM86.6833 25.415V17.1403H87.8985V29.4763H87.1692L79.9357 20.4959V29.2999H78.7205V19.5121C78.7205 18.5394 78.4306 17.9991 77.3821 17.9991H76.9518V17.1403H78.3559C79.4185 17.1403 80.2721 17.4628 80.9418 18.2944L86.6833 25.4161V25.415ZM94.8875 18.3529V29.2999H92.7874V18.3529H91.448C90.2076 18.3529 89.4904 18.8327 89.4904 20.13V20.383H88.6288V18.8055C88.6288 17.6927 89.2611 17.1403 90.3864 17.1403H98.8673V18.3529H94.8865H94.8875ZM104.545 25.9453H99.934L98.5188 29.2999H97.1713L102.341 17.1403H103.21L107.167 26.7436C107.374 27.2436 107.676 27.9482 108.166 28.2355C108.39 28.3665 108.646 28.4189 108.903 28.4421L109.133 28.4633V29.2354L108.952 29.2898C108.712 29.3614 108.422 29.3886 108.172 29.3886C106.556 29.3886 105.491 28.3927 104.927 26.9311L104.547 25.9453H104.545ZM111.786 28.0873H118.067V29.2999H109.686V19.5121C109.686 19.1402 109.676 18.5182 109.404 18.2289C109.226 18.0394 108.948 18.0001 108.701 18.0001H108.094V17.1413H109.94C110.379 17.1413 110.883 17.1755 111.235 17.4658C111.777 17.9124 111.787 18.8751 111.787 19.5131V28.0883L111.786 28.0873ZM58.2262 18.4839V27.9946C58.7323 28.0974 59.2667 28.176 59.7778 28.176C60.5838 28.176 61.3687 27.9744 62.0536 27.544C63.5395 26.6105 64.1425 24.908 64.1425 23.2206C64.1425 21.5332 63.5849 19.9728 62.2192 19.0142C61.4889 18.5021 60.6313 18.2652 59.7434 18.2652C59.2414 18.2652 58.7172 18.3499 58.2272 18.485L58.2262 18.4839ZM102.238 20.5161L100.417 24.7326H103.987L102.238 20.5161Z" fill="#49B858"/>
<path fill-rule="evenodd" clip-rule="evenodd" d="M59.5071 38.9224V37.2209C59.5071 36.8943 59.5616 36.5869 59.8041 36.347C60.1637 35.9901 60.8071 35.9337 61.2849 35.9337H61.3869V36.3399H61.2849C61.1091 36.3399 60.898 36.3651 60.7758 36.5062C60.6314 36.6736 60.6263 36.9921 60.6263 37.1997V39.1623L60.5778 39.1916C59.7798 39.6784 58.9636 39.8448 58.0364 39.8448C55.9212 39.8448 54.4818 38.1473 54.4818 36.094C54.4818 34.1616 55.703 32.5468 57.7323 32.5468C58.2586 32.5468 58.8081 32.6133 59.3051 32.7917C59.6485 32.9147 60.0132 33.1092 60.2485 33.3945C60.5314 33.7372 60.5253 34.3975 60.5253 34.8269V34.9287H60.1374L60.1202 34.848C59.8748 33.7211 59.199 33.1546 58.0364 33.1546C56.3727 33.1546 55.701 34.6273 55.701 36.0929C55.701 37.1937 55.9343 38.5555 57.0687 39.0484C57.3737 39.1815 57.705 39.2339 58.0364 39.2339C58.5687 39.2339 59.0374 39.1603 59.5081 38.9194L59.5071 38.9224ZM63.8163 36.5526H63.2657V39.6432H62.1475V34.0689C62.1475 33.841 62.1405 33.4792 61.9738 33.3028C61.8627 33.1848 61.694 33.1576 61.5384 33.1576H61.2334V32.7514H63.9759C65.2254 32.7514 66.6173 33.1626 66.6173 34.6777C66.6173 35.6988 65.9496 36.2391 65.0496 36.4679L66.0436 38.1211C66.1971 38.3771 66.3769 38.6543 66.587 38.868C66.7254 39.0091 66.8769 39.121 67.0668 39.1825C67.1547 39.2117 67.2456 39.2279 67.3375 39.2369L67.4294 39.246V39.6039L67.3729 39.6321C67.2092 39.7137 66.8991 39.744 66.7183 39.744C66.5375 39.744 66.3759 39.7238 66.2112 39.6724C65.9314 39.5837 65.7052 39.4164 65.5042 39.2067C65.2314 38.9224 65.0011 38.5626 64.8021 38.2239L63.8163 36.5516V36.5526ZM67.3274 36.1968C67.3274 35.0829 67.7133 33.9449 68.5992 33.2251C69.1648 32.7645 69.8517 32.5478 70.578 32.5478C71.3043 32.5478 71.9911 32.7645 72.5568 33.2251C73.4427 33.9459 73.8285 35.0839 73.8285 36.1968C73.8285 37.3096 73.4427 38.4487 72.5568 39.1684C71.9911 39.6291 71.3043 39.8448 70.578 39.8448C69.8517 39.8448 69.1648 39.628 68.5992 39.1684C67.7133 38.4477 67.3274 37.3096 67.3274 36.1968ZM74.9437 36.6534V34.0689C74.9437 33.841 74.9366 33.4792 74.77 33.3028C74.6589 33.1848 74.4902 33.1576 74.3346 33.1576H74.0296V32.7514H75.0457C75.2851 32.7514 75.568 32.7685 75.7609 32.9278C76.0579 33.1727 76.0619 33.7201 76.0619 34.0699V36.9578C76.0619 37.5515 76.1377 38.3126 76.5932 38.7491C76.9074 39.0494 77.3357 39.1361 77.7579 39.1361C78.2418 39.1361 78.7721 39.0595 79.1387 38.7168C79.66 38.2319 79.7175 37.3167 79.7175 36.6534V32.7514H80.3276V36.6534C80.3276 38.6483 79.8064 39.745 77.6357 39.745C75.4649 39.745 74.9437 38.5999 74.9437 36.6534ZM82.9681 36.9074V39.6432H81.8499V34.0689C81.8499 33.841 81.8428 33.4792 81.6762 33.3028C81.565 33.1848 81.3964 33.1576 81.2408 33.1576H80.9357V32.7514H83.6782C85.0742 32.7514 86.3197 33.2776 86.3197 34.8803C86.3197 35.6212 86.0176 36.22 85.359 36.5788C84.957 36.7975 84.4419 36.9084 83.9833 36.9084H82.9681V36.9074ZM63.2668 33.3895V35.9135C63.4779 35.9609 63.7163 35.9932 63.9264 35.9932C64.2435 35.9932 64.6072 35.8631 64.8637 35.6827C65.2072 35.4408 65.3981 35.099 65.3981 34.6767C65.3981 34.2543 65.2153 33.8804 64.8627 33.6253C64.6062 33.4399 64.2445 33.3088 63.9264 33.3088C63.7163 33.3088 63.4779 33.3411 63.2668 33.3884V33.3895ZM72.6083 36.1968C72.6083 35.2039 72.3669 33.8662 71.3952 33.3522C71.1416 33.2171 70.8639 33.1566 70.577 33.1566C70.2901 33.1566 70.0133 33.2171 69.7588 33.3522C68.787 33.8662 68.5466 35.2039 68.5466 36.1968C68.5466 37.1897 68.7881 38.5273 69.7588 39.0414C70.0123 39.1755 70.2901 39.2369 70.577 39.2369C70.8639 39.2369 71.1406 39.1765 71.3952 39.0414C72.3669 38.5263 72.6083 37.1897 72.6083 36.1968ZM82.9681 33.3895V36.2683C83.1792 36.3157 83.4176 36.348 83.6277 36.348C83.9509 36.348 84.3085 36.2129 84.5611 36.0153C84.9378 35.72 85.0994 35.2996 85.0994 34.8289C85.0994 34.3582 84.9378 33.9368 84.5611 33.6425C84.3085 33.4449 83.9509 33.3098 83.6277 33.3098C83.4176 33.3098 83.1792 33.3421 82.9681 33.3895Z" fill="#4D7CA7"/>
<path d="M54.9161 15.6827C54.9575 15.723 54.9444 15.7875 54.9121 15.851C54.8807 15.9115 54.8333 15.971 54.803 16.0042L54.7959 16.0113C47.7382 23.4323 38.0744 28.7616 27.9308 30.8099C18.4993 32.7141 8.65268 31.7807 0.101018 27.0531L-0.00201416 26.9966L0.109099 27.0339C10.4941 30.4833 20.2347 30.7928 28.9439 28.9995C39.0825 26.9109 47.8231 21.9717 54.5555 15.8177C54.5979 15.7794 54.6848 15.7059 54.7676 15.6736C54.8222 15.6524 54.8757 15.6484 54.9141 15.6837L54.9161 15.6827Z" fill="#4D7CA7"/>
<path d="M54.4658 13.7473C54.4658 13.7062 54.4601 13.6759 54.4488 13.6566C54.4375 13.6364 54.4149 13.6263 54.3809 13.6263H54.3567V13.6021H54.6718C54.7599 13.6021 54.8363 13.6166 54.9009 13.6457C54.9664 13.6747 54.9991 13.7308 54.9991 13.8138C54.9991 13.8517 54.9862 13.886 54.9603 13.9166C54.9345 13.9473 54.8949 13.9715 54.8415 13.9892C54.9159 14.0013 54.9676 14.0235 54.9967 14.0557C55.0266 14.0872 55.0415 14.1295 55.0415 14.1828C55.0415 14.2642 55.0092 14.321 54.9446 14.3533C54.8807 14.3848 54.8019 14.4005 54.7082 14.4005H54.4658V13.7473ZM54.69 13.9711C54.7232 13.9711 54.7543 13.965 54.7834 13.9529C54.8133 13.94 54.8375 13.9215 54.8561 13.8973C54.8747 13.8723 54.884 13.8424 54.884 13.8078C54.884 13.7715 54.8731 13.7412 54.8512 13.717C54.8294 13.692 54.8015 13.6739 54.7676 13.6626C54.7345 13.6505 54.7005 13.6445 54.6658 13.6445C54.6375 13.6445 54.6072 13.6485 54.5749 13.6566V13.9711H54.69ZM54.69 14.3581C54.7636 14.3581 54.8201 14.3436 54.8597 14.3146C54.9001 14.2856 54.9203 14.2436 54.9203 14.1888C54.9203 14.134 54.9005 14.092 54.8609 14.063C54.8222 14.034 54.7652 14.0195 54.69 14.0195H54.5749V14.3412C54.6137 14.3525 54.652 14.3581 54.69 14.3581Z" fill="#4D7CA7"/>
<path d="M55.8382 14.4065C55.7994 14.4065 55.761 14.396 55.723 14.3751C55.685 14.3533 55.6547 14.3114 55.6321 14.2493L55.6018 14.1707H55.2624L55.1654 14.4005H55.1109L55.4503 13.6021H55.4867L55.7533 14.2493C55.7735 14.2961 55.7925 14.3283 55.8103 14.346C55.8281 14.363 55.8535 14.3731 55.8867 14.3763V14.4005C55.8721 14.4045 55.856 14.4065 55.8382 14.4065ZM55.2806 14.1223H55.5776L55.4321 13.7715L55.2806 14.1223Z" fill="#4D7CA7"/>
<path d="M55.9821 13.7473C55.9821 13.7062 55.9765 13.6759 55.9652 13.6566C55.9539 13.6364 55.9312 13.6263 55.8973 13.6263H55.8731V13.6021H55.9821C56.012 13.6021 56.0343 13.6062 56.0488 13.6142C56.0642 13.6215 56.0751 13.6352 56.0815 13.6554C56.088 13.6755 56.0912 13.7062 56.0912 13.7473V14.3521H56.5215V14.4005H55.9821V13.7473Z" fill="#4D7CA7"/>
<path d="M56.6919 13.6505H56.5828C56.4818 13.6505 56.4313 13.6969 56.4313 13.7896H56.4071V13.6989C56.4071 13.6344 56.4414 13.6021 56.5101 13.6021H57.0737V13.6505H56.801V14.4005H56.6919V13.6505Z" fill="#4D7CA7"/>
<path d="M57.3053 14.4005C57.2754 14.4005 57.2527 14.3969 57.2374 14.3896C57.2228 14.3815 57.2123 14.3674 57.2059 14.3473C57.1994 14.3271 57.1962 14.2965 57.1962 14.2553V13.6021H57.3053V14.2553C57.3053 14.2965 57.3109 14.3271 57.3222 14.3473C57.3335 14.3666 57.3562 14.3763 57.3901 14.3763H57.4144V14.4005H57.3053Z" fill="#4D7CA7"/>
<path d="M58.4534 14.4549C58.3952 14.4549 58.3499 14.446 58.3176 14.4283C58.2853 14.4106 58.2622 14.3831 58.2485 14.346C58.2356 14.3081 58.2291 14.2577 58.2291 14.1948V13.7291L57.9261 14.4005H57.9018L57.5867 13.717V14.4005H57.5382V13.6021H57.6533L57.9443 14.2311L58.2291 13.6021H58.3382V14.1948C58.3382 14.2698 58.3475 14.3279 58.3661 14.369C58.3855 14.4102 58.4146 14.4307 58.4534 14.4307V14.4549Z" fill="#4D7CA7"/>
<path d="M58.8918 14.4247C58.8166 14.4247 58.7503 14.4061 58.693 14.369C58.6364 14.3319 58.5928 14.2811 58.5621 14.2166C58.5313 14.1521 58.516 14.0803 58.516 14.0013C58.516 13.9223 58.5313 13.8505 58.5621 13.786C58.5928 13.7215 58.6364 13.6707 58.693 13.6336C58.7503 13.5965 58.8166 13.5779 58.8918 13.5779C58.9669 13.5779 59.0328 13.5965 59.0893 13.6336C59.1467 13.6707 59.1908 13.7215 59.2215 13.786C59.2522 13.8505 59.2675 13.9223 59.2675 14.0013C59.2675 14.0803 59.2522 14.1521 59.2215 14.2166C59.1908 14.2811 59.1467 14.3319 59.0893 14.369C59.0328 14.4061 58.9669 14.4247 58.8918 14.4247ZM58.8918 14.3763C58.9443 14.3763 58.9895 14.361 59.0275 14.3303C59.0663 14.2997 59.0958 14.2565 59.116 14.2009C59.1362 14.1444 59.1463 14.0779 59.1463 14.0013C59.1463 13.9247 59.1362 13.8586 59.116 13.8029C59.0958 13.7465 59.0663 13.7029 59.0275 13.6723C58.9895 13.6416 58.9443 13.6263 58.8918 13.6263C58.8392 13.6263 58.7936 13.6416 58.7548 13.6723C58.7168 13.7029 58.6877 13.7465 58.6675 13.8029C58.6473 13.8586 58.6372 13.9247 58.6372 14.0013C58.6372 14.0779 58.6473 14.1444 58.6675 14.2009C58.6877 14.2565 58.7168 14.2997 58.7548 14.3303C58.7936 14.361 58.8392 14.3763 58.8918 14.3763Z" fill="#4D7CA7"/>
<path d="M59.9767 14.4126C59.9339 14.4126 59.8963 14.4001 59.864 14.3751C59.8325 14.3493 59.7973 14.3033 59.7585 14.2372L59.6373 14.0315H59.5525V14.4005H59.4434V13.7473C59.4434 13.7062 59.4377 13.6759 59.4264 13.6566C59.4151 13.6364 59.3925 13.6263 59.3585 13.6263H59.3343V13.6021H59.6494C59.7262 13.6021 59.7957 13.6175 59.8579 13.6481C59.921 13.6779 59.9525 13.7352 59.9525 13.8199C59.9525 13.9271 59.8878 13.9957 59.7585 14.0255L59.8858 14.2372C59.9157 14.2872 59.9424 14.3223 59.9658 14.3424C59.9901 14.3618 60.0179 14.3731 60.0494 14.3763V14.4005C60.0422 14.4037 60.0317 14.4065 60.0179 14.4089C60.005 14.4114 59.9913 14.4126 59.9767 14.4126ZM59.6434 13.9892C59.6684 13.9892 59.6955 13.9832 59.7246 13.9711C59.7545 13.959 59.7795 13.94 59.7997 13.9142C59.8208 13.8884 59.8313 13.857 59.8313 13.8199C59.8313 13.7804 59.8208 13.7477 59.7997 13.7219C59.7795 13.6953 59.7545 13.6759 59.7246 13.6638C59.6955 13.6509 59.6684 13.6445 59.6434 13.6445C59.6151 13.6445 59.5848 13.6485 59.5525 13.6566V13.9771C59.5848 13.9852 59.6151 13.9892 59.6434 13.9892Z" fill="#4D7CA7"/>
<path d="M60.1643 13.7473C60.1643 13.7062 60.1586 13.6759 60.1473 13.6566C60.136 13.6364 60.1134 13.6263 60.0794 13.6263H60.0552V13.6021H60.5715C60.6402 13.6021 60.6746 13.6344 60.6746 13.6989V13.7896H60.6503C60.6503 13.6969 60.5998 13.6505 60.4988 13.6505H60.2734V13.965H60.6006V14.0134H60.2734V14.3521H60.4855C60.5412 14.3521 60.5849 14.342 60.6164 14.3219C60.6479 14.3017 60.673 14.2674 60.6916 14.219L60.7158 14.2251L60.6734 14.34C60.6588 14.3803 60.6285 14.4005 60.5825 14.4005H60.1643V13.7473Z" fill="#4D7CA7"/>
<path d="M61.4829 14.4247C61.4077 14.4247 61.3415 14.4065 61.2841 14.3702C61.2275 14.334 61.1839 14.2848 61.1532 14.2227C61.1225 14.1598 61.1071 14.09 61.1071 14.0134C61.1071 13.9344 61.1237 13.8614 61.1568 13.7945C61.1908 13.7275 61.2364 13.6747 61.2938 13.636C61.352 13.5973 61.415 13.5779 61.4829 13.5779C61.5475 13.5779 61.6041 13.5872 61.6526 13.6058C61.7019 13.6235 61.7382 13.6465 61.7617 13.6747C61.7754 13.6916 61.7839 13.7142 61.7871 13.7424C61.7904 13.7699 61.792 13.8078 61.792 13.8562H61.7677C61.7524 13.7779 61.7241 13.7203 61.6829 13.6832C61.6417 13.6453 61.5871 13.6263 61.5193 13.6263C61.432 13.6263 61.3617 13.657 61.3083 13.7183C61.255 13.7795 61.2283 13.8779 61.2283 14.0134C61.2283 14.0771 61.2384 14.1364 61.2586 14.1912C61.2797 14.2461 61.312 14.2908 61.3556 14.3255C61.3993 14.3594 61.4538 14.3763 61.5193 14.3763C61.5782 14.3763 61.6296 14.3622 61.6732 14.334C61.7176 14.3057 61.7572 14.2634 61.792 14.2069L61.8162 14.2251C61.7791 14.2977 61.733 14.3493 61.678 14.3799C61.6239 14.4098 61.5589 14.4247 61.4829 14.4247Z" fill="#4D7CA7"/>
<path d="M62.0769 14.4005C62.047 14.4005 62.0244 14.3969 62.009 14.3896C61.9945 14.3815 61.984 14.3674 61.9775 14.3473C61.971 14.3271 61.9678 14.2965 61.9678 14.2553V13.6021H62.0769V14.2553C62.0769 14.2965 62.0825 14.3271 62.0939 14.3473C62.1052 14.3666 62.1278 14.3763 62.1617 14.3763H62.186V14.4005H62.0769Z" fill="#4D7CA7"/>
<path d="M62.5088 13.6505H62.3997C62.2987 13.6505 62.2482 13.6969 62.2482 13.7896H62.2239V13.6989C62.2239 13.6344 62.2583 13.6021 62.3269 13.6021H62.8906V13.6505H62.6179V14.4005H62.5088V13.6505Z" fill="#4D7CA7"/>
<path d="M63.2709 14.0703L63.0648 13.7594C63.0438 13.7295 63.026 13.7062 63.0115 13.6892C62.9969 13.6723 62.9796 13.6582 62.9594 13.6469C62.94 13.6348 62.9165 13.6279 62.8891 13.6263V13.6021H62.9981C63.0385 13.6021 63.0725 13.6142 63.1 13.6384C63.1274 13.6618 63.1541 13.6941 63.18 13.7352L63.3557 14.0074L63.6091 13.6021H63.6636L63.38 14.0618V14.4005H63.2709V14.0703Z" fill="#4D7CA7"/>
</g>
<defs>
<clipPath id="clip0_1551_6672">
<rect width="118.182" height="40" fill="white"/>
</clipPath>
</defs>
</svg>
