<svg width="90" height="40" viewBox="0 0 90 40" fill="none" xmlns="http://www.w3.org/2000/svg">
<path d="M10.7587 4.43933L12.4397 6.489C12.4397 6.489 11.6607 8.088 18.549 5.38233C25.437 2.676 25.765 2.92233 25.765 2.92233L30.4804 2.67633L38.1067 3.66033L41.7557 6.36633L42.6987 10.5077L40.1977 15.838L34.6627 21.209L31.7107 23.4647L26.6267 25.1863L23.7564 29.9017C23.7564 29.9017 22.4854 30.1063 21.9524 28.302C21.419 26.4983 21.337 24.7763 20.9684 22.9313C20.5994 21.086 20.2304 22.07 19.7384 23.7923C19.2464 25.5143 19.1234 27.5643 18.3444 27.9333C17.5654 28.3023 17.1967 28.4257 16.5404 27.7693C15.8844 27.1133 14.0804 23.0543 13.5064 23.4237C12.9324 23.7923 12.0304 27.5643 11.415 28.7123C10.8 29.8607 10.7184 32.5667 9.81604 30.4757C8.91371 28.3843 7.76604 25.3093 7.02804 22.9723C6.29004 20.635 3.17371 9.19566 3.17371 9.19566C3.17371 9.19566 3.37871 6.07966 4.40371 5.54666C5.42871 5.01333 7.35604 3.16833 7.56071 3.12733C7.76571 3.086 10.7587 4.43933 10.7587 4.43933Z" fill="#F8F8F8"/>
<path d="M24.655 6.88099C24.47 7.58566 23.9927 7.85233 23.579 8.14899C23.119 8.47933 22.618 8.75033 22.097 8.97566C21.0414 9.50866 19.657 9.90033 17.9407 9.77099C17.4877 9.73599 17.0117 9.66599 16.5124 9.55266C14.4904 9.09099 12.089 7.92066 9.30569 5.57366C8.82669 5.34799 7.70869 5.02033 6.37936 5.98999C5.76502 6.60299 5.29502 7.69933 5.32836 9.61933C5.47969 15.283 6.89169 20.687 8.84869 25.9733C9.24036 27.033 9.44002 27.2383 10.1577 27.825C10.8974 27.661 11.0557 26.9707 11.3384 26.4203C11.5217 26.0623 11.6964 25.6997 11.868 25.337C11.986 25.09 12.1027 24.8407 12.2204 24.5943C12.631 23.7487 13.0664 22.9177 13.6474 22.163C14.416 21.166 15.3504 20.441 16.658 20.3303C16.8544 20.3143 17.067 20.281 17.1894 20.636C14.796 20.991 13.9764 22.8533 13.3694 24.8157C13.3517 24.8723 13.5107 24.9293 13.397 24.9863C13.39 24.989 13.4667 24.9933 13.4667 24.9963V24.8103H13.346C13.2557 25.2287 13.1717 25.5097 13.0897 25.814C12.7797 26.9683 12.5177 28.1863 12.1944 29.338C11.9134 30.331 11.7474 31.7117 10.5724 31.8107C9.41502 31.9083 8.96969 30.618 8.50669 29.702C7.02469 26.77 6.00002 23.6613 5.04302 20.5287C4.00536 17.128 2.95569 13.729 2.30002 10.2263C2.04669 8.86366 2.07169 7.49099 2.40369 6.13433C3.37036 2.19133 7.09869 0.477326 10.7124 2.32933C11.692 2.83166 12.542 3.51033 13.244 4.37233C13.7027 4.93699 14.1657 5.50066 14.6654 6.02933C15.377 6.78366 16.1417 7.34833 16.961 7.71666C17.9477 8.16099 19.0137 8.31966 20.1597 8.17966C20.5964 8.12733 21.0464 8.02966 21.5064 7.88866C22.531 7.57399 23.5487 7.23633 24.655 6.88099Z" fill="#B289B3"/>
<path d="M25.8064 27.042C25.355 28.1183 24.8447 29.1683 24.171 30.126C23.767 30.6973 23.284 31.255 22.4977 31.129C21.7157 31.0047 21.4317 30.3467 21.227 29.661C20.9787 28.8433 20.8327 28.008 20.7264 27.1703C20.6494 26.5577 20.596 25.9407 20.543 25.326C20.543 25.3007 20.539 25.275 20.5374 25.2493C20.5174 25.0033 20.4977 24.7567 20.476 24.5103C20.143 20.678 18.3914 17.854 14.7714 16.3213C14.661 16.2757 14.5667 16.195 14.4697 16.122C14.4424 16.1003 14.4384 16.051 14.3654 15.872C17.14 16.333 18.9824 17.919 20.401 20.128C21.049 21.135 21.5004 22.2107 21.8554 23.336C22.2257 24.5123 22.486 25.742 22.7437 27.007C22.7714 27.1493 22.801 27.289 22.8307 27.4307C22.866 27.403 22.8994 27.3757 22.933 27.348C22.9567 27.423 22.9724 27.4993 22.9804 27.5783L23.483 27.5033C24.2614 27.3847 25.04 27.2293 25.8064 27.042Z" fill="#1C5389"/>
<path d="M26.6933 5.12601C25.8957 4.44501 24.794 4.20301 23.3907 4.39435C22.0503 4.57935 20.82 5.09001 19.5743 5.57068C19.1357 5.74101 18.6907 5.91701 18.201 6.01835C18.0273 6.05435 17.8513 6.08401 17.6637 6.09901C17.511 6.11101 17.3527 6.11401 17.1887 6.10501C16.917 6.09635 16.6243 6.05735 16.3077 5.97968C17.872 5.45735 18.8367 4.65401 19.8283 3.88968C21.524 2.58468 23.4087 1.68601 25.5433 1.39035C26.4093 1.27101 27.2037 1.31835 27.9143 1.51868C28.1293 1.57835 28.3353 1.65301 28.5357 1.73968C28.6967 1.80835 28.8523 1.88901 28.9983 1.97568C29.7927 2.43868 30.4257 3.14301 30.8587 4.05401C30.2587 4.16135 29.6493 4.29001 29.028 4.44835C28.2367 4.64535 27.4603 4.87235 26.6933 5.12601Z" fill="#1C5389"/>
<path d="M31.1794 10.023C30.1237 14.2693 28.9504 18.484 27.5557 22.6127V22.6147C27.2767 22.6897 27.1934 22.7607 27.028 22.8297C26.4627 23.066 25.878 23.277 25.3147 23.462C25.3147 23.4577 25.3094 23.454 25.3114 23.45C26.5254 20.516 27.365 17.4973 27.814 14.3877C28.0467 12.7403 28.1667 11.0677 28.1707 9.36866C28.1707 9.29366 28.17 9.217 28.1657 9.13833C28.158 8.61033 28.1064 8.07633 27.992 7.566C27.8167 6.762 27.5347 6.11166 27.1444 5.60933C27.8007 5.39433 28.4824 5.19733 29.1737 5.028C29.765 4.878 30.3657 4.75033 30.963 4.646C31.0084 4.63633 31.0497 4.63033 31.095 4.62433C31.1934 4.88666 31.285 5.16433 31.3484 5.45766C31.691 7.00433 31.554 8.53366 31.1794 10.023Z" fill="#1C5389"/>
<path d="M19.4374 25.404C19.436 25.427 19.4327 25.4507 19.43 25.4724C19.3717 26.0927 19.2437 26.6547 19.047 27.1817C18.9087 27.5574 18.7344 27.9154 18.5247 28.2634C17.8257 29.4224 16.929 29.4687 16.1324 28.3987C15.7307 27.857 15.3684 27.2834 15.192 26.6224C15.1307 26.3897 15.0914 26.1464 15.0827 25.8904C15.6187 25.9267 15.8034 26.3374 16.093 26.598C16.23 26.7217 16.358 26.8267 16.476 26.912C16.9187 27.2324 17.2504 27.298 17.584 27.0767C17.7864 26.9454 17.9887 26.7087 18.2174 26.3617C18.3994 26.0867 18.558 25.7954 18.724 25.472C18.9394 25.0544 19.165 24.581 19.462 24.012C19.4854 24.5087 19.478 24.97 19.4374 25.404Z" fill="#1C5389"/>
<path d="M47.7233 23.2924C47.0137 23.2924 46.3443 23.1577 45.7137 22.8884C45.0827 22.6194 44.5343 22.2514 44.0683 21.7847C43.6017 21.3187 43.234 20.7734 42.9647 20.1494C42.695 19.5257 42.5607 18.859 42.5607 18.1494C42.5607 17.4404 42.695 16.7704 42.9647 16.1397C43.2337 15.5094 43.6013 14.9607 44.0683 14.4944C44.5343 14.0284 45.0827 13.6604 45.7137 13.391C46.3447 13.1217 47.0137 12.9867 47.7233 12.9867C48.433 12.9867 49.099 13.1217 49.7233 13.391C50.347 13.6604 50.8927 14.028 51.3587 14.4944C51.8247 14.9607 52.1927 15.5094 52.4623 16.1397C52.732 16.7707 52.866 17.4404 52.866 18.1494V18.4057C52.866 18.4847 52.8593 18.57 52.8463 18.662H52.61H43.6247C43.6903 19.1744 43.8417 19.6474 44.078 20.081C44.3147 20.5144 44.613 20.8954 44.9747 21.224C45.3357 21.552 45.753 21.8084 46.2253 21.9927C46.6987 22.1767 47.198 22.268 47.7233 22.268C48.1043 22.268 48.4657 22.196 48.8073 22.0517C49.1483 21.907 49.4507 21.7034 49.7137 21.4407L50.443 22.17C50.1013 22.5117 49.697 22.7844 49.2307 22.988C48.7643 23.1904 48.2617 23.2924 47.7233 23.2924ZM51.802 17.6374C51.7363 17.1247 51.5853 16.6517 51.349 16.2184C51.1127 15.785 50.814 15.404 50.4527 15.0754C50.0913 14.7474 49.6773 14.4914 49.211 14.3067C48.745 14.1234 48.2487 14.031 47.7233 14.031C47.198 14.031 46.6987 14.1234 46.2253 14.3067C45.753 14.491 45.3357 14.747 44.9747 15.0754C44.613 15.404 44.3147 15.785 44.078 16.2184C43.8417 16.6517 43.6903 17.1247 43.6247 17.6374H51.802Z" fill="#1C5389"/>
<path d="M47.7233 23.2924C47.0137 23.2924 46.3443 23.1577 45.7137 22.8884C45.0827 22.6194 44.5343 22.2514 44.0683 21.7847C43.6017 21.3187 43.234 20.7734 42.9647 20.1494C42.695 19.5257 42.5607 18.859 42.5607 18.1494C42.5607 17.4404 42.695 16.7704 42.9647 16.1397C43.2337 15.5094 43.6013 14.9607 44.0683 14.4944C44.5343 14.0284 45.0827 13.6604 45.7137 13.391C46.3447 13.1217 47.0137 12.9867 47.7233 12.9867C48.433 12.9867 49.099 13.1217 49.7233 13.391C50.347 13.6604 50.8927 14.028 51.3587 14.4944C51.8247 14.9607 52.1927 15.5094 52.4623 16.1397C52.732 16.7707 52.866 17.4404 52.866 18.1494V18.4057C52.866 18.4847 52.8593 18.57 52.8463 18.662H52.61H43.6247C43.6903 19.1744 43.8417 19.6474 44.078 20.081C44.3147 20.5144 44.613 20.8954 44.9747 21.224C45.3357 21.552 45.753 21.8084 46.2253 21.9927C46.6987 22.1767 47.198 22.268 47.7233 22.268C48.1043 22.268 48.4657 22.196 48.8073 22.0517C49.1483 21.907 49.4507 21.7034 49.7137 21.4407L50.443 22.17C50.1013 22.5117 49.697 22.7844 49.2307 22.988C48.7643 23.1904 48.2617 23.2924 47.7233 23.2924ZM51.802 17.6374C51.7363 17.1247 51.5853 16.6517 51.349 16.2184C51.1127 15.785 50.814 15.404 50.4527 15.0754C50.0913 14.7474 49.6773 14.4914 49.211 14.3067C48.745 14.1234 48.2487 14.031 47.7233 14.031C47.198 14.031 46.6987 14.1234 46.2253 14.3067C45.753 14.491 45.3357 14.747 44.9747 15.0754C44.613 15.404 44.3147 15.785 44.078 16.2184C43.8417 16.6517 43.6903 17.1247 43.6247 17.6374H51.802Z" stroke="#1C5389" stroke-miterlimit="10"/>
<path d="M59.2507 12.9473C59.9597 12.9473 60.6264 13.0823 61.2507 13.3513C61.8744 13.6207 62.42 13.9887 62.886 14.4547C63.352 14.921 63.72 15.4697 63.9897 16.1003C64.2587 16.731 64.3934 17.4007 64.3934 18.11V23.0363H63.3687V18.11C63.3687 17.5453 63.2607 17.01 63.0437 16.5043C62.827 15.9987 62.5347 15.5617 62.1667 15.194C61.7987 14.826 61.362 14.5337 60.8567 14.3167C60.35 14.1003 59.815 13.9917 59.2507 13.9917C58.6857 13.9917 58.1537 14.1003 57.6544 14.3167C57.155 14.5337 56.7187 14.826 56.3437 15.194C55.9694 15.5617 55.6737 15.9987 55.4577 16.5043C55.2404 17.01 55.132 17.5457 55.132 18.11V23.0363H54.1074V18.11C54.1074 17.4007 54.242 16.7307 54.5117 16.1003C54.7807 15.4697 55.1484 14.9213 55.6154 14.4547C56.0814 13.9887 56.6264 13.6207 57.2507 13.3513C57.8744 13.0823 58.541 12.9473 59.2507 12.9473Z" fill="#1C5389"/>
<path d="M59.2507 12.9473C59.9597 12.9473 60.6264 13.0823 61.2507 13.3513C61.8744 13.6207 62.42 13.9887 62.886 14.4547C63.352 14.921 63.72 15.4697 63.9897 16.1003C64.2587 16.731 64.3934 17.4007 64.3934 18.11V23.0363H63.3687V18.11C63.3687 17.5453 63.2607 17.01 63.0437 16.5043C62.827 15.9987 62.5347 15.5617 62.1667 15.194C61.7987 14.826 61.362 14.5337 60.8567 14.3167C60.35 14.1003 59.815 13.9917 59.2507 13.9917C58.6857 13.9917 58.1537 14.1003 57.6544 14.3167C57.155 14.5337 56.7187 14.826 56.3437 15.194C55.9694 15.5617 55.6737 15.9987 55.4577 16.5043C55.2404 17.01 55.132 17.5457 55.132 18.11V23.0363H54.1074V18.11C54.1074 17.4007 54.242 16.7307 54.5117 16.1003C54.7807 15.4697 55.1484 14.9213 55.6154 14.4547C56.0814 13.9887 56.6264 13.6207 57.2507 13.3513C57.8744 13.0823 58.541 12.9473 59.2507 12.9473Z" stroke="#1C5389" stroke-miterlimit="10"/>
<path d="M66.9357 10.642H67.9597V13.223H71.6843V14.248H67.9597V20.6127C67.9597 21.0334 68.1107 21.3944 68.4127 21.6967C68.7147 21.9987 69.0827 22.1497 69.517 22.1497C69.937 22.1497 70.2983 21.9987 70.6003 21.6967C70.9023 21.3944 71.0533 21.0334 71.0533 20.6127H72.078C72.078 20.967 72.0123 21.302 71.8813 21.6177C71.7493 21.9327 71.5657 22.206 71.3293 22.4354C71.093 22.6654 70.8203 22.849 70.5117 22.9874C70.203 23.125 69.871 23.194 69.517 23.194C69.1623 23.194 68.827 23.125 68.5117 22.9874C68.196 22.849 67.9237 22.6654 67.694 22.4354C67.4643 22.206 67.28 21.9327 67.142 21.6177C67.0047 21.3024 66.9357 20.9674 66.9357 20.6127V10.642Z" fill="#1C5389"/>
<path d="M66.9357 10.642H67.9597V13.223H71.6843V14.248H67.9597V20.6127C67.9597 21.0334 68.1107 21.3944 68.4127 21.6967C68.7147 21.9987 69.0827 22.1497 69.517 22.1497C69.937 22.1497 70.2983 21.9987 70.6003 21.6967C70.9023 21.3944 71.0533 21.0334 71.0533 20.6127H72.078C72.078 20.967 72.0123 21.302 71.8813 21.6177C71.7493 21.9327 71.5657 22.206 71.3293 22.4354C71.093 22.6654 70.8203 22.849 70.5117 22.9874C70.203 23.125 69.871 23.194 69.517 23.194C69.1623 23.194 68.827 23.125 68.5117 22.9874C68.196 22.849 67.9237 22.6654 67.694 22.4354C67.4643 22.206 67.28 21.9327 67.142 21.6177C67.0047 21.3024 66.9357 20.9674 66.9357 20.6127V10.642Z" stroke="#1C5389" stroke-miterlimit="10"/>
<path d="M77.9303 12.928C78.6393 12.928 79.3093 13.0627 79.9407 13.3317C80.571 13.601 81.1183 13.969 81.586 14.4354C82.052 14.902 82.42 15.45 82.689 16.0807C82.9587 16.7114 83.0933 17.3814 83.0933 18.0907V23.0167H82.0483V21.1844C81.5893 21.815 81.0007 22.314 80.2847 22.6817C79.5687 23.0494 78.7847 23.2334 77.9303 23.2334C77.2207 23.2334 76.554 23.0984 75.9303 22.8294C75.306 22.56 74.761 22.1924 74.295 21.7257C73.8283 21.2597 73.4603 20.7144 73.1913 20.0904C72.9217 19.4664 72.787 18.7994 72.787 18.0904C72.787 17.381 72.9217 16.7107 73.1913 16.0804C73.4603 15.4497 73.828 14.9017 74.295 14.435C74.761 13.969 75.306 13.601 75.9303 13.3314C76.554 13.0627 77.2207 12.928 77.9303 12.928ZM77.9303 13.972C77.3653 13.972 76.8333 14.0804 76.3347 14.2974C75.8347 14.514 75.3977 14.8067 75.024 15.1744C74.649 15.542 74.3533 15.979 74.1367 16.4847C73.9207 16.9907 73.8123 17.526 73.8123 18.0907C73.8123 18.6554 73.9203 19.1877 74.1367 19.6867C74.3533 20.1864 74.649 20.6227 75.024 20.9974C75.3977 21.3714 75.8347 21.667 76.3347 21.8837C76.8333 22.1004 77.3653 22.209 77.9303 22.209C78.4947 22.209 79.0307 22.1007 79.5363 21.8837C80.041 21.667 80.479 21.3714 80.847 20.9974C81.215 20.6227 81.5067 20.186 81.724 19.6867C81.94 19.1877 82.0483 18.6557 82.0483 18.0907C82.0483 17.5257 81.9403 16.9907 81.724 16.4847C81.5067 15.979 81.215 15.542 80.847 15.1744C80.479 14.8067 80.041 14.5144 79.5363 14.2974C79.0307 14.0804 78.4947 13.972 77.9303 13.972Z" fill="#1C5389"/>
<path d="M77.9303 12.928C78.6393 12.928 79.3093 13.0627 79.9407 13.3317C80.571 13.601 81.1183 13.969 81.586 14.4354C82.052 14.902 82.42 15.45 82.689 16.0807C82.9587 16.7114 83.0933 17.3814 83.0933 18.0907V23.0167H82.0483V21.1844C81.5893 21.815 81.0007 22.314 80.2847 22.6817C79.5687 23.0494 78.7847 23.2334 77.9303 23.2334C77.2207 23.2334 76.554 23.0984 75.9303 22.8294C75.306 22.56 74.761 22.1924 74.295 21.7257C73.8283 21.2597 73.4603 20.7144 73.1913 20.0904C72.9217 19.4664 72.787 18.7994 72.787 18.0904C72.787 17.381 72.9217 16.7107 73.1913 16.0804C73.4603 15.4497 73.828 14.9017 74.295 14.435C74.761 13.969 75.306 13.601 75.9303 13.3314C76.554 13.0627 77.2207 12.928 77.9303 12.928ZM77.9303 13.972C77.3653 13.972 76.8333 14.0804 76.3347 14.2974C75.8347 14.514 75.3977 14.8067 75.024 15.1744C74.649 15.542 74.3533 15.979 74.1367 16.4847C73.9207 16.9907 73.8123 17.526 73.8123 18.0907C73.8123 18.6554 73.9203 19.1877 74.1367 19.6867C74.3533 20.1864 74.649 20.6227 75.024 20.9974C75.3977 21.3714 75.8347 21.667 76.3347 21.8837C76.8333 22.1004 77.3653 22.209 77.9303 22.209C78.4947 22.209 79.0307 22.1007 79.5363 21.8837C80.041 21.667 80.479 21.3714 80.847 20.9974C81.215 20.6227 81.5067 20.186 81.724 19.6867C81.94 19.1877 82.0483 18.6557 82.0483 18.0907C82.0483 17.5257 81.9403 16.9907 81.724 16.4847C81.5067 15.979 81.215 15.542 80.847 15.1744C80.479 14.8067 80.041 14.5144 79.5363 14.2974C79.0307 14.0804 78.4947 13.972 77.9303 13.972Z" stroke="#1C5389" stroke-miterlimit="10"/>
<path d="M84.5514 8.25769H85.5754V20.6714C85.5754 21.105 85.7264 21.4727 86.0284 21.775C86.331 22.0774 86.6984 22.228 87.132 22.228V23.2527C86.7777 23.2527 86.4434 23.187 86.1274 23.0557C85.8114 22.9244 85.5387 22.7407 85.309 22.504C85.0794 22.2677 84.895 21.9917 84.7584 21.6767C84.6204 21.3614 84.5514 21.0264 84.5514 20.6714V8.25769Z" fill="#1C5389"/>
<path d="M84.5514 8.25769H85.5754V20.6714C85.5754 21.105 85.7264 21.4727 86.0284 21.775C86.331 22.0774 86.6984 22.228 87.132 22.228V23.2527C86.7777 23.2527 86.4434 23.187 86.1274 23.0557C85.8114 22.9244 85.5387 22.7407 85.309 22.504C85.0794 22.2677 84.895 21.9917 84.7584 21.6767C84.6204 21.3614 84.5514 21.0264 84.5514 20.6714V8.25769V8.25769Z" stroke="#1C5389" stroke-miterlimit="10"/>
<path d="M42.6713 6.8857C42.1167 5.80237 41.3143 4.89404 40.2647 4.16437C39.212 3.4337 38.0067 2.87637 36.6453 2.48737C35.2857 2.1017 33.808 1.8847 32.215 1.84104C31.145 1.81204 30.0733 1.85704 28.999 1.9767C28.4733 2.03504 27.9463 2.1117 27.4177 2.20637C25.8133 2.49337 24.2483 2.93137 22.7213 3.5167C21.194 4.10337 19.811 4.84037 18.572 5.72404C18.441 5.81837 18.3173 5.91737 18.1993 6.01937C18.6913 5.91737 19.134 5.74004 19.5747 5.5697C20.8197 5.08937 22.0497 4.5797 23.391 4.39504C24.793 4.2027 25.8963 4.44437 26.691 5.12737C27.4583 4.87104 28.237 4.64537 29.0277 4.44737C29.6477 4.29137 30.2577 4.16204 30.859 4.0557C31.759 3.89837 32.6353 3.7967 33.4913 3.75004C34.9197 3.67237 36.2357 3.77171 37.4427 4.04837C38.6483 4.32504 39.6383 4.82837 40.4127 5.55804C41.3197 6.3777 41.7737 7.3577 41.7737 8.49604C41.7737 9.6357 41.4473 10.8367 40.794 12.0977C40.142 13.3584 39.2117 14.6324 38.006 15.915C36.8003 17.1994 35.445 18.3987 33.9397 19.5167C32.4343 20.6347 30.8357 21.625 29.144 22.4867C28.5007 22.8157 27.86 23.1114 27.224 23.3764C26.477 23.6867 25.7347 23.9527 24.9997 24.1757C24.947 24.2977 24.8933 24.4187 24.8393 24.5397C24.4783 25.3494 24.0967 26.1804 23.3937 26.9187C24.2833 26.7847 25.1657 26.6027 26.0403 26.3707C26.0563 26.3667 26.0713 26.3624 26.087 26.3577C28.326 25.7627 30.4633 24.8977 32.4957 23.765C34.543 22.6267 36.3523 21.3584 37.9233 19.9654C38.941 19.0584 39.8597 18.0727 40.6793 17.01C41.4973 15.9484 42.1393 14.848 42.604 13.708C43.0683 12.5684 43.329 11.4237 43.384 10.272C43.4383 9.1217 43.2013 7.99337 42.6713 6.8857Z" fill="#1C5389"/>
<path d="M37.3897 37.2173C37.3897 37.4663 37.372 38.808 36.296 38.808C35.7997 38.808 35.2027 38.453 35.2027 37.2173C35.2027 35.9887 35.7877 35.622 36.296 35.622C36.787 35.622 37.3897 35.9763 37.3897 37.2173ZM35.6164 37.2173C35.6164 37.6667 35.699 38.436 36.296 38.436C36.893 38.436 36.976 37.6663 36.976 37.2173C36.976 36.7627 36.893 35.9943 36.296 35.9943C35.699 35.9943 35.6164 36.7627 35.6164 37.2173Z" fill="#1C5389"/>
<path d="M41.0903 35.6754H43.029V36.0297H41.4863V36.9514H42.7807V37.307H41.4863V38.7554H41.0903V35.6754Z" fill="#1C5389"/>
<path d="M53.983 38.1633C53.7344 38.5536 53.4387 38.8083 52.9603 38.8083C52.062 38.8083 51.778 37.9803 51.778 37.2176C51.778 35.989 52.4283 35.6223 52.9243 35.6223C53.4037 35.6223 53.6813 35.8703 53.9004 36.2786L53.5397 36.462C53.4093 36.2133 53.2323 35.995 52.931 35.995C52.3157 35.995 52.192 36.7393 52.192 37.2123C52.192 37.691 52.304 38.4366 52.931 38.4366C53.291 38.4366 53.4747 38.217 53.6577 37.94L53.983 38.1633Z" fill="#1C5389"/>
<path d="M57.636 35.6754H58.0327V38.4H59.646V38.7554H57.636V35.6754Z" fill="#1C5389"/>
<path d="M63.2994 38.4H63.731V36.0297H63.2994V35.6754H64.5644V36.0297H64.127V38.4H64.5644V38.7554H63.2994V38.4Z" fill="#1C5389"/>
<path d="M68.726 35.6754H70.6647V36.0297H69.1217V36.9514H70.416V37.307H69.1217V38.7554H68.726V35.6754Z" fill="#1C5389"/>
<path d="M74.797 36.0297H73.9454V35.6754H76.026V36.0297H75.1927V38.7554H74.797V36.0297Z" fill="#1C5389"/>
<path d="M81.606 37.2173C81.606 37.4663 81.589 38.808 80.513 38.808C80.0163 38.808 79.42 38.453 79.42 37.2173C79.42 35.9887 80.0053 35.622 80.513 35.622C81.004 35.622 81.606 35.9763 81.606 37.2173ZM79.8333 37.2173C79.8333 37.6667 79.9153 38.436 80.513 38.436C81.1107 38.436 81.1933 37.6663 81.1933 37.2173C81.1933 36.7627 81.1107 35.9943 80.513 35.9943C79.9153 35.9943 79.8333 36.7627 79.8333 37.2173Z" fill="#1C5389"/>
<path d="M85.0117 35.6754H85.5027L86.6967 38.27L86.7077 38.2584L86.6727 37.461V35.6754H87.069V38.7554H86.5774L85.384 36.1597L85.3724 36.1724L85.4077 36.9754V38.7554H85.0117V35.6754Z" fill="#1C5389"/>
<path d="M37.8117 25.6334H38.119L40.3117 32.1914L42.5353 25.6334H43.1297L40.5987 32.8264H40.0047L38.867 29.4654L37.9653 26.6274L37.0637 29.445L35.916 32.8264H35.3217L32.8113 25.6334H33.3953L35.6087 32.1914L37.8117 25.6334Z" fill="#B289B3"/>
<path d="M37.8117 25.6334H38.119L40.3117 32.1914L42.5353 25.6334H43.1297L40.5987 32.8264H40.0047L38.867 29.4654L37.9653 26.6274L37.0637 29.445L35.916 32.8264H35.3217L32.8113 25.6334H33.3953L35.6087 32.1914L37.8117 25.6334Z" stroke="#B289B3" stroke-width="2" stroke-miterlimit="10"/>
<path d="M44.6357 28.943H48.8374V29.445H44.6357V32.2734H49.1647V32.806H44.0927V25.6334H49.0417V26.1564H44.6357V28.943Z" fill="#B289B3"/>
<path d="M44.6357 28.943H48.8374V29.445H44.6357V32.2734H49.1647V32.806H44.0927V25.6334H49.0417V26.1564H44.6357V28.943Z" stroke="#B289B3" stroke-width="2" stroke-miterlimit="10"/>
<path d="M50.9377 25.6334V32.2837H54.9747V32.806H50.384V25.6334H50.9377Z" fill="#B289B3"/>
<path d="M50.9377 25.6334V32.2837H54.9747V32.806H50.384V25.6334H50.9377Z" stroke="#B289B3" stroke-width="2" stroke-miterlimit="10"/>
<path d="M56.573 25.6334V32.2837H60.61V32.806H56.0197V25.6334H56.573Z" fill="#B289B3"/>
<path d="M56.573 25.6334V32.2837H60.61V32.806H56.0197V25.6334H56.573Z" stroke="#B289B3" stroke-width="2" stroke-miterlimit="10"/>
<path d="M61.9003 25.6334L66.7267 31.566V25.6334H67.2703V32.806H67.0547L62.218 26.8834V32.806H61.6647V25.6334H61.9003Z" fill="#B289B3"/>
<path d="M61.9003 25.6334L66.7267 31.566V25.6334H67.2703V32.806H67.0547L62.218 26.8834V32.806H61.6647V25.6334H61.9003Z" stroke="#B289B3" stroke-width="2" stroke-miterlimit="10"/>
<path d="M69.4113 28.943H73.6127V29.445H69.4113V32.2734H73.94V32.806H68.8683V25.6334H73.8177V26.1564H69.4113V28.943Z" fill="#B289B3"/>
<path d="M69.4113 28.943H73.6127V29.445H69.4113V32.2734H73.94V32.806H68.8683V25.6334H73.8177V26.1564H69.4113V28.943Z" stroke="#B289B3" stroke-width="2" stroke-miterlimit="10"/>
<path d="M80.0267 27.0167C79.504 26.1763 78.664 26.0533 77.854 26.0433C77.014 26.0433 75.682 26.3507 75.682 27.4983C75.682 28.41 76.6657 28.6257 77.8747 28.851C79.258 29.1173 80.6924 29.3633 80.6924 30.9107C80.6827 32.5293 79.053 32.9187 77.8537 32.9187C76.737 32.9187 75.4664 32.4577 74.9137 31.361L75.4054 31.1153C75.846 31.9863 76.973 32.4167 77.854 32.4167C78.7357 32.4167 80.1397 32.1707 80.1397 30.9C80.1494 29.824 78.9607 29.5883 77.7824 29.3633C76.471 29.107 75.1287 28.8407 75.1287 27.5187C75.098 26.0023 76.6757 25.531 77.854 25.531C78.8794 25.531 79.7707 25.6947 80.4777 26.7503L80.0267 27.0167Z" fill="#B289B3"/>
<path d="M80.0267 27.0167C79.504 26.1763 78.664 26.0533 77.854 26.0433C77.014 26.0433 75.682 26.3507 75.682 27.4983C75.682 28.41 76.6657 28.6257 77.8747 28.851C79.258 29.1173 80.6924 29.3633 80.6924 30.9107C80.6827 32.5293 79.053 32.9187 77.8537 32.9187C76.737 32.9187 75.4664 32.4577 74.9137 31.361L75.4054 31.1153C75.846 31.9863 76.973 32.4167 77.854 32.4167C78.7357 32.4167 80.1397 32.1707 80.1397 30.9C80.1494 29.824 78.9607 29.5883 77.7824 29.3633C76.471 29.107 75.1287 28.8407 75.1287 27.5187C75.098 26.0023 76.6757 25.531 77.854 25.531C78.8794 25.531 79.7707 25.6947 80.4777 26.7503L80.0267 27.0167Z" stroke="#B289B3" stroke-width="2" stroke-miterlimit="10"/>
<path d="M86.5123 27.0167C85.9903 26.1763 85.1497 26.0533 84.341 26.0433C83.5 26.0433 82.1684 26.3507 82.1684 27.4983C82.1684 28.41 83.1513 28.6257 84.361 28.851C85.7437 29.1173 87.178 29.3633 87.178 30.9107C87.1683 32.5293 85.5387 32.9187 84.3407 32.9187C83.2223 32.9187 81.952 32.4577 81.3987 31.361L81.891 31.1153C82.3324 31.9863 83.4593 32.4167 84.341 32.4167C85.2213 32.4167 86.625 32.1707 86.625 30.9C86.6353 29.824 85.4473 29.5883 84.2683 29.3633C82.957 29.107 81.6153 28.8407 81.6153 27.5187C81.5833 26.0023 83.1623 25.531 84.3413 25.531C85.3647 25.531 86.2567 25.6947 86.9637 26.7503L86.5123 27.0167Z" fill="#B289B3"/>
<path d="M86.5123 27.0167C85.9903 26.1763 85.1497 26.0533 84.341 26.0433C83.5 26.0433 82.1684 26.3507 82.1684 27.4983C82.1684 28.41 83.1513 28.6257 84.361 28.851C85.7437 29.1173 87.178 29.3633 87.178 30.9107C87.1683 32.5293 85.5387 32.9187 84.3407 32.9187C83.2223 32.9187 81.952 32.4577 81.3987 31.361L81.891 31.1153C82.3324 31.9863 83.4593 32.4167 84.341 32.4167C85.2213 32.4167 86.625 32.1707 86.625 30.9C86.6353 29.824 85.4473 29.5883 84.2683 29.3633C82.957 29.107 81.6153 28.8407 81.6153 27.5187C81.5833 26.0023 83.1623 25.531 84.3413 25.531C85.3647 25.531 86.2567 25.6947 86.9637 26.7503L86.5123 27.0167Z" stroke="#B289B3" stroke-width="2" stroke-miterlimit="10"/>
<path d="M87.2594 34.157H34.67V34.4353H87.2594V34.157Z" fill="#80D1E4"/>
</svg>
