<svg width="298" height="156" viewBox="0 0 298 156" fill="none" xmlns="http://www.w3.org/2000/svg">
<g filter="url(#filter0_d_1529_6330)">
<g clip-path="url(#clip0_1529_6330)">
<rect x="48" y="36" width="202" height="60" rx="12" fill="#242424"/>
<path d="M208.006 81.0003H210.798V62.2475H208.006V81.0003ZM233.154 69.0032L229.954 77.1329H229.858L226.536 69.0032H223.529L228.512 80.3658L225.67 86.6866H228.582L236.259 69.0037L233.154 69.0032ZM217.32 78.8702C216.407 78.8702 215.131 78.4113 215.131 77.2776C215.131 75.8303 216.72 75.2754 218.09 75.2754C219.317 75.2754 219.896 75.5403 220.642 75.9024C220.425 77.6397 218.933 78.8701 217.32 78.8701L217.32 78.8702ZM217.658 68.593C215.636 68.593 213.543 69.4859 212.677 71.4641L215.155 72.5012C215.684 71.4641 216.67 71.1267 217.706 71.1267C219.15 71.1267 220.618 71.9944 220.641 73.5389V73.7317C220.136 73.4422 219.052 73.0081 217.73 73.0081C215.057 73.0081 212.339 74.4792 212.339 77.2296C212.339 79.7385 214.529 81.3551 216.983 81.3551C218.859 81.3551 219.896 80.5107 220.544 79.5212H220.641V80.9695H223.338V73.7796C223.338 70.4504 220.857 68.593 217.658 68.593V68.593ZM200.403 71.2859H196.432V64.8584H200.403C202.49 64.8584 203.675 66.5905 203.675 68.0721C203.675 69.5253 202.49 71.2859 200.403 71.2859ZM200.331 62.248H193.641V81.0007H196.432V73.8964H200.331C203.425 73.8964 206.467 71.6511 206.467 68.0728C206.467 64.4952 203.425 62.2487 200.331 62.2487L200.331 62.248ZM163.851 78.8733C161.922 78.8733 160.308 77.2538 160.308 75.0314C160.308 72.7832 161.922 71.1408 163.851 71.1408C165.755 71.1408 167.25 72.7833 167.25 75.0314C167.25 77.2538 165.755 78.8733 163.851 78.8733ZM167.057 70.0529H166.96C166.334 69.304 165.128 68.6273 163.61 68.6273C160.427 68.6273 157.511 71.4309 157.511 75.0314C157.511 78.6074 160.427 81.3864 163.61 81.3864C165.128 81.3864 166.334 80.7096 166.96 79.9368H167.057V80.8543C167.057 83.2959 165.755 84.6001 163.658 84.6001C161.947 84.6001 160.886 83.3679 160.452 82.329L158.018 83.3438C158.716 85.0347 160.572 87.1137 163.658 87.1137C166.937 87.1137 169.709 85.18 169.709 80.4675V69.0138H167.057L167.057 70.0529ZM171.638 80.9997H174.433V62.2469H171.638V80.9997ZM178.555 74.8135C178.483 72.3485 180.46 71.0922 181.882 71.0922C182.991 71.0922 183.93 71.6482 184.245 72.4451L178.555 74.8135ZM187.233 72.6866C186.703 71.2616 185.088 68.6273 181.785 68.6273C178.507 68.6273 175.783 71.2129 175.783 75.0069C175.783 78.5834 178.483 81.3865 182.098 81.3865C185.015 81.3865 186.703 79.5988 187.402 78.5593L185.233 77.1092C184.509 78.1727 183.521 78.8734 182.098 78.8734C180.677 78.8734 179.664 78.2208 179.014 76.94L187.522 73.4121L187.233 72.6866ZM119.44 70.5848V73.2913H125.901C125.708 74.8136 125.202 75.925 124.43 76.6985C123.49 77.6406 122.019 78.68 119.44 78.68C115.463 78.68 112.354 75.4662 112.354 71.479C112.354 67.4917 115.463 64.2775 119.44 64.2775C121.586 64.2775 123.152 65.1235 124.309 66.2109L126.214 64.3014C124.599 62.7551 122.454 61.571 119.44 61.571C113.992 61.571 109.412 66.0175 109.412 71.479C109.412 76.9399 113.992 81.3865 119.44 81.3865C122.381 81.3865 124.599 80.4197 126.334 78.6075C128.118 76.8192 128.673 74.3061 128.673 72.2759C128.673 71.6483 128.624 71.0684 128.528 70.5848H119.44ZM136.018 78.8733C134.089 78.8733 132.426 77.2784 132.426 75.0069C132.426 72.7112 134.089 71.1409 136.018 71.1409C137.946 71.1409 139.609 72.7112 139.609 75.0069C139.609 77.2784 137.946 78.8733 136.018 78.8733ZM136.018 68.6273C132.498 68.6273 129.629 71.3096 129.629 75.0069C129.629 78.68 132.498 81.3865 136.018 81.3865C139.537 81.3865 142.406 78.68 142.406 75.0069C142.406 71.3096 139.537 68.6273 136.018 68.6273ZM149.953 78.8733C148.025 78.8733 146.361 77.2784 146.361 75.0069C146.361 72.7112 148.025 71.1409 149.953 71.1409C151.881 71.1409 153.544 72.7112 153.544 75.0069C153.544 77.2784 151.881 78.8733 149.953 78.8733ZM149.953 68.6273C146.434 68.6273 143.565 71.3096 143.565 75.0069C143.565 78.68 146.434 81.3865 149.953 81.3865C153.473 81.3865 156.341 78.68 156.341 75.0069C156.341 71.3096 153.473 68.6273 149.953 68.6273Z" fill="white"/>
<path d="M78.998 65.1367L63.0692 82.086C63.0698 82.0895 63.071 82.0924 63.0716 82.096C63.5601 83.9366 65.237 85.2917 67.2271 85.2917C68.0227 85.2917 68.7696 85.0761 69.4102 84.6976L69.4611 84.6677L87.3919 74.2952L78.9988 65.1365" fill="#EB3131"/>
<path d="M95.1143 62.2508L95.099 62.2404L87.3577 57.7415L78.6361 65.5216L87.388 74.294L95.0884 69.8399C96.4385 69.1093 97.355 67.6825 97.355 66.0371C97.355 64.4036 96.4508 62.984 95.1141 62.2509" fill="#F6B60B"/>
<path d="M63.067 49.9163C62.9712 50.2703 62.9209 50.641 62.9209 51.0261V80.9772C62.9209 81.3615 62.9706 81.7335 63.0676 82.0863L79.5463 65.57L63.0676 49.9167" fill="#5778C5"/>
<path d="M79.1159 66.0016L87.3612 57.7383L69.4505 47.3282C68.7995 46.9373 68.0396 46.7117 67.2266 46.7117C65.2364 46.7117 63.5573 48.0693 63.0686 49.912C63.068 49.9138 63.068 49.915 63.068 49.9166L79.1158 66.0019" fill="#3BAD49"/>
<path d="M118.917 50.6723H114.552V51.7551H117.823C117.734 52.6388 117.383 53.3325 116.791 53.8364C116.2 54.3404 115.445 54.5934 114.552 54.5934C113.572 54.5934 112.742 54.2513 112.062 53.5717C111.396 52.8779 111.057 52.0201 111.057 50.9865C111.057 49.953 111.396 49.0952 112.062 48.4015C112.742 47.7218 113.572 47.382 114.552 47.382C115.054 47.382 115.534 47.4687 115.973 47.6585C116.413 47.8483 116.766 48.1132 117.042 48.4531L117.872 47.621C117.495 47.1921 117.018 46.864 116.427 46.6249C115.835 46.3858 115.218 46.2711 114.552 46.2711C113.245 46.2711 112.137 46.7257 111.232 47.6328C110.327 48.5421 109.874 49.6624 109.874 50.9865C109.874 52.3107 110.327 53.4334 111.232 54.3405C112.137 55.2474 113.245 55.7022 114.552 55.7022C115.924 55.7022 117.018 55.2615 117.86 54.3662C118.601 53.621 118.98 52.6132 118.98 51.3523C118.98 51.139 118.954 50.9116 118.916 50.6725L118.917 50.6723ZM120.608 46.4724V55.5005H125.865V54.3919H121.765V51.528H125.463V50.4451H121.765V47.5834H125.865V46.4724L120.608 46.4724ZM133.238 47.5835V46.4724H127.05V47.5835H129.565V55.5005H130.723V47.5835H133.238ZM138.841 46.4724H137.684V55.5005H138.841V46.4724ZM146.479 47.5835V46.4724H140.291V47.5835H142.806V55.5005H143.964V47.5835H146.479ZM158.157 47.6468C157.264 46.7256 156.17 46.271 154.863 46.271C153.554 46.271 152.46 46.7256 151.567 47.6327C150.674 48.528 150.234 49.6506 150.234 50.9865C150.234 52.3223 150.674 53.4451 151.567 54.3404C152.46 55.2473 153.554 55.7022 154.863 55.7022C156.158 55.7022 157.264 55.2474 158.157 54.3404C159.05 53.4451 159.49 52.3224 159.49 50.9865C159.49 49.6623 159.05 48.5419 158.157 47.6468ZM152.397 48.4014C153.063 47.7218 153.881 47.3819 154.863 47.3819C155.843 47.3819 156.661 47.7218 157.316 48.4014C157.982 49.0693 158.309 49.9411 158.309 50.9864C158.309 52.0342 157.982 52.9036 157.316 53.5716C156.661 54.2512 155.843 54.5934 154.863 54.5934C153.881 54.5934 153.063 54.2512 152.397 53.5716C151.744 52.8896 151.417 52.0342 151.417 50.9864C151.417 49.9411 151.744 49.0834 152.397 48.4014ZM162.239 49.878L162.19 48.1365H162.239L166.817 55.5004H168.025V46.4723H166.868V51.755L166.917 53.4966H166.868L162.492 46.4723H161.082V55.5004H162.239V49.878Z" fill="white" stroke="white" stroke-width="0.26666" stroke-miterlimit="10"/>
</g>
</g>
<defs>
<filter id="filter0_d_1529_6330" x="0" y="0" width="298" height="156" filterUnits="userSpaceOnUse" color-interpolation-filters="sRGB">
<feFlood flood-opacity="0" result="BackgroundImageFix"/>
<feColorMatrix in="SourceAlpha" type="matrix" values="0 0 0 0 0 0 0 0 0 0 0 0 0 0 0 0 0 0 127 0" result="hardAlpha"/>
<feOffset dy="12"/>
<feGaussianBlur stdDeviation="24"/>
<feComposite in2="hardAlpha" operator="out"/>
<feColorMatrix type="matrix" values="0 0 0 0 0.0311111 0 0 0 0 0.108552 0 0 0 0 0.133333 0 0 0 0.16 0"/>
<feBlend mode="normal" in2="BackgroundImageFix" result="effect1_dropShadow_1529_6330"/>
<feBlend mode="normal" in="SourceGraphic" in2="effect1_dropShadow_1529_6330" result="shape"/>
</filter>
<clipPath id="clip0_1529_6330">
<rect x="48" y="36" width="202" height="60" rx="12" fill="white"/>
</clipPath>
</defs>
</svg>
