<svg width="298" height="156" viewBox="0 0 298 156" fill="none" xmlns="http://www.w3.org/2000/svg">
<g filter="url(#filter0_d_1529_6298)">
<g clip-path="url(#clip0_1529_6298)">
<rect x="48" y="36" width="202" height="60" rx="12" fill="#242424"/>
<path d="M93.0804 65.6761C93.037 60.8416 97.0291 58.4896 97.2117 58.3801C94.9508 55.0756 91.4465 54.6241 90.215 54.5881C87.2718 54.2776 84.4169 56.3536 82.9176 56.3536C81.3884 56.3536 79.0796 54.6181 76.5912 54.6691C73.3892 54.7186 70.3936 56.5771 68.7506 59.4631C65.36 65.3476 67.8888 73.9951 71.1372 78.7515C72.7622 81.081 74.661 83.682 77.1464 83.5905C79.5778 83.49 80.4861 82.0366 83.4203 82.0366C86.3276 82.0366 87.1805 83.5905 89.7152 83.5321C92.3248 83.49 93.9677 81.1921 95.5358 78.8416C97.4137 76.1716 98.1678 73.5421 98.1978 73.4071C98.1364 73.3861 93.1298 71.4706 93.0804 65.6761Z" fill="white"/>
<path d="M88.2923 51.4589C89.6 49.8194 90.4948 47.5889 90.2464 45.3254C88.3536 45.4094 85.9865 46.6379 84.6233 48.2414C83.4173 49.6544 82.34 51.9704 82.6183 54.1484C84.7445 54.3074 86.9276 53.0729 88.2923 51.4589Z" fill="white"/>
<path d="M128.269 83.2559H124.871L123.009 77.3924H116.539L114.766 83.2559H111.458L117.868 63.2939H121.827L128.269 83.2559ZM122.448 74.9324L120.765 69.7199C120.587 69.1874 120.253 67.9334 119.761 65.9594H119.701C119.505 66.8084 119.189 68.0624 118.755 69.7199L117.102 74.9324H122.448Z" fill="white"/>
<path d="M144.754 75.8819C144.754 78.3299 144.094 80.2649 142.774 81.6854C141.592 82.9499 140.124 83.5814 138.372 83.5814C136.48 83.5814 135.122 82.9004 134.294 81.5384H134.235V89.1209H131.044V73.6004C131.044 72.0614 131.004 70.4819 130.926 68.8619H133.732L133.91 71.1434H133.97C135.034 69.4244 136.648 68.5664 138.815 68.5664C140.509 68.5664 141.923 69.2369 143.054 70.5794C144.188 71.9234 144.754 73.6904 144.754 75.8819ZM141.504 75.9989C141.504 74.5979 141.189 73.4429 140.558 72.5339C139.868 71.5859 138.942 71.1119 137.781 71.1119C136.994 71.1119 136.278 71.3759 135.64 71.8964C134.999 72.4214 134.58 73.1069 134.384 73.9559C134.285 74.3519 134.236 74.6759 134.236 74.9309V77.3309C134.236 78.3779 134.556 79.2614 135.197 79.9829C135.837 80.7044 136.669 81.0644 137.692 81.0644C138.894 81.0644 139.829 80.5994 140.498 79.6724C141.168 78.7439 141.504 77.5199 141.504 75.9989Z" fill="white"/>
<path d="M161.268 75.8819C161.268 78.3299 160.608 80.2649 159.287 81.6854C158.106 82.9499 156.639 83.5814 154.886 83.5814C152.995 83.5814 151.636 82.9004 150.811 81.5384H150.751V89.1209H147.561V73.6004C147.561 72.0614 147.52 70.4819 147.442 68.8619H150.248L150.426 71.1434H150.486C151.548 69.4244 153.163 68.5664 155.331 68.5664C157.023 68.5664 158.437 69.2369 159.571 70.5794C160.701 71.9234 161.268 73.6904 161.268 75.8819ZM158.018 75.9989C158.018 74.5979 157.702 73.4429 157.071 72.5339C156.381 71.5859 155.458 71.1119 154.295 71.1119C153.507 71.1119 152.793 71.3759 152.153 71.8964C151.512 72.4214 151.095 73.1069 150.899 73.9559C150.802 74.3519 150.751 74.6759 150.751 74.9309V77.3309C150.751 78.3779 151.071 79.2614 151.708 79.9829C152.349 80.7029 153.181 81.0644 154.207 81.0644C155.409 81.0644 156.344 80.5994 157.013 79.6724C157.683 78.7439 158.018 77.5199 158.018 75.9989Z" fill="white"/>
<path d="M179.732 77.658C179.732 79.356 179.144 80.7375 177.964 81.804C176.667 82.9695 174.86 83.5515 172.54 83.5515C170.397 83.5515 168.679 83.1375 167.379 82.308L168.118 79.6425C169.519 80.4915 171.055 80.9175 172.73 80.9175C173.931 80.9175 174.866 80.6445 175.538 80.1015C176.207 79.5585 176.541 78.8295 176.541 77.9205C176.541 77.1105 176.266 76.428 175.713 75.8745C175.164 75.321 174.247 74.8065 172.966 74.331C169.48 73.0275 167.738 71.118 167.738 68.607C167.738 66.966 168.349 65.6205 169.571 64.5735C170.789 63.525 172.414 63.0015 174.446 63.0015C176.258 63.0015 177.763 63.318 178.965 63.9495L178.167 66.5565C177.045 65.9445 175.776 65.6385 174.356 65.6385C173.234 65.6385 172.357 65.916 171.729 66.468C171.198 66.9615 170.931 67.563 170.931 68.2755C170.931 69.0645 171.235 69.717 171.845 70.23C172.377 70.704 173.342 71.217 174.742 71.7705C176.456 72.462 177.714 73.2705 178.523 74.1975C179.33 75.1215 179.732 76.278 179.732 77.658Z" fill="white"/>
<path d="M190.28 71.2619H186.764V78.2504C186.764 80.0279 187.383 80.9159 188.625 80.9159C189.195 80.9159 189.668 80.8664 190.042 80.7674L190.13 83.1959C189.502 83.4314 188.674 83.5499 187.649 83.5499C186.389 83.5499 185.405 83.1644 184.694 82.3949C183.986 81.6239 183.63 80.3309 183.63 78.5144V71.2589H181.535V68.8589H183.63V66.2234L186.764 65.2754V68.8589H190.28V71.2619Z" fill="white"/>
<path d="M206.145 75.9404C206.145 78.1529 205.514 79.9694 204.254 81.3899C202.933 82.8524 201.179 83.5814 198.993 83.5814C196.886 83.5814 195.209 82.8809 193.958 81.4799C192.707 80.0789 192.081 78.3104 192.081 76.1789C192.081 73.9484 192.725 72.1214 194.016 70.7009C195.304 69.2789 197.043 68.5679 199.229 68.5679C201.336 68.5679 203.031 69.2684 204.311 70.6709C205.535 72.0314 206.145 73.7879 206.145 75.9404ZM202.835 76.0439C202.835 74.7164 202.552 73.5779 201.979 72.6284C201.311 71.4794 200.354 70.9064 199.115 70.9064C197.833 70.9064 196.859 71.4809 196.19 72.6284C195.617 73.5794 195.334 74.7359 195.334 76.1039C195.334 77.4314 195.617 78.5699 196.19 79.5179C196.88 80.6669 197.844 81.2399 199.087 81.2399C200.305 81.2399 201.261 80.6549 201.951 79.4879C202.539 78.5204 202.835 77.3699 202.835 76.0439Z" fill="white"/>
<path d="M216.514 71.6744C216.199 71.6159 215.862 71.5859 215.509 71.5859C214.387 71.5859 213.519 72.0104 212.908 72.8609C212.377 73.6109 212.111 74.5589 212.111 75.7034V83.2559H208.922L208.952 73.3949C208.952 71.7359 208.912 70.2254 208.832 68.8634H211.611L211.728 71.6174H211.816C212.153 70.6709 212.684 69.9089 213.411 69.3374C214.122 68.8229 214.889 68.5664 215.717 68.5664C216.012 68.5664 216.278 68.5874 216.514 68.6249V71.6744Z" fill="white"/>
<path d="M230.782 75.3781C230.782 75.9511 230.744 76.434 230.665 76.8285H221.095C221.132 78.2505 221.594 79.338 222.483 80.088C223.29 80.7585 224.333 81.0945 225.613 81.0945C227.03 81.0945 228.323 80.868 229.486 80.4135L229.986 82.6336C228.627 83.2276 227.023 83.523 225.172 83.523C222.945 83.523 221.198 82.866 219.926 81.5535C218.657 80.241 218.021 78.4785 218.021 76.2675C218.021 74.097 218.612 72.2896 219.796 70.8481C221.035 69.3091 222.709 68.5396 224.816 68.5396C226.885 68.5396 228.452 69.3091 229.516 70.8481C230.358 72.0706 230.782 73.5826 230.782 75.3781ZM227.74 74.5485C227.761 73.6005 227.553 72.7815 227.12 72.09C226.568 71.2005 225.72 70.7565 224.578 70.7565C223.535 70.7565 222.687 71.1901 222.039 72.0601C221.508 72.7516 221.192 73.581 221.095 74.547H227.74V74.5485Z" fill="white"/>
<path d="M121.393 51.0135C121.393 52.779 120.865 54.108 119.81 55.0005C118.833 55.824 117.445 56.2365 115.646 56.2365C114.754 56.2365 113.991 56.1975 113.352 56.1195V46.473C114.186 46.338 115.083 46.269 116.053 46.269C117.766 46.269 119.058 46.6425 119.928 47.3895C120.904 48.234 121.393 49.4415 121.393 51.0135ZM119.74 51.057C119.74 49.9125 119.438 49.035 118.833 48.423C118.229 47.8125 117.346 47.5065 116.183 47.5065C115.689 47.5065 115.269 47.5395 114.92 47.6085V54.942C115.113 54.972 115.467 54.9855 115.98 54.9855C117.18 54.9855 118.106 54.651 118.758 53.982C119.411 53.313 119.74 52.338 119.74 51.057Z" fill="white"/>
<path d="M130.16 52.5556C130.16 53.6431 129.85 54.5341 129.231 55.2331C128.582 55.9516 127.721 56.3101 126.647 56.3101C125.611 56.3101 124.787 55.9666 124.172 55.2766C123.558 54.5881 123.252 53.7196 123.252 52.6726C123.252 51.5776 123.567 50.6791 124.202 49.9816C124.836 49.2841 125.689 48.9346 126.764 48.9346C127.799 48.9346 128.631 49.2781 129.261 49.9666C129.859 50.6356 130.16 51.4996 130.16 52.5556ZM128.534 52.6066C128.534 51.9541 128.393 51.3946 128.113 50.9281C127.784 50.3641 127.316 50.0821 126.707 50.0821C126.077 50.0821 125.598 50.3641 125.269 50.9281C124.987 51.3946 124.848 51.9631 124.848 52.6351C124.848 53.2876 124.989 53.8471 125.269 54.3136C125.608 54.8776 126.081 55.1596 126.692 55.1596C127.29 55.1596 127.76 54.8731 128.098 54.2986C128.389 53.8231 128.534 53.2591 128.534 52.6066Z" fill="white"/>
<path d="M141.915 49.0784L139.708 56.1494H138.272L137.357 53.0789C137.125 52.3124 136.937 51.5504 136.79 50.7944H136.762C136.626 51.5714 136.437 52.3319 136.195 53.0789L135.224 56.1494H133.771L131.695 49.0784H133.307L134.104 52.4399C134.297 53.2349 134.456 53.9924 134.583 54.7094H134.612C134.728 54.1184 134.921 53.3654 135.194 52.4549L136.195 49.0799H137.473L138.432 52.3829C138.664 53.1884 138.852 53.9639 138.997 54.7109H139.041C139.147 53.9834 139.307 53.2079 139.519 52.3829L140.375 49.0799H141.915V49.0784Z" fill="white"/>
<path d="M150.044 56.1494H148.476V52.0994C148.476 50.8514 148.003 50.2274 147.055 50.2274C146.589 50.2274 146.214 50.3984 145.922 50.7419C145.633 51.0854 145.487 51.4904 145.487 51.9539V56.1479H143.919V51.0989C143.919 50.4779 143.899 49.8044 143.862 49.0754H145.24L145.313 50.1809H145.357C145.539 49.8374 145.811 49.5539 146.169 49.3274C146.594 49.0634 147.07 48.9299 147.59 48.9299C148.249 48.9299 148.797 49.1429 149.232 49.5704C149.774 50.0939 150.044 50.8754 150.044 51.9134V56.1494Z" fill="white"/>
<path d="M154.369 56.1495H152.802V45.834H154.369V56.1495Z" fill="white"/>
<path d="M163.601 52.5556C163.601 53.6431 163.291 54.5341 162.672 55.2331C162.022 55.9516 161.16 56.3101 160.088 56.3101C159.051 56.3101 158.226 55.9666 157.613 55.2766C156.999 54.5881 156.692 53.7196 156.692 52.6726C156.692 51.5776 157.008 50.6791 157.643 49.9816C158.277 49.2841 159.13 48.9346 160.203 48.9346C161.24 48.9346 162.07 49.2781 162.702 49.9666C163.3 50.6356 163.601 51.4996 163.601 52.5556ZM161.973 52.6066C161.973 51.9541 161.832 51.3946 161.552 50.9281C161.225 50.3641 160.755 50.0821 160.147 50.0821C159.516 50.0821 159.037 50.3641 158.709 50.9281C158.428 51.3946 158.289 51.9631 158.289 52.6351C158.289 53.2876 158.43 53.8471 158.709 54.3136C159.049 54.8776 159.522 55.1596 160.132 55.1596C160.731 55.1596 161.199 54.8731 161.537 54.2986C161.829 53.8231 161.973 53.2591 161.973 52.6066Z" fill="white"/>
<path d="M171.19 56.1496H169.782L169.665 55.3351H169.622C169.14 55.9846 168.453 56.3101 167.562 56.3101C166.896 56.3101 166.357 56.0956 165.952 55.6696C165.583 55.2826 165.399 54.8011 165.399 54.2296C165.399 53.3656 165.759 52.7071 166.481 52.2511C167.202 51.7951 168.217 51.5716 169.523 51.5821V51.4501C169.523 50.5186 169.035 50.0536 168.058 50.0536C167.363 50.0536 166.749 50.2291 166.219 50.5771L165.901 49.5451C166.556 49.1386 167.366 48.9346 168.32 48.9346C170.164 48.9346 171.088 49.9096 171.088 51.8596V54.4636C171.088 55.1701 171.123 55.7326 171.19 56.1496ZM169.562 53.7196V52.6291C167.832 52.5991 166.968 53.0746 166.968 54.0541C166.968 54.4231 167.066 54.6991 167.268 54.8836C167.47 55.0681 167.728 55.1596 168.034 55.1596C168.379 55.1596 168.7 55.0501 168.994 54.8326C169.288 54.6136 169.469 54.3361 169.537 53.9956C169.553 53.9191 169.562 53.8261 169.562 53.7196Z" fill="white"/>
<path d="M180.101 56.1495H178.709L178.636 55.014H178.592C178.148 55.878 177.391 56.31 176.327 56.31C175.477 56.31 174.769 55.9755 174.208 55.3065C173.647 54.6375 173.367 53.769 173.367 52.7025C173.367 51.558 173.671 50.631 174.281 49.923C174.872 49.263 175.597 48.933 176.459 48.933C177.406 48.933 178.069 49.2525 178.446 49.893H178.476V45.834H180.045V54.2445C180.045 54.933 180.063 55.5675 180.101 56.1495ZM178.476 53.1675V51.9885C178.476 51.7845 178.461 51.6195 178.432 51.4935C178.344 51.1155 178.154 50.7975 177.865 50.541C177.573 50.2845 177.222 50.1555 176.816 50.1555C176.231 50.1555 175.773 50.388 175.437 50.8545C175.103 51.321 174.934 51.9165 174.934 52.644C174.934 53.343 175.094 53.91 175.416 54.3465C175.755 54.8115 176.213 55.044 176.786 55.044C177.301 55.044 177.712 54.8505 178.025 54.462C178.327 54.1035 178.476 53.6715 178.476 53.1675Z" fill="white"/>
<path d="M193.512 52.5556C193.512 53.6431 193.202 54.5341 192.583 55.2331C191.933 55.9516 191.074 56.3101 189.999 56.3101C188.965 56.3101 188.14 55.9666 187.524 55.2766C186.91 54.5881 186.603 53.7196 186.603 52.6726C186.603 51.5776 186.919 50.6791 187.554 49.9816C188.188 49.2841 189.041 48.9346 190.117 48.9346C191.151 48.9346 191.984 49.2781 192.613 49.9666C193.211 50.6356 193.512 51.4996 193.512 52.5556ZM191.887 52.6066C191.887 51.9541 191.746 51.3946 191.466 50.9281C191.136 50.3641 190.669 50.0821 190.058 50.0821C189.43 50.0821 188.951 50.3641 188.62 50.9281C188.339 51.3946 188.2 51.9631 188.2 52.6351C188.2 53.2876 188.341 53.8471 188.62 54.3136C188.96 54.8776 189.433 55.1596 190.043 55.1596C190.642 55.1596 191.113 54.8731 191.451 54.2986C191.74 53.8231 191.887 53.2591 191.887 52.6066Z" fill="white"/>
<path d="M201.943 56.1494H200.377V52.0994C200.377 50.8514 199.904 50.2274 198.954 50.2274C198.489 50.2274 198.113 50.3984 197.823 50.7419C197.532 51.0854 197.387 51.4904 197.387 51.9539V56.1479H195.818V51.0989C195.818 50.4779 195.8 49.8044 195.762 49.0754H197.139L197.212 50.1809H197.256C197.44 49.8374 197.712 49.5539 198.068 49.3274C198.494 49.0634 198.969 48.9299 199.491 48.9299C200.148 48.9299 200.696 49.1429 201.131 49.5704C201.674 50.0939 201.943 50.8754 201.943 51.9134V56.1494Z" fill="white"/>
<path d="M212.497 50.2559H210.77V53.6909C210.77 54.5639 211.077 55.0004 211.684 55.0004C211.966 55.0004 212.199 54.9764 212.383 54.9269L212.424 56.1194C212.114 56.2364 211.707 56.2949 211.206 56.2949C210.586 56.2949 210.104 56.1059 209.756 55.7279C209.405 55.3499 209.232 54.7139 209.232 53.8214V50.2559H208.201V49.0784H209.232V47.7824L210.769 47.3174V49.0769H212.495V50.2559H212.497Z" fill="white"/>
<path d="M220.798 56.1495H219.229V52.1295C219.229 50.862 218.756 50.2275 217.809 50.2275C217.081 50.2275 216.585 50.595 216.312 51.33C216.266 51.4845 216.239 51.6735 216.239 51.8955V56.148H214.672V45.834H216.239V50.0955H216.269C216.763 49.32 217.471 48.933 218.388 48.933C219.037 48.933 219.574 49.146 220.001 49.5735C220.532 50.106 220.798 50.898 220.798 51.945V56.1495Z" fill="white"/>
<path d="M229.362 52.2794C229.362 52.5614 229.341 52.7984 229.303 52.9919H224.6C224.621 53.6909 224.846 54.2234 225.281 54.5924C225.679 54.9224 226.192 55.0874 226.821 55.0874C227.517 55.0874 228.151 54.9764 228.723 54.7529L228.968 55.8449C228.299 56.1359 227.512 56.2814 226.601 56.2814C225.509 56.2814 224.648 55.9589 224.026 55.3139C223.4 54.6689 223.091 53.8034 223.091 52.7174C223.091 51.6509 223.379 50.7629 223.961 50.0549C224.569 49.2989 225.39 48.9209 226.427 48.9209C227.442 48.9209 228.212 49.2989 228.733 50.0549C229.154 50.6549 229.362 51.3974 229.362 52.2794ZM227.865 51.8729C227.877 51.4064 227.774 51.0044 227.562 50.6654C227.289 50.2289 226.875 50.0099 226.314 50.0099C225.802 50.0099 225.384 50.2229 225.066 50.6504C224.805 50.9909 224.651 51.3974 224.6 51.8729H227.865Z" fill="white"/>
</g>
</g>
<defs>
<filter id="filter0_d_1529_6298" x="0" y="0" width="298" height="156" filterUnits="userSpaceOnUse" color-interpolation-filters="sRGB">
<feFlood flood-opacity="0" result="BackgroundImageFix"/>
<feColorMatrix in="SourceAlpha" type="matrix" values="0 0 0 0 0 0 0 0 0 0 0 0 0 0 0 0 0 0 127 0" result="hardAlpha"/>
<feOffset dy="12"/>
<feGaussianBlur stdDeviation="24"/>
<feComposite in2="hardAlpha" operator="out"/>
<feColorMatrix type="matrix" values="0 0 0 0 0.0311111 0 0 0 0 0.108552 0 0 0 0 0.133333 0 0 0 0.16 0"/>
<feBlend mode="normal" in2="BackgroundImageFix" result="effect1_dropShadow_1529_6298"/>
<feBlend mode="normal" in="SourceGraphic" in2="effect1_dropShadow_1529_6298" result="shape"/>
</filter>
<clipPath id="clip0_1529_6298">
<rect x="48" y="36" width="202" height="60" rx="12" fill="white"/>
</clipPath>
</defs>
</svg>
