<svg width="16" height="16" viewBox="0 0 16 16" xmlns="http://www.w3.org/2000/svg">
<g clip-path="url(#clip0_2014_17649)">
<path d="M10.9993 0C10.1463 0.0589997 9.14932 0.604996 8.56833 1.31599C8.03833 1.96099 7.60233 2.91898 7.77233 3.84998C8.70433 3.87898 9.66732 3.31998 10.2253 2.59698C10.7473 1.92399 11.1423 0.971994 10.9993 0Z" fill="black"/>
<path d="M14.3703 5.36811C13.5513 4.34111 12.4003 3.74512 11.3133 3.74512C9.87832 3.74512 9.27132 4.43211 8.27433 4.43211C7.24633 4.43211 6.46534 3.74712 5.22435 3.74712C4.00535 3.74712 2.70736 4.49211 1.88437 5.76611C0.727372 7.56009 0.925371 10.9331 2.80036 13.8061C3.47136 14.8341 4.36735 15.99 5.53934 16C6.58234 16.01 6.87634 15.331 8.28933 15.324C9.70232 15.3161 9.97032 16.009 11.0113 15.998C12.1843 15.989 13.1293 14.7081 13.8003 13.6801C14.2813 12.9431 14.4603 12.5721 14.8333 11.7401C12.1203 10.7071 11.6853 6.8491 14.3703 5.36811Z" fill="black"/>
</g>
<defs>
<clipPath id="clip0_2014_17649">
<rect width="16" height="16" fill="white"/>
</clipPath>
</defs>
</svg>
