<svg width="20" height="20" viewBox="0 0 20 20" xmlns="http://www.w3.org/2000/svg">
<path d="M12.6167 18.8889C10.5715 18.891 8.56271 18.3481 6.79694 17.3162C5.03118 16.2843 3.57222 14.8006 2.57016 13.0178C1.56811 11.2349 1.05915 9.21722 1.09564 7.17237C1.13214 5.12752 1.71277 3.12931 2.7778 1.38333C2.83695 1.29177 2.91991 1.21805 3.01779 1.17009C3.11567 1.12213 3.22477 1.10174 3.33336 1.11111H6.19447C6.34185 1.111 6.48531 1.15855 6.60346 1.24666C6.7216 1.33477 6.80809 1.45871 6.85003 1.6L8.22225 6.21666C8.24785 6.30275 8.25622 6.39304 8.24689 6.48237C8.23757 6.57169 8.21073 6.65831 8.1679 6.73725C8.12507 6.81619 8.0671 6.88592 7.99731 6.94245C7.92751 6.99897 7.84726 7.04118 7.76114 7.06666L5.80558 7.62222C5.49375 7.70948 5.22478 7.90814 5.04967 8.18052C4.87457 8.45291 4.80551 8.78008 4.85558 9.09999C5.05873 10.4049 5.58805 11.6375 6.39447 12.6833C7.59935 14.1629 9.31299 15.1395 11.2 15.4222C11.5084 15.4771 11.8263 15.4221 12.0984 15.2668C12.3704 15.1115 12.5794 14.8657 12.6889 14.5722L13.4334 12.6333C13.494 12.4831 13.606 12.3592 13.7495 12.2839C13.893 12.2086 14.0586 12.1867 14.2167 12.2222L18.3611 13.2C18.5153 13.2359 18.6522 13.3243 18.7484 13.4499C18.8447 13.5755 18.8943 13.7307 18.8889 13.8889V16.6667C18.8923 16.7698 18.869 16.872 18.8213 16.9635C18.7736 17.0549 18.7031 17.1326 18.6167 17.1889C16.8091 18.2881 14.7323 18.865 12.6167 18.8555V18.8889Z" fill="#242424"/>
<path fill-rule="evenodd" clip-rule="evenodd" d="M14.4445 1.74442C14.4519 1.61247 14.4178 1.48152 14.347 1.3699C14.2763 1.25829 14.1724 1.17161 14.0499 1.122C13.9274 1.07239 13.7924 1.06234 13.664 1.09326C13.5355 1.12418 13.4199 1.19452 13.3334 1.29442L10.6334 4.0222L13.3334 6.74997C13.4199 6.84988 13.5355 6.92021 13.664 6.95113C13.7924 6.98205 13.9274 6.972 14.0499 6.92239C14.1724 6.87278 14.2763 6.7861 14.347 6.67449C14.4178 6.56287 14.4519 6.43192 14.4445 6.29997V5.29442H16.9834C17.2355 5.2944 17.4851 5.34442 17.7178 5.44157C17.9504 5.53872 18.1615 5.68107 18.3387 5.86038C18.516 6.03968 18.6558 6.25238 18.7503 6.48615C18.8447 6.71991 18.8919 6.97009 18.8889 7.2222V5.29442C18.8831 4.62492 18.613 3.98484 18.1375 3.5135C17.662 3.04216 17.0196 2.77773 16.35 2.77775H14.4445V1.74442Z" fill="#242424"/>
</svg>
