<svg width="16" height="16" viewBox="0 0 16 16" xmlns="http://www.w3.org/2000/svg">
<path fill-rule="evenodd" clip-rule="evenodd" d="M11.0667 12.9333C11.3334 13.2 11.6001 13.3333 12.0001 13.3333C12.4001 13.3333 12.6667 13.2 12.9334 12.9333C13.4667 12.4 13.4667 11.6 12.9334 11.0666L10.5739 8.70707C10.1833 8.31654 10.1833 7.68338 10.5739 7.29285L12.9334 4.93329C13.4667 4.39996 13.4667 3.59996 12.9334 3.06663C12.4001 2.53329 11.6001 2.53329 11.0667 3.06663L8.70719 5.42619C8.31666 5.81671 7.6835 5.81671 7.29297 5.42619L4.93341 3.06663C4.40008 2.53329 3.60008 2.53329 3.06675 3.06663C2.53341 3.59996 2.53341 4.39996 3.06675 4.93329L5.42631 7.29285C5.81683 7.68338 5.81683 8.31654 5.42631 8.70707L3.06675 11.0666C2.53341 11.6 2.53341 12.4 3.06675 12.9333C3.33341 13.2 3.60008 13.3333 4.00008 13.3333C4.40008 13.3333 4.66675 13.2 4.93341 12.9333L7.29297 10.5737C7.6835 10.1832 8.31666 10.1832 8.70719 10.5737L11.0667 12.9333Z" fill="#242424"/>
</svg>
