<svg width="18" height="17" viewBox="0 0 18 17" xmlns="http://www.w3.org/2000/svg">
<path d="M2 17C1.45 17 0.979333 16.8043 0.588 16.413C0.196 16.021 0 15.55 0 15V6C0 5.45 0.196 4.97933 0.588 4.588C0.979333 4.196 1.45 4 2 4H5V2C5 1.45 5.196 0.979 5.588 0.587C5.97933 0.195667 6.45 0 7 0H11C11.55 0 12.021 0.195667 12.413 0.587C12.8043 0.979 13 1.45 13 2V4H16C16.55 4 17.021 4.196 17.413 4.588C17.8043 4.97933 18 5.45 18 6V15C18 15.55 17.8043 16.021 17.413 16.413C17.021 16.8043 16.55 17 16 17H2ZM7 4H11V2H7V4Z" fill="#242424"/>
</svg>
