<svg width="12" height="12" viewBox="0 0 12 12" xmlns="http://www.w3.org/2000/svg">
<path fill-rule="evenodd" clip-rule="evenodd" d="M11.7046 1.72151C12.0984 1.32769 12.0984 0.689183 11.7046 0.295364C11.3108 -0.0984545 10.6723 -0.098455 10.2785 0.295364L7.41409 3.15974C6.63304 3.94079 5.36671 3.94079 4.58566 3.15974L1.72151 0.295585C1.32769 -0.0982337 0.689183 -0.0982335 0.295364 0.295585C-0.0984549 0.689404 -0.0984545 1.32791 0.295364 1.72173L3.15952 4.58589C3.94057 5.36694 3.94057 6.63326 3.15952 7.41431L0.295457 10.2784C-0.0983614 10.6722 -0.0983613 11.3107 0.295458 11.7045C0.689277 12.0983 1.32778 12.0983 1.7216 11.7045L4.58567 8.84046C5.36671 8.05941 6.63304 8.05941 7.41409 8.84046L10.2784 11.7047C10.6722 12.0986 11.3107 12.0986 11.7045 11.7047C12.0983 11.3109 12.0983 10.6724 11.7045 10.2786L8.84024 7.41431C8.05919 6.63327 8.05919 5.36694 8.84024 4.58589L11.7046 1.72151Z" fill="#242424"/>
</svg>
