<svg width="16" height="16" viewBox="0 0 16 16" xmlns="http://www.w3.org/2000/svg">
<g clip-path="url(#clip0_1040_1818)">
<path d="M15.6598 7.21614C15.3088 6.98196 14.8344 7.0768 14.6004 7.42786L14.5777 7.46193C14.3013 3.68763 11.1424 0.701172 7.29879 0.701172C3.27422 0.701223 0 3.97544 0 8.00001C0 12.0246 3.27422 15.2988 7.29879 15.2988C7.86137 15.2988 8.3174 14.8428 8.3174 14.2802C8.3174 13.7176 7.86137 13.2616 7.29879 13.2616C4.39754 13.2615 2.03722 10.9012 2.03722 8.00001C2.03722 5.09881 4.39754 2.73844 7.29879 2.73844C9.98782 2.73844 12.2118 4.76624 12.5228 7.37291C12.2776 7.06778 11.8359 6.9949 11.5042 7.21614C11.1531 7.45022 11.0583 7.92459 11.2924 8.2756L12.8051 10.5441C12.9836 10.8118 13.2741 10.9716 13.5821 10.9716C13.8901 10.9716 14.1805 10.8117 14.3589 10.5441L15.8716 8.2756C16.1056 7.92453 16.0108 7.45022 15.6598 7.21614Z" fill="#242424"/>
</g>
<defs>
<clipPath id="clip0_1040_1818">
<rect width="16" height="16" fill="white"/>
</clipPath>
</defs>
</svg>
