<svg width="24" height="24" viewBox="0 0 24 24" xmlns="http://www.w3.org/2000/svg">
    <g clip-path="url(#clip0_1525_6190)">
        <path d="M16.2216 21.4589H14.4309L13.4091 19.5905V16.6208H10.5909V19.5905L9.5691 21.4589H7.77838C7.39007 21.4589 7.07526 21.7737 7.07526 22.162C7.07526 22.5503 7.39007 22.8651 7.77838 22.8651H16.2216C16.6099 22.8651 16.9247 22.5503 16.9247 22.162C16.9247 21.7737 16.6099 21.4589 16.2216 21.4589Z"
              fill="#6B6B6B"/>
        <path d="M23.2702 16.1745L17.1188 12.4487C17.0566 12.411 16.9913 12.379 16.9247 12.3504V4.05689C16.9247 3.45291 16.7454 2.87353 16.4062 2.3813C15.5492 1.1378 13.8376 0.765611 12.5096 1.53431L11.6894 2.00897C10.8788 1.39383 9.71846 1.45556 8.97877 2.1953L8.03536 3.1387C7.82349 3.35058 7.82349 3.69408 8.03536 3.90595L10.6819 6.55247C10.8938 6.76435 11.2373 6.76435 11.4491 6.55247L12.3925 5.60906C13.0855 4.91611 13.1833 3.85411 12.6873 3.0562L13.214 2.75142C13.9113 2.34797 14.8049 2.53584 15.2483 3.1793C15.425 3.4358 15.5184 3.73927 15.5184 4.05694V12.2152H9.09657C8.53486 12.2152 8.01586 11.929 7.73518 11.4646L2.93466 3.52224C2.50032 2.80364 1.53746 2.55797 0.785395 2.97385L0.784129 2.97455C0.0339885 3.38934 -0.222652 4.30552 0.210567 5.02228L5.91741 14.4641C6.1981 14.9285 6.7171 15.2146 7.2788 15.2146H15.362C15.6602 15.2146 15.9523 15.2956 16.2041 15.4482L21.5859 18.7079C22.3184 19.1515 23.2889 18.9449 23.7543 18.2462C24.2205 17.5466 24.0036 16.6188 23.2702 16.1745ZM15.5221 12.2152C15.5225 12.2114 15.523 12.2107 15.5235 12.2152H15.5221Z"
              fill="#6B6B6B"/>
    </g>
    <defs>
        <clipPath id="clip0_1525_6190">
            <rect width="24" height="24" fill="white"/>
        </clipPath>
    </defs>
</svg>
