<svg width="24" height="24" viewBox="0 0 24 24" xmlns="http://www.w3.org/2000/svg">
    <g clip-path="url(#clip0_1525_6268)">
        <path d="M0.12329 22.8651C0.21329 23.3287 0.638915 23.7769 1.09876 23.879C1.48805 23.9586 1.88455 23.9975 2.28188 23.9953C2.67937 23.9975 3.07602 23.9586 3.46548 23.879C3.92767 23.7769 4.35095 23.3287 4.44048 22.8651C4.4972 22.5839 4.56704 21.7954 4.56095 21.2747C4.56704 20.7539 4.4972 19.9664 4.44048 19.6837C4.35095 19.2206 3.92767 18.7725 3.46548 18.6703C3.07608 18.5903 2.6794 18.5512 2.28188 18.5536C1.88453 18.5514 1.48803 18.5905 1.09876 18.6703C0.636572 18.7725 0.21329 19.2187 0.12329 19.6837C0.0670404 19.965 -0.00280335 20.7539 0.00282165 21.2747C-0.00280335 21.7969 0.0670404 22.5829 0.12329 22.8651Z"
              fill="#6B6B6B"/>
        <path d="M6.55878 22.8698C6.64878 23.3334 7.0744 23.7811 7.53424 23.8837C8.31554 24.0387 9.11967 24.0387 9.90096 23.8837C10.3632 23.7811 10.7864 23.3334 10.8764 22.8698C10.9327 22.5886 11.0025 20.5669 10.9969 20.0461C11.0025 19.5253 10.9327 17.5045 10.8764 17.2223C10.7864 16.7587 10.3632 16.3111 9.90096 16.2084C9.11967 16.0534 8.31554 16.0534 7.53424 16.2084C7.07206 16.3111 6.64878 16.7592 6.55878 17.2223C6.50253 17.5036 6.43268 19.5253 6.43831 20.0461C6.43268 20.5669 6.50253 22.5876 6.55878 22.8698Z"
              fill="#6B6B6B"/>
        <path d="M13.0589 22.8698C13.1489 23.3334 13.5745 23.7811 14.0344 23.8837C14.8157 24.0387 15.6198 24.0387 16.4011 23.8837C16.8633 23.7811 17.2866 23.3334 17.3766 22.8698C17.4328 22.5886 17.5027 18.5925 17.497 18.0717C17.5027 17.5504 17.4328 13.5558 17.3766 13.2731C17.2866 12.81 16.8633 12.3618 16.4011 12.2597C15.6199 12.104 14.8156 12.104 14.0344 12.2597C13.5722 12.3618 13.1489 12.81 13.0589 13.2731C13.0027 13.5543 12.9328 17.5504 12.9389 18.0717C12.9328 18.5925 13.0027 22.5876 13.0589 22.8698Z"
              fill="#6B6B6B"/>
        <path d="M19.5596 22.8698C19.6491 23.3334 20.0724 23.7811 20.5346 23.8837C21.3159 24.0387 22.12 24.0387 22.9013 23.8837C23.3635 23.7811 23.7867 23.3334 23.8767 22.8698C23.933 22.5886 24.0028 16.6181 23.9972 16.0969C24.0028 15.5761 23.933 9.60656 23.8767 9.32437C23.7867 8.86078 23.3635 8.41265 22.9013 8.31046C22.12 8.15546 21.3159 8.15546 20.5346 8.31046C20.0724 8.41265 19.6491 8.86078 19.5596 9.32437C19.5028 9.60562 19.433 15.5761 19.4391 16.0969C19.433 16.6181 19.5028 22.5877 19.5596 22.8698Z"
              fill="#6B6B6B"/>
        <path d="M21.0938 0.0543197L17.0527 1.52854C16.3233 1.79479 16.2689 2.80588 16.9659 3.14901L17.7089 3.51557C15.8203 5.28744 13.6631 6.91073 11.1516 8.45198C8.19845 10.2506 5.37048 11.5631 2.50548 12.464C2.36454 12.5083 2.23372 12.58 2.12047 12.6749C2.00723 12.7697 1.91378 12.886 1.84546 13.017C1.70749 13.2815 1.68026 13.5901 1.76978 13.8747C1.85929 14.1593 2.0582 14.3968 2.32276 14.5347C2.58732 14.6727 2.89585 14.6999 3.18048 14.6104C6.22126 13.6542 9.21189 12.2667 12.3253 10.3715C15.0839 8.67885 17.4413 6.88682 19.5028 4.91526L20.1202 5.69291C20.603 6.30229 21.5799 6.03369 21.6853 5.26401L22.2689 1.00307C22.2895 0.852557 22.2709 0.69928 22.2148 0.558082C22.1588 0.416883 22.0672 0.29255 21.949 0.197122C21.8308 0.101694 21.69 0.0384069 21.5402 0.0133886C21.3903 -0.0116297 21.2366 0.00246916 21.0938 0.0543197Z"
              fill="#6B6B6B"/>
    </g>
    <defs>
        <clipPath id="clip0_1525_6268">
            <rect width="24" height="24" fill="white"/>
        </clipPath>
    </defs>
</svg>
