<svg width="20" height="20" viewBox="0 0 20 20" xmlns="http://www.w3.org/2000/svg">
<path fill-rule="evenodd" clip-rule="evenodd" d="M2.30469 3.14286V17.4286C2.30469 18.8491 3.45554 20 4.87612 20H14.5904C15.4235 20 16.2235 19.6686 16.8133 19.08C17.4018 18.4903 17.7333 17.6903 17.7333 16.8571C17.7333 16.8571 17.7333 9.064 17.7333 7.04457C17.7333 6.51429 17.523 6.00571 17.147 5.63086L12.1024 0.586286C11.7275 0.210286 11.219 0 10.6887 0C9.3184 0 5.44754 0 5.44754 0C4.6144 0 3.8144 0.331429 3.22469 0.92C2.63612 1.50971 2.30469 2.30971 2.30469 3.14286V3.14286ZM7.16183 14.8571H13.4475C13.9207 14.8571 14.3047 14.4731 14.3047 14C14.3047 13.5269 13.9207 13.1429 13.4475 13.1429H7.16183C6.68869 13.1429 6.30469 13.5269 6.30469 14C6.30469 14.4731 6.68869 14.8571 7.16183 14.8571ZM7.16183 10.8571H11.1618C11.635 10.8571 12.019 10.4731 12.019 10C12.019 9.52686 11.635 9.14286 11.1618 9.14286H7.16183C6.68869 9.14286 6.30469 9.52686 6.30469 10C6.30469 10.4731 6.68869 10.8571 7.16183 10.8571ZM10.5904 1.53143V6C10.5904 6.30286 10.7104 6.59429 10.9253 6.808C11.139 7.02286 11.4304 7.14286 11.7333 7.14286H16.2018C16.1458 7.01943 16.0681 6.90629 15.9698 6.808C14.9584 5.79657 11.9367 2.77486 10.9253 1.76343C10.827 1.66514 10.7138 1.58743 10.5904 1.53143V1.53143Z" fill="#6B6B6B"/>
</svg>
