<svg width="22" height="22" viewBox="0 0 22 22" fill="none" xmlns="http://www.w3.org/2000/svg">
<path d="M9.75299 21C9.39974 21 9.10383 20.88 8.86528 20.64C8.62589 20.4008 8.5062 20.1042 8.5062 19.75V12.25L1.27481 3C0.963114 2.58333 0.916567 2.14583 1.13517 1.6875C1.35294 1.22917 1.73197 1 2.27225 1H19.7273C20.2676 1 20.647 1.22917 20.8656 1.6875C21.0834 2.14583 21.0365 2.58333 20.7248 3L13.4934 12.25V19.75C13.4934 20.1042 13.3741 20.4008 13.1355 20.64C12.8962 20.88 12.5998 21 12.2466 21H9.75299Z" stroke="#242424" stroke-width="2"/>
</svg>
