<svg width="16" height="16" viewBox="0 0 16 16" xmlns="http://www.w3.org/2000/svg">
<g clip-path="url(#clip0_1619_6474)">
<path d="M9 7.2V9.2H13.72C13.24 12 11 14 8.2 14C4.92 14 2.2 11.28 2.2 8C2.2 4.72 4.92 2 8.2 2C9.88 2 11.32 2.72 12.36 3.84L13.8 2.4C12.36 0.96 10.44 0 8.2 0C3.8 0 0.200001 3.6 0.200001 8C0.200001 12.4 3.8 16 8.2 16C12.6 16 15.8 12.4 15.8 8V7.2H9Z" fill="#DB4537"/>
</g>
<defs>
<clipPath id="clip0_1619_6474">
<rect width="16" height="16" fill="white"/>
</clipPath>
</defs>
</svg>
