<svg width="24" height="24" viewBox="0 0 24 24" xmlns="http://www.w3.org/2000/svg">
    <path d="M8.51784 7H4.8172L3 12.787C5.94348 15.9887 9.82866 18.8251 11.3666 19.8939C11.5938 20.0538 11.9014 20.0309 12.1001 19.8391C12.209 19.734 12.2658 19.597 12.2658 19.4509C12.2658 19.3001 12.209 19.1631 12.1001 19.0581L11.1064 18.0989L9.97062 17.0027C9.78608 16.8246 9.78608 16.5368 9.97062 16.3587C10.1552 16.1806 10.4533 16.1806 10.6379 16.3587L13.2832 18.9119C13.5719 19.1859 14.0404 19.1859 14.3243 18.9119C14.6083 18.6379 14.613 18.1902 14.3338 17.9116L11.996 15.5777C11.8162 15.395 11.821 15.1072 12.0103 14.9291C12.1948 14.7555 12.4977 14.7601 12.6775 14.9428L13.0513 15.3128L15.0152 17.2768L15.5405 17.7975C15.8292 18.0852 16.2977 18.1035 16.61 17.834C16.7709 17.697 16.8655 17.5051 16.8703 17.295C16.8703 17.0849 16.7898 16.8885 16.6337 16.7424L14.8827 15.1026L13.728 14.0247C13.5388 13.8512 13.534 13.5634 13.7186 13.3807C13.8984 13.198 14.1966 13.1935 14.3858 13.3716L17.7741 16.5368C18.0628 16.8018 18.5029 16.8018 18.7821 16.5323C18.9288 16.3998 19.0045 16.2171 18.9998 16.0253C18.9951 15.8335 18.9146 15.6553 18.7632 15.5229L12.3462 9.85465C11.2815 10.0511 10.3492 11.0148 10.3397 11.0239C10.3161 11.0513 10.283 11.0787 10.2498 11.097C8.48945 12.1978 7.45308 11.3071 7.41048 11.2706C6.47823 10.453 6.92307 9.16497 7.33004 8.53011C7.71335 7.92263 8.11558 7.42023 8.51784 7Z"
          fill="#6B6B6B"/>
    <path d="M13.477 5.17111C12.9629 4.95734 12.4051 4.94205 11.9104 5.13548C10.9548 5.49688 9.56761 6.37745 8.33562 8.48474C8.32591 8.49999 7.64684 9.68089 8.24829 10.251C8.26285 10.2663 8.82066 10.7243 9.93139 9.98631C10.1788 9.71652 11.3623 8.52037 12.7689 8.38293C12.9047 8.36768 13.0405 8.41857 13.1424 8.51528L19.8844 14.9949C19.8892 14.9949 19.8892 14.9949 19.8892 15C20.4373 14.8575 20.8254 14.3688 21 14.0991L18.6233 7.31913L13.477 5.17111Z"
          fill="#6B6B6B"/>
    <path d="M23.4468 6.00166C22.5012 6.06068 20.5598 6.24227 19.3376 6.70536C19.066 6.80977 18.9302 7.10488 19.0359 7.35912L22.0133 14.6595C22.0989 14.8592 22.3151 15 22.5565 15H23.482C23.7686 15 24 14.7911 24 14.5324V6.46472C24 6.19233 23.7485 5.97894 23.4468 6.00166Z"
          fill="#6B6B6B"/>
    <path d="M0.469699 14H1.26314C1.49571 14 1.69635 13.839 1.76474 13.5924L3.97638 5.52016C4.05389 5.24337 3.93533 4.94644 3.6982 4.82566C2.43962 4.20667 1.25401 4.03555 0.487929 4.00031C0.218874 3.99027 0 4.22175 0 4.51868V13.4817C0 13.7685 0.209772 14 0.469699 14Z"
          fill="#6B6B6B"/>
</svg>
