<svg width="12" height="12" viewBox="0 0 12 12" xmlns="http://www.w3.org/2000/svg">
<path d="M10.6703 5.69319C10.5111 5.53409 10.318 5.45459 10.0907 5.45459H9.81809V3.81814C9.81809 2.7727 9.4432 1.87505 8.69316 1.12505C7.94319 0.375017 7.04563 0 6.00004 0C4.95449 0 4.05675 0.375017 3.30684 1.12502C2.5568 1.87505 2.18191 2.77267 2.18191 3.81814V5.45459H1.90922C1.68202 5.45459 1.4888 5.53409 1.32969 5.69319C1.17059 5.85218 1.09106 6.0454 1.09106 6.27281V11.1818C1.09106 11.409 1.17062 11.6023 1.32969 11.7615C1.4888 11.9204 1.68202 12 1.90922 12H10.0909C10.3182 12 10.5113 11.9205 10.6705 11.7615C10.8294 11.6023 10.9091 11.409 10.9091 11.1818V6.27272C10.9092 6.04549 10.8294 5.8523 10.6703 5.69319ZM8.18182 5.45459H3.81827V3.81814C3.81827 3.2159 4.03138 2.70166 4.4575 2.27559C4.88368 1.84947 5.39783 1.63646 6.00013 1.63646C6.60249 1.63646 7.11653 1.84944 7.54274 2.27559C7.96874 2.70163 8.18182 3.2159 8.18182 3.81814V5.45459Z" fill="#6B6B6B"/>
</svg>
