<svg width="16" height="17" viewBox="0 0 16 17" xmlns="http://www.w3.org/2000/svg">
<path d="M8 17C9.73643 17 11.3023 16.5668 12.6977 15.7004C14.093 14.8353 15.1938 13.6944 16 12.2778C14.9147 11.3648 13.6899 10.664 12.3256 10.1754C10.9612 9.68811 9.51938 9.44444 8 9.44444C6.48062 9.44444 5.03876 9.68811 3.67442 10.1754C2.31008 10.664 1.08527 11.3648 0 12.2778C0.806202 13.6944 1.90698 14.8353 3.30233 15.7004C4.69768 16.5668 6.26357 17 8 17ZM8 7.55556C9.02326 7.55556 9.89954 7.18533 10.6288 6.44489C11.3569 5.7057 11.7209 4.81667 11.7209 3.77778C11.7209 2.73889 11.3569 1.84985 10.6288 1.11067C9.89954 0.370222 9.02326 0 8 0C6.97675 0 6.10109 0.370222 5.37302 1.11067C4.64372 1.84985 4.27907 2.73889 4.27907 3.77778C4.27907 4.81667 4.64372 5.7057 5.37302 6.44489C6.10109 7.18533 6.97675 7.55556 8 7.55556Z" fill="#242424"/>
</svg>
