<svg width="18" height="18" viewBox="0 0 18 18" xmlns="http://www.w3.org/2000/svg">
<path d="M17.0916 15.9075L14.7333 13.5575C16.0118 11.9781 16.6355 9.96826 16.4757 7.94251C16.316 5.91676 15.385 4.02954 13.8748 2.67C12.3646 1.31045 10.3902 0.582249 8.35887 0.635544C6.32754 0.688839 4.39409 1.51957 2.95723 2.95644C1.52036 4.3933 0.689633 6.32674 0.636338 8.35808C0.583043 10.3894 1.31125 12.3638 2.67079 13.874C4.03034 15.3842 5.91756 16.3152 7.9433 16.4749C9.96905 16.6347 11.9789 16.011 13.5583 14.7325L15.9083 17.0908C15.9858 17.169 16.0779 17.231 16.1795 17.2733C16.281 17.3156 16.39 17.3373 16.5 17.3373C16.61 17.3373 16.7189 17.3156 16.8205 17.2733C16.922 17.231 17.0142 17.169 17.0916 17.0908C17.1697 17.0134 17.2317 16.9212 17.2741 16.8197C17.3164 16.7181 17.3381 16.6092 17.3381 16.4992C17.3381 16.3892 17.3164 16.2803 17.2741 16.1787C17.2317 16.0772 17.1697 15.985 17.0916 15.9075ZM2.33331 8.58251C2.33331 7.34638 2.69986 6.13801 3.38662 5.1102C4.07338 4.08239 5.0495 3.28131 6.19154 2.80827C7.33357 2.33522 8.59024 2.21145 9.80262 2.45261C11.015 2.69376 12.1286 3.28902 13.0027 4.1631C13.8768 5.03717 14.4721 6.15082 14.7132 7.3632C14.9544 8.57558 14.8306 9.83225 14.3576 10.9743C13.8845 12.1163 13.0834 13.0924 12.0556 13.7792C11.0278 14.466 9.81944 14.8325 8.58331 14.8325C6.9257 14.8325 5.33599 14.174 4.16389 13.0019C2.99179 11.8298 2.33331 10.2401 2.33331 8.58251Z" fill="#242424"/>
</svg>
