<svg width="16" height="16" viewBox="0 0 16 16" xmlns="http://www.w3.org/2000/svg">
<path fill-rule="evenodd" clip-rule="evenodd" d="M3.33301 13.3333C2.80257 13.3333 2.29387 13.1226 1.91879 12.7475C1.54372 12.3724 1.33301 11.8637 1.33301 11.3333V4.66663C1.33301 4.13619 1.54372 3.62749 1.91879 3.25241C2.29387 2.87734 2.80257 2.66663 3.33301 2.66663H12.6663C13.1968 2.66663 13.7055 2.87734 14.0806 3.25241C14.4556 3.62749 14.6663 4.13619 14.6663 4.66663V11.3333C14.6663 11.8637 14.4556 12.3724 14.0806 12.7475C13.7055 13.1226 13.1968 13.3333 12.6663 13.3333H3.33301ZM5.08301 5.47996C5.0151 5.42197 4.93623 5.37822 4.85108 5.35129C4.76594 5.32437 4.67625 5.31483 4.58735 5.32324C4.49844 5.33164 4.41214 5.35782 4.33354 5.40022C4.25495 5.44263 4.18568 5.50038 4.12984 5.57007C4.074 5.63976 4.03273 5.71996 4.00848 5.8059C3.98423 5.89185 3.97749 5.98179 3.98867 6.07038C3.99985 6.15898 4.02871 6.24443 4.07355 6.32166C4.11838 6.39889 4.17828 6.46632 4.24967 6.51996L6.74967 8.52063C7.1044 8.80463 7.54526 8.95938 7.99967 8.95938C8.45408 8.95938 8.89495 8.80463 9.24967 8.52063L11.7497 6.52063C11.818 6.46591 11.875 6.39826 11.9172 6.32154C11.9594 6.24482 11.9861 6.16054 11.9958 6.0735C12.0055 5.98646 11.9979 5.89837 11.9735 5.81426C11.9491 5.73015 11.9084 5.65167 11.8537 5.58329C11.799 5.51492 11.7313 5.45799 11.6546 5.41576C11.5779 5.37353 11.4936 5.34682 11.4065 5.33716C11.3195 5.32751 11.2314 5.33509 11.1473 5.35947C11.0632 5.38386 10.9847 5.42457 10.9163 5.47929L8.41634 7.47929C8.2981 7.57396 8.15114 7.62554 7.99967 7.62554C7.8482 7.62554 7.70125 7.57396 7.58301 7.47929L5.08301 5.47929V5.47996Z" fill="#6B6B6B"/>
</svg>
