<svg width="16" height="16" viewBox="0 0 16 16" xmlns="http://www.w3.org/2000/svg">
<path d="M8.00586 1C6.54768 1.00165 5.14969 1.58165 4.1186 2.61274C3.08751 3.64383 2.50751 5.04182 2.50586 6.5C2.50586 11.2063 7.50586 14.7625 7.71836 14.9125C7.80352 14.9692 7.90355 14.9995 8.00586 14.9995C8.10817 14.9995 8.2082 14.9692 8.29336 14.9125C8.50586 14.7625 13.5059 11.2063 13.5059 6.5C13.5042 5.04182 12.9242 3.64383 11.8931 2.61274C10.862 1.58165 9.46404 1.00165 8.00586 1ZM8.00586 4.5C8.40142 4.5 8.7881 4.6173 9.117 4.83706C9.4459 5.05682 9.70224 5.36918 9.85362 5.73463C10.005 6.10009 10.0446 6.50222 9.96743 6.89018C9.89026 7.27814 9.69978 7.63451 9.42007 7.91421C9.14037 8.19392 8.784 8.3844 8.39604 8.46157C8.00808 8.53874 7.60595 8.49913 7.24049 8.34776C6.87504 8.19638 6.56268 7.94004 6.34292 7.61114C6.12316 7.28224 6.00586 6.89556 6.00586 6.5C6.00586 5.96957 6.21657 5.46086 6.59165 5.08579C6.96672 4.71071 7.47543 4.5 8.00586 4.5Z" fill="#6B6B6B"/>
</svg>
