<svg width="20" height="20" viewBox="0 0 20 20" xmlns="http://www.w3.org/2000/svg">
<g clip-path="url(#clip0_1716_9736)">
<path d="M18.3337 4.16634V4.65801L11.167 12.008C10.5587 12.6413 9.45033 12.6413 8.83366 12.008L1.66699 4.65801V4.16634C1.66699 3.70801 2.04199 3.33301 2.50033 3.33301H17.5003C17.9587 3.33301 18.3337 3.70801 18.3337 4.16634Z" fill="#6B6B6B"/>
<path d="M12.3587 13.1748L18.3337 7.0498V15.8331C18.3337 16.2915 17.9587 16.6665 17.5003 16.6665H2.50033C2.04199 16.6665 1.66699 16.2915 1.66699 15.8331V7.0498L7.63366 13.1665C8.25866 13.8165 9.10033 14.1665 10.0003 14.1665C10.9003 14.1665 11.742 13.8165 12.3587 13.1748Z" fill="#6B6B6B"/>
</g>
<defs>
<clipPath id="clip0_1716_9736">
<rect width="20" height="20" fill="white"/>
</clipPath>
</defs>
</svg>
