<svg width="16" height="16" viewBox="0 0 16 16" xmlns="http://www.w3.org/2000/svg">
<path d="M9.88782 14.4C8.41676 14.4015 6.97186 14.0107 5.70177 13.2678C4.43169 12.5249 3.38228 11.4568 2.66152 10.1733C1.94077 8.88978 1.57468 7.43725 1.60093 5.96514C1.62718 4.49303 2.04482 3.0545 2.81088 1.79755C2.85342 1.73164 2.91309 1.67857 2.9835 1.64404C3.0539 1.60951 3.13237 1.59483 3.21048 1.60157H5.26843C5.37443 1.6015 5.47762 1.63573 5.5626 1.69916C5.64758 1.76259 5.70979 1.85182 5.73996 1.95353L6.72697 5.27711C6.74538 5.33909 6.75141 5.40409 6.7447 5.4684C6.73799 5.5327 6.71868 5.59506 6.68788 5.65189C6.65707 5.70872 6.61538 5.75892 6.56518 5.79961C6.51497 5.8403 6.45725 5.87069 6.3953 5.88904L4.98871 6.28899C4.76441 6.35181 4.57094 6.49482 4.44499 6.69092C4.31904 6.88701 4.26937 7.12254 4.30539 7.35285C4.45151 8.29229 4.83224 9.17961 5.41228 9.93253C6.27893 10.9977 7.51152 11.7008 8.86884 11.9043C9.09067 11.9438 9.31932 11.9042 9.51499 11.7924C9.71067 11.6806 9.86098 11.5036 9.93977 11.2924L10.4752 9.89653C10.5188 9.78835 10.5994 9.69919 10.7026 9.64498C10.8058 9.59077 10.9249 9.57503 11.0387 9.60057L14.0197 10.3045C14.1306 10.3304 14.229 10.3939 14.2983 10.4844C14.3675 10.5748 14.4032 10.6865 14.3993 10.8004V12.8002C14.4017 12.8744 14.385 12.948 14.3507 13.0138C14.3164 13.0797 14.2657 13.1356 14.2035 13.1761C12.9033 13.9674 11.4095 14.3828 9.88782 14.376V14.4Z" fill="#6B6B6B"/>
</svg>
