<svg width="12" height="12" viewBox="0 0 12 12" xmlns="http://www.w3.org/2000/svg">
<g clip-path="url(#clip0_1672_8656)">
<path d="M5.99463 12.0001C9.01578 12.0001 11.4736 9.54204 11.4736 6.5207C11.4736 4.56886 10.4239 2.74958 8.73452 1.77289C8.54087 1.66147 8.31687 1.63092 8.10017 1.68893C7.88423 1.74657 7.70403 1.88488 7.59221 2.07834C7.48042 2.2716 7.45083 2.49694 7.50847 2.71269C7.56609 2.92844 7.70442 3.10883 7.89768 3.22045C9.07185 3.89936 9.80149 5.16403 9.80149 6.5207C9.80149 8.62008 8.09363 10.3279 5.99463 10.3279C3.89563 10.3279 2.18777 8.62009 2.18777 6.5207C2.18777 5.16403 2.91741 3.89936 4.09158 3.22045C4.28484 3.10883 4.42317 2.92844 4.48079 2.71269C4.53842 2.49694 4.50884 2.2716 4.39705 2.07814C4.16575 1.6799 3.65317 1.54255 3.25474 1.7729C1.56533 2.74958 0.515625 4.56887 0.515625 6.5207C0.515629 9.54204 2.97349 12.0001 5.99463 12.0001Z" fill="#6B6B6B"/>
<path d="M5.99475 5C6.45581 5 6.83081 4.5659 6.83081 4.03212V0.967882C6.83081 0.434126 6.45581 0 5.99475 0C5.53369 0 5.15869 0.434126 5.15869 0.967882V4.03212C5.15869 4.5659 5.53369 5 5.99475 5Z" fill="#6B6B6B"/>
</g>
<defs>
<clipPath id="clip0_1672_8656">
<rect width="12" height="12" fill="white"/>
</clipPath>
</defs>
</svg>
