<svg width="16" height="16" viewBox="0 0 16 16" xmlns="http://www.w3.org/2000/svg">
<path d="M12.8323 7.99984H12.0148C12.0148 5.42251 9.91793 3.32617 7.34066 3.32617C4.76339 3.32617 2.66699 5.42251 2.66699 7.99984C2.66699 10.5772 4.76333 12.6735 7.34066 12.6735C7.66326 12.6735 7.92473 12.412 7.92473 12.0894C7.92473 11.7668 7.66326 11.5054 7.34066 11.5054C5.40806 11.5054 3.83519 9.93251 3.83519 7.99991C3.83519 6.06731 5.40806 4.49444 7.34066 4.49444C9.27379 4.49444 10.8467 6.06731 10.8467 7.99991H10.0287C9.62899 7.99991 9.39053 8.44544 9.61226 8.77804L11.0141 10.8808C11.2122 11.178 11.6489 11.178 11.847 10.8808L13.2488 8.77804C13.4705 8.44531 13.2321 7.99984 12.8323 7.99984Z" fill="#242424"/>
</svg>
