<svg width="16" height="16" viewBox="0 0 16 16" xmlns="http://www.w3.org/2000/svg">
<path d="M7.93756 1.00195C7.87271 1.00201 7.81143 1.01487 7.74878 1.0401L1.99266 3.54599C1.80932 3.62477 1.69016 3.80518 1.68945 4.00472C1.68945 8.61846 3.18352 11.3949 4.70983 12.9876C6.23614 14.5803 7.82312 15.0064 7.82312 15.0064C7.90704 15.0272 7.99512 15.0258 8.0784 15.0025C8.0784 15.0025 9.66493 14.5762 11.1907 12.9808C12.7165 11.3853 14.2111 8.60624 14.2111 4.00473C14.2104 3.80519 14.0912 3.62477 13.9079 3.546L8.14785 1.0401C8.07064 1.01466 8.00241 1.0019 7.93756 1.00195V1.00195ZM10.3955 5.6763C10.5223 5.66009 10.6579 5.69186 10.7731 5.78682C10.9868 5.96323 11.0166 6.27978 10.8396 6.49301L7.78595 10.1668C7.59335 10.3983 7.24169 10.409 7.03575 10.1892L5.07955 8.08633C4.89237 7.88397 4.90447 7.56826 5.10595 7.38015C5.30832 7.19297 5.62402 7.20409 5.81215 7.40558L7.37906 9.09182L10.0708 5.85333C10.151 5.75663 10.2688 5.6925 10.3955 5.67629L10.3955 5.6763Z" fill="#242424"/>
</svg>
