<svg width="12" height="12" viewBox="0 0 12 12" xmlns="http://www.w3.org/2000/svg">
<g clip-path="url(#clip0_1672_8649)">
<path d="M11.8127 5.24905C11.7161 5.18842 10.9593 4.73505 10.6585 4.59744L10.2857 3.69763C10.3965 3.40009 10.6081 2.56542 10.6411 2.42071C10.6718 2.28656 10.6313 2.14607 10.534 2.04876L9.95119 1.46594C9.8539 1.36863 9.71337 1.32818 9.57924 1.35883C9.46951 1.38393 8.61301 1.5986 8.30232 1.71424L7.40249 1.34151C7.27081 1.0537 6.83094 0.314788 6.75088 0.187312C6.67773 0.0707577 6.54976 0 6.41214 0H5.58784C5.45022 0 5.32225 0.0707577 5.24908 0.187312C5.18844 0.283898 4.73507 1.04072 4.59747 1.34151L3.69766 1.71424C3.40012 1.6035 2.56544 1.39193 2.42074 1.35883C2.28658 1.3282 2.1461 1.36865 2.04879 1.46594L1.46594 2.04879C1.36863 2.1461 1.32818 2.28658 1.35883 2.42074C1.38393 2.53047 1.5986 3.38697 1.71424 3.69766L1.34151 4.59747C1.0537 4.72914 0.314788 5.16901 0.187312 5.24908C0.0707577 5.32222 0 5.45019 0 5.58782V6.41211C0 6.54974 0.0707577 6.67771 0.187312 6.75088C0.283898 6.81151 1.04072 7.26488 1.34151 7.40249L1.71424 8.3023C1.6035 8.59984 1.39193 9.43451 1.35883 9.57922C1.3282 9.71337 1.36863 9.85386 1.46594 9.95117L2.04879 10.534C2.1461 10.6313 2.28663 10.6718 2.42074 10.6411C2.53047 10.616 3.38697 10.4014 3.69766 10.2857L4.59747 10.6584C4.72914 10.9463 5.16901 11.6852 5.24908 11.8126C5.32225 11.9292 5.45022 12 5.58784 12H6.41214C6.54976 12 6.67773 11.9292 6.7509 11.8126C6.81153 11.7161 7.26491 10.9592 7.40251 10.6584L8.30232 10.2857C8.59986 10.3965 9.43454 10.608 9.57924 10.6411C9.71344 10.6718 9.8539 10.6313 9.95119 10.534L10.534 9.95117C10.6313 9.85386 10.6718 9.71337 10.6411 9.57922C10.616 9.46948 10.4014 8.61298 10.2857 8.3023L10.6585 7.40249C10.9463 7.27081 11.6852 6.83094 11.8127 6.75088C11.9292 6.67771 12 6.54974 12 6.41211V5.58782C12 5.45019 11.9292 5.32222 11.8127 5.24905ZM5.99999 8.6157C4.55767 8.6157 3.38425 7.44228 3.38425 5.99997C3.38425 4.55765 4.55767 3.38425 5.99999 3.38425C7.44231 3.38425 8.61573 4.55767 8.61573 5.99999C8.61573 7.44231 7.44231 8.6157 5.99999 8.6157Z" fill="#6B6B6B"/>
</g>
<defs>
<clipPath id="clip0_1672_8649">
<rect width="12" height="12" fill="white"/>
</clipPath>
</defs>
</svg>
