<svg width="13" height="12" viewBox="0 0 13 12" xmlns="http://www.w3.org/2000/svg">
<path d="M5.47482 0.552644C5.73029 -0.184213 6.76971 -0.184215 7.02518 0.552642L7.99202 3.34129C8.10472 3.66634 8.4073 3.88675 8.75048 3.89376L11.6946 3.95391C12.4725 3.9698 12.7937 4.96089 12.1737 5.43218L9.8271 7.21581C9.55358 7.42372 9.438 7.78034 9.5374 8.10973L10.3901 10.9355C10.6154 11.6822 9.77454 12.2948 9.13586 11.8492L6.71875 10.1629C6.437 9.96631 6.063 9.96631 5.78125 10.1629L3.36415 11.8492C2.72546 12.2948 1.88456 11.6822 2.10988 10.9356L2.9626 8.10973C3.062 7.78034 2.94643 7.42372 2.6729 7.21581L0.326326 5.43219C-0.29372 4.96089 0.0274742 3.9698 0.805411 3.95391L3.74952 3.89376C4.0927 3.88675 4.39528 3.66635 4.50798 3.34129L5.47482 0.552644Z" fill="#3D3D3D"/>
</svg>
