<svg width="20" height="20" viewBox="0 0 20 20" xmlns="http://www.w3.org/2000/svg">
<g clip-path="url(#clip0_1674_9352)">
<path d="M3.76666 6.25L4.88333 16.3167C5.00833 17.4667 5.99166 18.3333 7.15833 18.3333H12.8417C14.0083 18.3333 14.9917 17.4667 15.1167 16.3167L16.2333 6.25H3.76666ZM9.16666 15C9.16666 15.4583 8.79166 15.8333 8.33333 15.8333C7.875 15.8333 7.5 15.4583 7.5 15V10C7.5 9.54167 7.875 9.16667 8.33333 9.16667C8.79166 9.16667 9.16666 9.54167 9.16666 10V15ZM12.5 15C12.5 15.4583 12.125 15.8333 11.6667 15.8333C11.2083 15.8333 10.8333 15.4583 10.8333 15V10C10.8333 9.54167 11.2083 9.16667 11.6667 9.16667C12.125 9.16667 12.5 9.54167 12.5 10V15Z" fill="#3D3D3D"/>
<path d="M17.5 4.16699C17.5 4.62533 17.125 5.00033 16.6667 5.00033H3.33333C2.875 5.00033 2.5 4.62533 2.5 4.16699C2.5 3.70866 2.875 3.33366 3.33333 3.33366H9.16667V2.50033C9.16667 2.04199 9.54167 1.66699 10 1.66699C10.4583 1.66699 10.8333 2.04199 10.8333 2.50033V3.33366H16.6667C17.125 3.33366 17.5 3.70866 17.5 4.16699Z" fill="#3D3D3D"/>
</g>
<defs>
<clipPath id="clip0_1674_9352">
<rect width="20" height="20" fill="white"/>
</clipPath>
</defs>
</svg>
