<svg width="24" height="24" viewBox="0 0 24 24" xmlns="http://www.w3.org/2000/svg">
    <path d="M12.0017 12.4626C15.4303 12.4626 18.233 9.6599 18.233 6.2313C18.233 2.80271 15.4303 0 12.0017 0C8.57307 0 5.77042 2.80271 5.77042 6.2313C5.77042 9.6599 8.57312 12.4626 12.0017 12.4626Z"
          fill="#6B6B6B"/>
    <path d="M22.6956 17.4422C22.5323 17.034 22.3146 16.653 22.0697 16.2993C20.818 14.4489 18.8861 13.2244 16.7092 12.9251C16.4371 12.8979 16.1378 12.9523 15.9201 13.1156C14.7772 13.9591 13.4167 14.3945 12.0017 14.3945C10.5867 14.3945 9.2262 13.9591 8.08333 13.1156C7.86563 12.9523 7.5663 12.8707 7.29422 12.9251C5.11734 13.2244 3.15818 14.4489 1.9337 16.2993C1.6888 16.653 1.47109 17.0612 1.30786 17.4422C1.22625 17.6054 1.25344 17.7959 1.33505 17.9592C1.55276 18.3401 1.82484 18.7211 2.06974 19.0476C2.45068 19.5647 2.85885 20.0272 3.32146 20.4626C3.7024 20.8435 4.13776 21.1973 4.57318 21.551C6.72281 23.1565 9.30787 24 11.9745 24C14.6412 24 17.2262 23.1564 19.3759 21.551C19.8113 21.2245 20.2466 20.8435 20.6276 20.4626C21.063 20.0272 21.4983 19.5646 21.8793 19.0476C22.1514 18.6939 22.3964 18.3401 22.614 17.9592C22.75 17.7959 22.7772 17.6054 22.6956 17.4422Z"
          fill="#6B6B6B"/>
</svg>
