<svg width="40" height="12" viewBox="0 0 40 12" xmlns="http://www.w3.org/2000/svg">
<path d="M16.0178 0.203125L13.9849 11.8291H17.2362L19.2708 0.203125H16.0178Z" fill="#242424"/>
<path d="M11.2619 0.213383L8.07745 8.14194L7.73794 6.94479C7.10991 5.50235 5.32702 3.43077 3.23389 2.12523L6.14571 11.8206L9.58605 11.8149L14.7064 0.210938L11.2619 0.213383Z" fill="#242424"/>
<path d="M6.49934 1.04413C6.31035 0.335942 5.76261 0.124873 5.08273 0.0996094H0.0418126L0 0.331053C3.92285 1.25846 6.51858 3.49302 7.59567 6.17988L6.49934 1.04413Z" fill="#242424"/>
<path d="M25.8647 2.42852C26.9285 2.41222 27.6995 2.63878 28.2982 2.87348L28.5918 3.00795L29.0316 0.488149C28.3877 0.252631 27.3784 0 26.119 0C22.9061 0 20.6415 1.57691 20.624 3.83674C20.6031 5.50655 22.2371 6.43885 23.4714 6.99545C24.7383 7.56591 25.1631 7.92856 25.1573 8.4379C25.1472 9.21616 24.1471 9.57311 23.213 9.57311C21.911 9.57311 21.2194 9.3979 20.1515 8.96435L19.7325 8.77854L19.2751 11.3806C20.0361 11.7058 21.4401 11.9853 22.8977 12C26.3155 12 28.5366 10.4418 28.56 8.02716C28.5742 6.70615 27.707 5.69806 25.8279 4.8709C24.6906 4.33141 23.9949 3.97283 24.0016 3.42845C24.0016 2.94519 24.592 2.42852 25.8647 2.42852Z" fill="#242424"/>
<path d="M37.3689 0.211914H34.8568C34.0766 0.211914 33.4962 0.418909 33.1534 1.1768L28.3257 11.8313H31.7401C31.7401 11.8313 32.297 10.3987 32.4233 10.0849C32.7971 10.0849 36.1145 10.0898 36.587 10.0898C36.684 10.4957 36.9834 11.8313 36.9834 11.8313H39.9997L37.3689 0.211914ZM33.3591 7.70529C33.6267 7.03786 34.6544 4.45613 34.6544 4.45613C34.6369 4.48791 34.9195 3.7838 35.0876 3.34617L35.3067 4.34855C35.3067 4.34855 35.9297 7.12424 36.0602 7.70529H33.3591Z" fill="#242424"/>
</svg>
