<svg width="16" height="16" viewBox="0 0 16 16" xmlns="http://www.w3.org/2000/svg">
<g clip-path="url(#clip0_1563_6482)">
<path d="M15.646 3.9526L15.666 4.08326C15.4727 3.39726 14.9507 2.86793 14.2873 2.67526L14.2733 2.67193C13.026 2.33326 8.00668 2.33326 8.00668 2.33326C8.00668 2.33326 3.00001 2.32659 1.74001 2.67193C1.06401 2.86793 0.541346 3.39726 0.351346 4.06926L0.348013 4.08326C-0.117987 6.51726 -0.12132 9.44193 0.36868 12.0479L0.348013 11.9159C0.541346 12.6019 1.06335 13.1313 1.72668 13.3239L1.74068 13.3273C2.98668 13.6666 8.00735 13.6666 8.00735 13.6666C8.00735 13.6666 13.0133 13.6666 14.274 13.3273C14.9507 13.1313 15.4733 12.6019 15.6633 11.9299L15.6667 11.9159C15.8787 10.7839 16 9.48127 16 8.1506C16 8.10193 16 8.0526 15.9993 8.00327C16 7.95793 16 7.90393 16 7.84993C16 6.5186 15.8787 5.21593 15.646 3.9526ZM6.40535 10.4339V5.57193L10.5827 8.0066L6.40535 10.4339Z" fill="#E9E9E9"/>
</g>
<defs>
<clipPath id="clip0_1563_6482">
<rect width="16" height="16" fill="white"/>
</clipPath>
</defs>
</svg>
