<svg width="101" height="30" viewBox="0 0 101 30" fill="none" xmlns="http://www.w3.org/2000/svg">
<g clip-path="url(#clip0_1563_6431)">
<rect width="101" height="30" rx="8" fill="white"/>
<path d="M22.5402 14.8381C22.5185 12.4209 24.5146 11.2449 24.6059 11.1901C23.4754 9.5379 21.7232 9.31215 21.1075 9.29415C19.6359 9.1389 18.2084 10.1769 17.4588 10.1769C16.6942 10.1769 15.5398 9.30915 14.2956 9.33465C12.6946 9.3594 11.1968 10.2886 10.3753 11.7316C8.68003 14.6739 9.9444 18.9976 11.5686 21.3759C12.3811 22.5406 13.3305 23.8411 14.5732 23.7954C15.7889 23.7451 16.2431 23.0184 17.7102 23.0184C19.1638 23.0184 19.5903 23.7954 20.8576 23.7661C22.1624 23.7451 22.9839 22.5961 23.7679 21.4209C24.7069 20.0859 25.0839 18.7711 25.0989 18.7036C25.0682 18.6931 22.5649 17.7354 22.5402 14.8381Z" fill="#242424"/>
<path d="M20.1461 7.72959C20.8 6.90984 21.2474 5.79459 21.1232 4.66284C20.1768 4.70484 18.9932 5.31909 18.3117 6.12084C17.7087 6.82734 17.17 7.98534 17.3092 9.07434C18.3723 9.15384 19.4638 8.53659 20.1461 7.72959Z" fill="#242424"/>
<path d="M40.1344 23.628H38.4354L37.5047 20.6962H34.2697L33.3831 23.628H31.729L34.934 13.647H36.9136L40.1344 23.628ZM37.2241 19.4662L36.3825 16.86C36.2934 16.5937 36.1266 15.9667 35.8804 14.9797H35.8505C35.7525 15.4042 35.5947 16.0312 35.3777 16.86L34.551 19.4662H37.2241Z" fill="#242424"/>
<path d="M48.3768 19.941C48.3768 21.165 48.0468 22.1325 47.387 22.8427C46.7959 23.475 46.062 23.7907 45.1859 23.7907C44.2403 23.7907 43.5609 23.4502 43.1472 22.7692H43.1173V26.5605H41.5222V18.8002C41.5222 18.0307 41.502 17.241 41.4631 16.431H42.8659L42.9549 17.5717H42.9849C43.5168 16.7122 44.3241 16.2832 45.4074 16.2832C46.2543 16.2832 46.9613 16.6185 47.5269 17.2897C48.094 17.9617 48.3768 18.8452 48.3768 19.941ZM46.7518 19.9995C46.7518 19.299 46.5947 18.7215 46.279 18.267C45.9341 17.793 45.471 17.556 44.8904 17.556C44.4969 17.556 44.1393 17.688 43.8198 17.9482C43.4996 18.2107 43.2901 18.5535 43.1921 18.978C43.1427 19.176 43.118 19.338 43.118 19.4655V20.6655C43.118 21.189 43.2781 21.6307 43.5983 21.9915C43.9186 22.3522 44.3345 22.5322 44.8463 22.5322C45.447 22.5322 45.9146 22.2997 46.249 21.8362C46.5842 21.372 46.7518 20.76 46.7518 19.9995Z" fill="#242424"/>
<path d="M56.6341 19.941C56.6341 21.165 56.3041 22.1325 55.6435 22.8427C55.0532 23.475 54.3193 23.7907 53.4432 23.7907C52.4976 23.7907 51.8183 23.4502 51.4053 22.7692H51.3753V26.5605H49.7803V18.8002C49.7803 18.0307 49.7601 17.241 49.7212 16.431H51.124L51.213 17.5717H51.2429C51.7741 16.7122 52.5814 16.2832 53.6654 16.2832C54.5116 16.2832 55.2186 16.6185 55.7857 17.2897C56.3505 17.9617 56.6341 18.8452 56.6341 19.941ZM55.0091 19.9995C55.0091 19.299 54.8512 18.7215 54.5355 18.267C54.1906 17.793 53.729 17.556 53.1477 17.556C52.7534 17.556 52.3966 17.688 52.0764 17.9482C51.7562 18.2107 51.5474 18.5535 51.4494 18.978C51.4008 19.176 51.3753 19.338 51.3753 19.4655V20.6655C51.3753 21.189 51.5354 21.6307 51.8542 21.9915C52.1744 22.3515 52.5903 22.5322 53.1036 22.5322C53.7043 22.5322 54.1719 22.2997 54.5063 21.8362C54.8415 21.372 55.0091 20.76 55.0091 19.9995Z" fill="#242424"/>
<path d="M65.8662 20.829C65.8662 21.678 65.5722 22.3687 64.9819 22.902C64.3333 23.4847 63.4303 23.7757 62.2699 23.7757C61.1985 23.7757 60.3397 23.5687 59.6895 23.154L60.0591 21.8212C60.7594 22.2457 61.5277 22.4587 62.3649 22.4587C62.9657 22.4587 63.4332 22.3222 63.7692 22.0507C64.1036 21.7792 64.2704 21.4147 64.2704 20.9602C64.2704 20.5552 64.1328 20.214 63.8567 19.9372C63.5821 19.6605 63.1235 19.4032 62.4831 19.1655C60.7399 18.5137 59.8691 17.559 59.8691 16.3035C59.8691 15.483 60.1743 14.8102 60.7856 14.2867C61.3945 13.7625 62.207 13.5007 63.223 13.5007C64.129 13.5007 64.8817 13.659 65.4824 13.9747L65.0837 15.2782C64.5226 14.9722 63.8881 14.8192 63.1781 14.8192C62.617 14.8192 62.1786 14.958 61.8644 15.234C61.5988 15.4807 61.4656 15.7815 61.4656 16.1377C61.4656 16.5322 61.6175 16.8585 61.9227 17.115C62.1883 17.352 62.6709 17.6085 63.3712 17.8852C64.2278 18.231 64.857 18.6352 65.2617 19.0987C65.665 19.5607 65.8662 20.139 65.8662 20.829Z" fill="#242424"/>
<path d="M71.1399 17.6309H69.3818V21.1252C69.3818 22.0139 69.6915 22.4579 70.3125 22.4579C70.5975 22.4579 70.8339 22.4332 71.021 22.3837L71.0651 23.5979C70.7509 23.7157 70.3372 23.7749 69.8247 23.7749C69.1948 23.7749 68.7025 23.5822 68.3471 23.1974C67.9932 22.8119 67.8152 22.1654 67.8152 21.2572V17.6294H66.7678V16.4294H67.8152V15.1117L69.3818 14.6377V16.4294H71.1399V17.6309Z" fill="#242424"/>
<path d="M79.0725 19.9702C79.0725 21.0764 78.7568 21.9847 78.1269 22.6949C77.4663 23.4262 76.5894 23.7907 75.4964 23.7907C74.443 23.7907 73.6043 23.4404 72.9789 22.7399C72.3534 22.0394 72.0407 21.1552 72.0407 20.0894C72.0407 18.9742 72.3624 18.0607 73.008 17.3504C73.6522 16.6394 74.5215 16.2839 75.6146 16.2839C76.668 16.2839 77.5156 16.6342 78.1553 17.3354C78.7673 18.0157 79.0725 18.8939 79.0725 19.9702ZM77.4176 20.0219C77.4176 19.3582 77.2762 18.7889 76.9897 18.3142C76.6553 17.7397 76.1772 17.4532 75.5577 17.4532C74.9166 17.4532 74.4295 17.7404 74.0951 18.3142C73.8086 18.7897 73.6672 19.3679 73.6672 20.0519C73.6672 20.7157 73.8086 21.2849 74.0951 21.7589C74.44 22.3334 74.9218 22.6199 75.5435 22.6199C76.1525 22.6199 76.6306 22.3274 76.9755 21.7439C77.2695 21.2602 77.4176 20.6849 77.4176 20.0219Z" fill="#242424"/>
<path d="M84.2572 17.8372C84.0993 17.808 83.931 17.793 83.7544 17.793C83.1933 17.793 82.7594 18.0052 82.4542 18.4305C82.1886 18.8055 82.0554 19.2795 82.0554 19.8517V23.628H80.4611L80.4761 18.6975C80.4761 17.868 80.4559 17.1127 80.4162 16.4317H81.8055L81.8639 17.8087H81.908C82.0763 17.3355 82.3419 16.9545 82.7055 16.6687C83.0609 16.4115 83.4447 16.2832 83.8584 16.2832C84.0058 16.2832 84.139 16.2937 84.2572 16.3125V17.8372Z" fill="#242424"/>
<path d="M91.3908 19.689C91.3908 19.9755 91.3721 20.217 91.3324 20.4143H86.5473C86.566 21.1253 86.7972 21.669 87.2416 22.044C87.6448 22.3793 88.1663 22.5473 88.8067 22.5473C89.5152 22.5473 90.1616 22.434 90.7429 22.2068L90.9928 23.3168C90.3135 23.6138 89.5114 23.7615 88.586 23.7615C87.4727 23.7615 86.5989 23.433 85.963 22.7768C85.3286 22.1205 85.0106 21.2393 85.0106 20.1338C85.0106 19.0485 85.3061 18.1448 85.8979 17.424C86.5174 16.6545 87.3545 16.2698 88.4079 16.2698C89.4426 16.2698 90.2259 16.6545 90.7579 17.424C91.1791 18.0353 91.3908 18.7913 91.3908 19.689ZM89.8698 19.2743C89.8803 18.8003 89.7763 18.3908 89.5601 18.045C89.284 17.6003 88.8598 17.3783 88.289 17.3783C87.7675 17.3783 87.3433 17.595 87.0194 18.03C86.7538 18.3758 86.5959 18.7905 86.5473 19.2735H89.8698V19.2743Z" fill="#242424"/>
<path d="M36.6967 7.50677C36.6967 8.38952 36.4326 9.05402 35.9051 9.50027C35.4166 9.91202 34.7223 10.1183 33.823 10.1183C33.3771 10.1183 32.9956 10.0988 32.6761 10.0598V5.23652C33.0928 5.16902 33.5417 5.13452 34.0265 5.13452C34.8832 5.13452 35.5288 5.32127 35.9642 5.69477C36.452 6.11702 36.6967 6.72077 36.6967 7.50677ZM35.87 7.52852C35.87 6.95627 35.7188 6.51752 35.4166 6.21152C35.1143 5.90627 34.6729 5.75327 34.0916 5.75327C33.8447 5.75327 33.6345 5.76977 33.4602 5.80427V9.47102C33.5567 9.48602 33.7333 9.49277 33.9899 9.49277C34.5899 9.49277 35.053 9.32552 35.3792 8.99102C35.7054 8.65652 35.87 8.16902 35.87 7.52852Z" fill="#242424"/>
<path d="M41.0801 8.27778C41.0801 8.82153 40.9252 9.26703 40.6155 9.61653C40.2908 9.97578 39.8606 10.155 39.3234 10.155C38.8057 10.155 38.3935 9.98328 38.086 9.63828C37.7792 9.29403 37.6259 8.85978 37.6259 8.33628C37.6259 7.78878 37.7837 7.33954 38.1009 6.99079C38.4181 6.64204 38.8446 6.46729 39.3818 6.46729C39.8995 6.46729 40.3154 6.63903 40.6304 6.98328C40.9297 7.31778 41.0801 7.74978 41.0801 8.27778ZM40.2668 8.30329C40.2668 7.97704 40.1965 7.69728 40.0566 7.46403C39.892 7.18203 39.6578 7.04103 39.3533 7.04103C39.0384 7.04103 38.799 7.18203 38.6344 7.46403C38.4937 7.69728 38.4241 7.98154 38.4241 8.31754C38.4241 8.64379 38.4945 8.92353 38.6344 9.15678C38.8042 9.43878 39.0406 9.57978 39.3458 9.57978C39.6451 9.57978 39.88 9.43654 40.0491 9.14929C40.1942 8.91154 40.2668 8.62954 40.2668 8.30329Z" fill="#242424"/>
<path d="M46.9575 6.53931L45.854 10.0748H45.1358L44.6786 8.53956C44.5627 8.15631 44.4684 7.77531 44.3951 7.39731H44.3809C44.3128 7.78581 44.2185 8.16606 44.0973 8.53956L43.6118 10.0748H42.8853L41.8477 6.53931H42.6534L43.0522 8.22006C43.1487 8.61756 43.228 8.99631 43.2916 9.35481H43.3058C43.3642 9.05931 43.4607 8.68281 43.5968 8.22756L44.0973 6.54006H44.7363L45.2158 8.19156C45.3318 8.59431 45.426 8.98206 45.4986 9.35556H45.5203C45.5734 8.99181 45.6535 8.60406 45.7597 8.19156L46.1877 6.54006H46.9575V6.53931Z" fill="#242424"/>
<path d="M51.0222 10.0748H50.2381V8.04984C50.2381 7.42584 50.0017 7.11384 49.5274 7.11384C49.2947 7.11384 49.1069 7.19934 48.961 7.37109C48.8167 7.54284 48.7433 7.74534 48.7433 7.97709V10.0741H47.9593V7.54959C47.9593 7.23909 47.9496 6.90234 47.9308 6.53784H48.6199L48.6566 7.09059H48.6782C48.7695 6.91884 48.9057 6.77709 49.0845 6.66384C49.297 6.53184 49.5349 6.46509 49.7952 6.46509C50.1244 6.46509 50.3982 6.57159 50.6159 6.78534C50.8868 7.04709 51.0222 7.43784 51.0222 7.95684V10.0748Z" fill="#242424"/>
<path d="M53.1843 10.0747H52.401V4.91699H53.1843V10.0747Z" fill="#242424"/>
<path d="M57.8004 8.27778C57.8004 8.82153 57.6456 9.26703 57.3358 9.61653C57.0111 9.97578 56.5802 10.155 56.0438 10.155C55.5253 10.155 55.1131 9.98328 54.8063 9.63828C54.4996 9.29403 54.3462 8.85978 54.3462 8.33628C54.3462 7.78878 54.5041 7.33954 54.8213 6.99079C55.1385 6.64204 55.565 6.46729 56.1014 6.46729C56.6198 6.46729 57.0351 6.63903 57.3508 6.98328C57.65 7.31778 57.8004 7.74978 57.8004 8.27778ZM56.9864 8.30329C56.9864 7.97704 56.9161 7.69728 56.7762 7.46403C56.6124 7.18203 56.3774 7.04103 56.0737 7.04103C55.758 7.04103 55.5186 7.18203 55.3547 7.46403C55.2141 7.69728 55.1445 7.98154 55.1445 8.31754C55.1445 8.64379 55.2148 8.92353 55.3547 9.15678C55.5246 9.43878 55.761 9.57978 56.0662 9.57978C56.3655 9.57978 56.5996 9.43654 56.7687 9.14929C56.9146 8.91154 56.9864 8.62954 56.9864 8.30329Z" fill="#242424"/>
<path d="M61.595 10.0748H60.891L60.8327 9.66754H60.811C60.5701 9.99229 60.2267 10.155 59.7808 10.155C59.4479 10.155 59.1785 10.0478 58.9758 9.83478C58.7917 9.64128 58.6997 9.40053 58.6997 9.11478C58.6997 8.68279 58.8793 8.35353 59.2406 8.12553C59.6012 7.89753 60.1085 7.78578 60.7616 7.79103V7.72504C60.7616 7.25929 60.5177 7.02679 60.0292 7.02679C59.6813 7.02679 59.3745 7.11454 59.1097 7.28854L58.9503 6.77253C59.278 6.56928 59.6828 6.46729 60.1601 6.46729C61.0818 6.46729 61.5442 6.95479 61.5442 7.92979V9.23179C61.5442 9.58504 61.5614 9.86628 61.595 10.0748ZM60.7811 8.85978V8.31454C59.9162 8.29954 59.4838 8.53729 59.4838 9.02704C59.4838 9.21154 59.5331 9.34953 59.6341 9.44178C59.7351 9.53403 59.8638 9.57978 60.0172 9.57978C60.1893 9.57978 60.3501 9.52504 60.4968 9.41629C60.6441 9.30679 60.7347 9.16803 60.7683 8.99778C60.7766 8.95953 60.7811 8.91303 60.7811 8.85978Z" fill="#242424"/>
<path d="M66.0503 10.0747H65.3545L65.3178 9.50699H65.2961C65.0739 9.93899 64.6954 10.155 64.1634 10.155C63.7385 10.155 63.3846 9.98774 63.1041 9.65324C62.8235 9.31874 62.6836 8.88449 62.6836 8.35124C62.6836 7.77899 62.8355 7.31549 63.1407 6.96149C63.4362 6.63149 63.7983 6.46649 64.2293 6.46649C64.7028 6.46649 65.0343 6.62624 65.2228 6.94649H65.2378V4.91699H66.0226V9.12224C66.0226 9.46649 66.0316 9.78374 66.0503 10.0747ZM65.2378 8.58374V7.99424C65.2378 7.89224 65.2303 7.80974 65.2161 7.74674C65.1719 7.55774 65.0769 7.39874 64.9325 7.27049C64.7866 7.14224 64.6108 7.07774 64.4081 7.07774C64.1155 7.07774 63.8866 7.19399 63.7183 7.42724C63.5514 7.66049 63.4669 7.95824 63.4669 8.32199C63.4669 8.67149 63.547 8.95499 63.7078 9.17324C63.8776 9.40574 64.1066 9.52199 64.3931 9.52199C64.6505 9.52199 64.8562 9.42524 65.0126 9.23099C65.1637 9.05174 65.2378 8.83574 65.2378 8.58374Z" fill="#242424"/>
<path d="M72.7559 8.27778C72.7559 8.82153 72.601 9.26703 72.2913 9.61653C71.9666 9.97578 71.5372 10.155 70.9992 10.155C70.4823 10.155 70.07 9.98328 69.7618 9.63828C69.4551 9.29403 69.3017 8.85978 69.3017 8.33628C69.3017 7.78878 69.4596 7.33954 69.7768 6.99079C70.094 6.64204 70.5204 6.46729 71.0583 6.46729C71.5753 6.46729 71.992 6.63903 72.3063 6.98328C72.6055 7.31778 72.7559 7.74978 72.7559 8.27778ZM71.9434 8.30329C71.9434 7.97704 71.8731 7.69728 71.7332 7.46403C71.5678 7.18203 71.3344 7.04103 71.0292 7.04103C70.715 7.04103 70.4755 7.18203 70.3102 7.46403C70.1695 7.69728 70.1 7.98154 70.1 8.31754C70.1 8.64379 70.1703 8.92353 70.3102 9.15678C70.48 9.43878 70.7164 9.57978 71.0217 9.57978C71.321 9.57978 71.5566 9.43654 71.7257 9.14929C71.8701 8.91154 71.9434 8.62954 71.9434 8.30329Z" fill="#242424"/>
<path d="M76.9717 10.0748H76.1884V8.04984C76.1884 7.42584 75.952 7.11384 75.4769 7.11384C75.2443 7.11384 75.0565 7.19934 74.9113 7.37109C74.7662 7.54284 74.6936 7.74534 74.6936 7.97709V10.0741H73.9088V7.54959C73.9088 7.23909 73.8998 6.90234 73.8811 6.53784H74.5694L74.6061 7.09059H74.6278C74.7198 6.91884 74.856 6.77709 75.034 6.66384C75.2473 6.53184 75.4844 6.46509 75.7455 6.46509C76.074 6.46509 76.3478 6.57159 76.5655 6.78534C76.8371 7.04709 76.9717 7.43784 76.9717 7.95684V10.0748Z" fill="#242424"/>
<path d="M82.2484 7.12794H81.3851V8.84544C81.3851 9.28194 81.5384 9.50019 81.8422 9.50019C81.9828 9.50019 82.0995 9.48819 82.1916 9.46344L82.2118 10.0597C82.0569 10.1182 81.8534 10.1474 81.6028 10.1474C81.293 10.1474 81.0521 10.0529 80.8778 9.86394C80.7027 9.67494 80.616 9.35694 80.616 8.91069V7.12794H80.1005V6.53919H80.616V5.89119L81.3843 5.65869V6.53844H82.2477V7.12794H82.2484Z" fill="#242424"/>
<path d="M86.3992 10.0747H85.6144V8.06474C85.6144 7.43099 85.3779 7.11374 84.9044 7.11374C84.5408 7.11374 84.2924 7.29749 84.1562 7.66499C84.133 7.74224 84.1196 7.83674 84.1196 7.94774V10.074H83.3362V4.91699H84.1196V7.04774H84.1345C84.3814 6.65999 84.7353 6.46649 85.1939 6.46649C85.5186 6.46649 85.7872 6.57299 86.0004 6.78674C86.266 7.05299 86.3992 7.44899 86.3992 7.97249V10.0747Z" fill="#242424"/>
<path d="M90.6808 8.1397C90.6808 8.2807 90.6703 8.3992 90.6516 8.49595H88.3002C88.3106 8.84545 88.4229 9.1117 88.6406 9.2962C88.8396 9.4612 89.0962 9.5437 89.4104 9.5437C89.7583 9.5437 90.0755 9.4882 90.3613 9.37645L90.484 9.92245C90.1496 10.0679 89.7561 10.1407 89.3004 10.1407C88.7543 10.1407 88.3241 9.97945 88.0129 9.65695C87.7002 9.33445 87.5453 8.9017 87.5453 8.3587C87.5453 7.82545 87.6897 7.38145 87.9807 7.02745C88.2845 6.64945 88.6952 6.46045 89.2137 6.46045C89.7209 6.46045 90.1062 6.64945 90.3666 7.02745C90.5768 7.32745 90.6808 7.6987 90.6808 8.1397ZM89.9326 7.93645C89.9386 7.7032 89.887 7.5022 89.7808 7.3327C89.6446 7.11445 89.4374 7.00495 89.1568 7.00495C88.9009 7.00495 88.6922 7.11145 88.5328 7.3252C88.4027 7.49545 88.3256 7.6987 88.3002 7.93645H89.9326Z" fill="#242424"/>
</g>
<defs>
<clipPath id="clip0_1563_6431">
<rect width="101" height="30" fill="white"/>
</clipPath>
</defs>
</svg>
