<svg width="1680" height="600" viewBox="0 0 1680 600" fill="none" xmlns="http://www.w3.org/2000/svg">
<mask id="mask0_1515_5687" style="mask-type:alpha" maskUnits="userSpaceOnUse" x="0" y="0" width="1680" height="600">
<rect width="1680" height="600" fill="#A2F2C0"/>
</mask>
<g mask="url(#mask0_1515_5687)">
<rect width="1680" height="700" fill="#A2F2C0" fill-opacity="0.15"/>
<path d="M640.119 -169.549C816.934 30.3795 500.928 988.683 218.815 1108.21C-63.2973 1227.74 -593.615 628.028 -488.28 308.61C-382.944 -10.8079 463.444 -369.465 640.119 -169.549Z" fill="url(#paint0_linear_1515_5687)"/>
<path d="M1339.12 -464.549C1515.93 -264.621 1199.93 693.683 917.815 813.211C635.703 932.738 105.385 333.028 210.72 13.6098C316.056 -305.808 1162.44 -664.465 1339.12 -464.549Z" fill="url(#paint1_linear_1515_5687)"/>
<path d="M1960.2 -185.471C2137.01 14.4576 1821.01 972.762 1538.89 1092.29C1256.78 1211.82 726.462 612.106 831.798 292.688C937.133 -26.7297 1783.52 -385.387 1960.2 -185.471Z" fill="url(#paint2_linear_1515_5687)"/>
</g>
<defs>
<linearGradient id="paint0_linear_1515_5687" x1="-267.76" y1="-94.7602" x2="648.99" y2="821.989" gradientUnits="userSpaceOnUse">
<stop stop-color="#FFD04E"/>
<stop offset="1" stop-color="#FFE59E"/>
</linearGradient>
<linearGradient id="paint1_linear_1515_5687" x1="431.24" y1="-389.76" x2="1347.99" y2="526.989" gradientUnits="userSpaceOnUse">
<stop stop-color="#FFD04E"/>
<stop offset="1" stop-color="#FFE59E"/>
</linearGradient>
<linearGradient id="paint2_linear_1515_5687" x1="1052.32" y1="-110.682" x2="1969.07" y2="806.067" gradientUnits="userSpaceOnUse">
<stop stop-color="#FFD04E"/>
<stop offset="1" stop-color="#FFE59E"/>
</linearGradient>
</defs>
</svg>
