<svg width="164" height="50" viewBox="0 0 164 50" fill="none" xmlns="http://www.w3.org/2000/svg">
<mask id="mask0_1563_6429" style="mask-type:alpha" maskUnits="userSpaceOnUse" x="0" y="0" width="164" height="50">
<rect width="164" height="50" fill="#D9D9D9"/>
</mask>
<g mask="url(#mask0_1563_6429)">
<path d="M42.3475 2.20293C48.8863 9.58407 37.2001 44.9635 26.7674 49.3763C16.3346 53.7891 -3.27691 31.6485 0.618477 19.856C4.51386 8.06349 35.8139 -5.17774 42.3475 2.20293Z" fill="#FFBD06"/>
<path d="M26.5149 37.6078C24.9699 37.6078 23.6736 37.3333 22.6261 36.7842C21.6048 36.2352 20.8322 35.4378 20.3085 34.3921C19.8109 33.3463 19.5621 32.0653 19.5621 30.5489V20.9019H17.0481C16.5767 20.9019 16.2101 20.7842 15.9482 20.5489C15.6864 20.2875 15.5554 19.9476 15.5554 19.5293C15.5554 19.0849 15.6864 18.745 15.9482 18.5097C16.2101 18.2744 16.5767 18.1568 17.0481 18.1568H19.5621V13.8823C19.5621 13.281 19.7193 12.8365 20.0335 12.5489C20.3478 12.2352 20.7929 12.0784 21.3691 12.0784C21.9452 12.0784 22.3773 12.2352 22.6654 12.5489C22.9796 12.8365 23.1367 13.281 23.1367 13.8823V18.1568H27.8898C28.3874 18.1568 28.7671 18.2744 29.029 18.5097C29.2908 18.745 29.4218 19.0849 29.4218 19.5293C29.4218 19.9476 29.2908 20.2875 29.029 20.5489C28.7671 20.7842 28.3874 20.9019 27.8898 20.9019H23.1367V30.2352C23.1367 31.6731 23.4379 32.7581 24.0402 33.4901C24.6425 34.2221 25.6377 34.5882 27.0256 34.5882C27.5232 34.5882 27.9422 34.5489 28.2826 34.4705C28.623 34.3659 28.9242 34.3136 29.1861 34.3136C29.4218 34.2875 29.6182 34.3659 29.7753 34.5489C29.9586 34.7319 30.0503 35.0718 30.0503 35.5685C30.0503 35.9346 29.9848 36.2744 29.8539 36.5882C29.7491 36.8757 29.5265 37.0718 29.1861 37.1764C28.8718 37.281 28.4528 37.3725 27.9291 37.4509C27.4053 37.5555 26.9339 37.6078 26.5149 37.6078Z" fill="#E9E9E9"/>
<path d="M40.6372 37.6078C38.5684 37.6078 36.7876 37.2156 35.295 36.4313C33.8284 35.6208 32.6893 34.4836 31.8775 33.0195C31.0657 31.5293 30.6597 29.7777 30.6597 27.7646C30.6597 25.7777 31.0526 24.0391 31.8382 22.5489C32.65 21.0587 33.7499 19.8953 35.1378 19.0587C36.552 18.2221 38.1625 17.8038 39.9694 17.8038C41.2526 17.8038 42.4049 18.0261 43.4262 18.4705C44.4737 18.8888 45.3641 19.5032 46.0973 20.3136C46.8306 21.1241 47.3805 22.1176 47.7472 23.294C48.14 24.4444 48.3364 25.7516 48.3364 27.2156C48.3364 27.6339 48.2055 27.9607 47.9436 28.196C47.7079 28.4051 47.3544 28.5097 46.883 28.5097H33.4487V26.2352H45.9795L45.3117 26.7842C45.3117 25.4248 45.1022 24.2744 44.6832 23.3333C44.2904 22.3659 43.7012 21.6339 42.9156 21.1372C42.1561 20.6404 41.2003 20.3921 40.048 20.3921C38.791 20.3921 37.7173 20.6927 36.8269 21.294C35.9366 21.8692 35.2557 22.6927 34.7843 23.7646C34.3129 24.8104 34.0772 26.0261 34.0772 27.4117V27.647C34.0772 29.9999 34.6403 31.7777 35.7663 32.9803C36.8924 34.1829 38.516 34.7842 40.6372 34.7842C41.4752 34.7842 42.3263 34.6797 43.1905 34.4705C44.0809 34.2614 44.932 33.8823 45.7438 33.3333C46.1366 33.098 46.4902 32.9934 46.8044 33.0195C47.1449 33.0195 47.4198 33.1241 47.6293 33.3333C47.8388 33.5163 47.9698 33.7516 48.0221 34.0391C48.0745 34.3006 48.0352 34.5882 47.9043 34.9019C47.7734 35.2156 47.5246 35.4901 47.1579 35.7254C46.2938 36.3267 45.2593 36.7973 44.0547 37.1372C42.8763 37.4509 41.7371 37.6078 40.6372 37.6078Z" fill="#E9E9E9"/>
<path d="M53.9607 37.5293C53.4108 37.5293 52.9787 37.3725 52.6644 37.0587C52.3502 36.745 52.193 36.2875 52.193 35.6862V19.6862C52.193 19.0849 52.3502 18.6404 52.6644 18.3529C52.9787 18.0391 53.4108 17.8823 53.9607 17.8823C54.5106 17.8823 54.9296 18.0391 55.2177 18.3529C55.532 18.6404 55.6891 19.0849 55.6891 19.6862V23.0195L55.257 22.3136C55.7545 20.8757 56.5533 19.7646 57.6531 18.9803C58.7792 18.196 60.1148 17.8038 61.6599 17.8038C63.2835 17.8038 64.5929 18.196 65.588 18.9803C66.5831 19.7385 67.2509 20.9019 67.5913 22.4705H67.0414C67.5128 21.0326 68.3508 19.8953 69.5554 19.0587C70.7862 18.2221 72.2135 17.8038 73.8371 17.8038C75.2774 17.8038 76.4559 18.0914 77.3724 18.6666C78.3152 19.2156 79.0223 20.0522 79.4936 21.1764C79.965 22.2744 80.2007 23.6862 80.2007 25.4117V35.6862C80.2007 36.2875 80.0436 36.745 79.7293 37.0587C79.4151 37.3725 78.983 37.5293 78.433 37.5293C77.8569 37.5293 77.4117 37.3725 77.0975 37.0587C76.7832 36.745 76.6261 36.2875 76.6261 35.6862V25.5685C76.6261 23.8953 76.338 22.6666 75.7619 21.8823C75.1858 21.098 74.2168 20.7058 72.8551 20.7058C71.3624 20.7058 70.1708 21.2287 69.2805 22.2744C68.4163 23.294 67.9842 24.7058 67.9842 26.5097V35.6862C67.9842 36.2875 67.827 36.745 67.5128 37.0587C67.2247 37.3725 66.7926 37.5293 66.2165 37.5293C65.6404 37.5293 65.1952 37.3725 64.8809 37.0587C64.5667 36.745 64.4096 36.2875 64.4096 35.6862V25.5685C64.4096 23.8953 64.1215 22.6666 63.5454 21.8823C62.9692 21.098 62.0003 20.7058 60.6385 20.7058C59.1458 20.7058 57.9543 21.2287 57.0639 22.2744C56.1997 23.294 55.7676 24.7058 55.7676 26.5097V35.6862C55.7676 36.915 55.1653 37.5293 53.9607 37.5293Z" fill="#E9E9E9"/>
<path d="M87.0486 44.5882C86.4986 44.5882 86.0665 44.4313 85.7523 44.1176C85.438 43.8038 85.2809 43.3594 85.2809 42.7842V19.6862C85.2809 19.0849 85.438 18.6404 85.7523 18.3529C86.0665 18.0391 86.4986 17.8823 87.0486 17.8823C87.6247 17.8823 88.0568 18.0391 88.3448 18.3529C88.6591 18.6404 88.8162 19.0849 88.8162 19.6862V23.2548L88.3841 22.5489C88.8031 21.111 89.628 19.9607 90.8588 19.098C92.0897 18.2352 93.5693 17.8038 95.2977 17.8038C96.9998 17.8038 98.4794 18.2091 99.7365 19.0195C100.993 19.8038 101.975 20.9411 102.683 22.4313C103.39 23.8953 103.743 25.647 103.743 27.6862C103.743 29.6993 103.39 31.464 102.683 32.9803C102.002 34.4705 101.02 35.6208 99.7365 36.4313C98.4794 37.2156 96.9998 37.6078 95.2977 37.6078C93.5955 37.6078 92.1289 37.1764 90.8981 36.3136C89.6673 35.4509 88.8424 34.3136 88.4234 32.9019H88.8555V42.7842C88.8555 43.3594 88.6984 43.8038 88.3841 44.1176C88.0699 44.4313 87.6247 44.5882 87.0486 44.5882ZM94.4727 34.7842C95.5988 34.7842 96.5808 34.5097 97.4188 33.9607C98.283 33.4117 98.9508 32.6143 99.4222 31.5685C99.8936 30.5228 100.129 29.2287 100.129 27.6862C100.129 25.3855 99.6186 23.6339 98.5973 22.4313C97.576 21.2287 96.2011 20.6274 94.4727 20.6274C93.3205 20.6274 92.3123 20.9019 91.4481 21.4509C90.6101 21.9738 89.9554 22.7581 89.484 23.8038C89.0388 24.8496 88.8162 26.1437 88.8162 27.6862C88.8162 29.9868 89.3269 31.7516 90.3482 32.9803C91.3695 34.1829 92.7444 34.7842 94.4727 34.7842Z" fill="#E9E9E9"/>
<path d="M116.506 37.6078C114.437 37.6078 112.657 37.2156 111.164 36.4313C109.697 35.6208 108.558 34.4836 107.746 33.0195C106.935 31.5293 106.529 29.7777 106.529 27.7646C106.529 25.7777 106.922 24.0391 107.707 22.5489C108.519 21.0587 109.619 19.8953 111.007 19.0587C112.421 18.2221 114.032 17.8038 115.838 17.8038C117.122 17.8038 118.274 18.0261 119.295 18.4705C120.343 18.8888 121.233 19.5032 121.966 20.3136C122.7 21.1241 123.25 22.1176 123.616 23.294C124.009 24.4444 124.205 25.7516 124.205 27.2156C124.205 27.6339 124.074 27.9607 123.813 28.196C123.577 28.4051 123.223 28.5097 122.752 28.5097H109.318V26.2352H121.849L121.181 26.7842C121.181 25.4248 120.971 24.2744 120.552 23.3333C120.159 22.3659 119.57 21.6339 118.785 21.1372C118.025 20.6404 117.069 20.3921 115.917 20.3921C114.66 20.3921 113.586 20.6927 112.696 21.294C111.806 21.8692 111.125 22.6927 110.653 23.7646C110.182 24.8104 109.946 26.0261 109.946 27.4117V27.647C109.946 29.9999 110.509 31.7777 111.635 32.9803C112.761 34.1829 114.385 34.7842 116.506 34.7842C117.344 34.7842 118.195 34.6797 119.06 34.4705C119.95 34.2614 120.801 33.8823 121.613 33.3333C122.006 33.098 122.359 32.9934 122.673 33.0195C123.014 33.0195 123.289 33.1241 123.498 33.3333C123.708 33.5163 123.839 33.7516 123.891 34.0391C123.944 34.3006 123.904 34.5882 123.773 34.9019C123.642 35.2156 123.394 35.4901 123.027 35.7254C122.163 36.3267 121.128 36.7973 119.924 37.1372C118.745 37.4509 117.606 37.6078 116.506 37.6078Z" fill="#E9E9E9"/>
<path d="M134.072 37.6078C132.763 37.6078 131.571 37.3463 130.498 36.8234C129.45 36.3006 128.625 35.5947 128.023 34.7058C127.447 33.8169 127.159 32.8234 127.159 31.7254C127.159 30.3136 127.512 29.2025 128.219 28.3921C128.926 27.5816 130.118 27.0065 131.794 26.6666C133.47 26.3006 135.722 26.1176 138.55 26.1176H140.396V28.3921H138.629C136.612 28.3921 135.015 28.4836 133.836 28.6666C132.684 28.8496 131.872 29.1764 131.401 29.647C130.93 30.0914 130.694 30.7189 130.694 31.5293C130.694 32.5489 131.047 33.3855 131.755 34.0391C132.488 34.6927 133.483 35.0195 134.74 35.0195C135.735 35.0195 136.612 34.7842 137.372 34.3136C138.131 33.8169 138.734 33.1633 139.179 32.3529C139.624 31.5163 139.846 30.562 139.846 29.4901V24.9803C139.846 23.4378 139.532 22.3267 138.904 21.647C138.275 20.9411 137.215 20.5882 135.722 20.5882C134.858 20.5882 133.967 20.7058 133.051 20.9411C132.134 21.1764 131.178 21.5424 130.183 22.0391C129.79 22.2221 129.45 22.2875 129.162 22.2352C128.874 22.1568 128.638 21.9999 128.455 21.7646C128.298 21.5032 128.206 21.2287 128.18 20.9411C128.18 20.6274 128.245 20.3267 128.376 20.0391C128.533 19.7516 128.795 19.5424 129.162 19.4117C130.314 18.8365 131.453 18.4313 132.579 18.196C133.732 17.9346 134.805 17.8038 135.8 17.8038C137.503 17.8038 138.904 18.0784 140.004 18.6274C141.103 19.1502 141.928 19.9738 142.478 21.098C143.028 22.196 143.303 23.6078 143.303 25.3333V35.6862C143.303 36.2875 143.159 36.745 142.871 37.0587C142.583 37.3725 142.164 37.5293 141.614 37.5293C141.09 37.5293 140.671 37.3725 140.357 37.0587C140.069 36.745 139.925 36.2875 139.925 35.6862V32.9019H140.279C140.069 33.8692 139.676 34.7058 139.1 35.4117C138.524 36.1176 137.804 36.6666 136.94 37.0587C136.102 37.4248 135.146 37.6078 134.072 37.6078Z" fill="#E9E9E9"/>
<path d="M150.028 37.5293C149.478 37.5293 149.046 37.3725 148.732 37.0587C148.418 36.745 148.261 36.2875 148.261 35.6862V11.1372C148.261 10.5359 148.418 10.0914 148.732 9.80384C149.046 9.49011 149.478 9.33325 150.028 9.33325C150.604 9.33325 151.05 9.49011 151.364 9.80384C151.678 10.0914 151.835 10.5359 151.835 11.1372V26.5882H151.914L159.613 19.098C160.006 18.7058 160.359 18.4051 160.674 18.196C160.988 17.9868 161.394 17.8823 161.891 17.8823C162.389 17.8823 162.769 18.013 163.031 18.2744C163.292 18.5097 163.423 18.8234 163.423 19.2156C163.423 19.5816 163.24 19.9476 162.873 20.3136L154.703 28.2352V26.4705L163.62 35.0587C163.986 35.4248 164.157 35.8038 164.13 36.196C164.13 36.5882 163.986 36.9149 163.698 37.1764C163.436 37.4117 163.083 37.5293 162.638 37.5293C162.114 37.5293 161.682 37.4248 161.341 37.2156C161.027 37.0065 160.661 36.6797 160.242 36.2352L151.914 28.3921H151.835V35.6862C151.835 36.915 151.233 37.5293 150.028 37.5293Z" fill="#E9E9E9"/>
</g>
</svg>
