<svg width="101" height="30" viewBox="0 0 101 30" fill="none" xmlns="http://www.w3.org/2000/svg">
<g clip-path="url(#clip0_1563_6462)">
<rect width="101" height="30" rx="8" fill="white"/>
<path d="M80.0032 22.5002H81.3992V13.1239H80.0032V22.5002ZM92.5772 16.5017L90.9769 20.5666H90.9291L89.2682 16.5017H87.7645L90.2558 22.183L88.8351 25.3434H90.291L94.1296 16.502L92.5772 16.5017ZM84.6599 21.4352C84.2035 21.4352 83.5654 21.2058 83.5654 20.6389C83.5654 19.9153 84.3599 19.6378 85.0452 19.6378C85.6587 19.6378 85.9482 19.7703 86.3208 19.9513C86.2123 20.82 85.4664 21.4352 84.6599 21.4352L84.6599 21.4352ZM84.829 16.2966C83.8182 16.2966 82.7716 16.7431 82.3384 17.7322L83.5774 18.2507C83.8422 17.7322 84.3352 17.5635 84.8529 17.5635C85.5748 17.5635 86.3088 17.9973 86.3207 18.7696V18.866C86.0679 18.7212 85.5262 18.5042 84.8649 18.5042C83.5287 18.5042 82.1694 19.2397 82.1694 20.6149C82.1694 21.8694 83.2646 22.6777 84.4916 22.6777C85.4297 22.6777 85.9482 22.2555 86.2721 21.7607H86.3207V22.4849H87.6689V18.8899C87.6689 17.2253 86.4285 16.2966 84.829 16.2966V16.2966ZM76.2013 17.6431H74.2158V14.4293H76.2013C77.245 14.4293 77.8375 15.2954 77.8375 16.0362C77.8375 16.7628 77.2449 17.6431 76.2013 17.6431ZM76.1654 13.1241H72.8204V22.5005H74.2158V18.9483H76.1655C77.7126 18.9483 79.2336 17.8257 79.2336 16.0365C79.2336 14.2477 77.7126 13.1245 76.1655 13.1245L76.1654 13.1241ZM57.9254 21.4368C56.9609 21.4368 56.1538 20.627 56.1538 19.5158C56.1538 18.3917 56.9609 17.5705 57.9254 17.5705C58.8775 17.5705 59.6248 18.3918 59.6248 19.5158C59.6248 20.627 58.8775 21.4368 57.9254 21.4368ZM59.5283 17.0266H59.48C59.1668 16.6521 58.5639 16.3138 57.805 16.3138C56.2137 16.3138 54.7554 17.7156 54.7554 19.5158C54.7554 21.3038 56.2137 22.6933 57.805 22.6933C58.5639 22.6933 59.1668 22.3549 59.48 21.9685H59.5283V22.4273C59.5283 23.6481 58.8775 24.3002 57.8289 24.3002C56.9735 24.3002 56.4431 23.6841 56.226 23.1646L55.0089 23.672C55.3581 24.5175 56.2859 25.557 57.829 25.557C59.4684 25.557 60.8545 24.5901 60.8545 22.2339V16.507H59.5284L59.5283 17.0266ZM61.8189 22.5H63.2164V13.1236H61.8189V22.5ZM65.2776 19.4069C65.2416 18.1744 66.2302 17.5462 66.941 17.5462C67.4956 17.5462 67.9652 17.8242 68.1225 18.2227L65.2776 19.4069ZM69.6164 18.3434C69.3513 17.6309 68.5439 16.3138 66.8927 16.3138C65.2533 16.3138 63.8914 17.6066 63.8914 19.5036C63.8914 21.2918 65.2416 22.6934 67.0491 22.6934C68.5074 22.6934 69.3514 21.7995 69.7011 21.2798L68.6163 20.5547C68.2546 21.0865 67.7607 21.4368 67.0491 21.4368C66.3384 21.4368 65.8319 21.1105 65.507 20.4701L69.7611 18.7062L69.6164 18.3434ZM35.7202 17.2925V18.6457H38.9503C38.8538 19.4069 38.6008 19.9626 38.215 20.3493C37.7448 20.8204 37.0096 21.3401 35.7202 21.3401C33.7314 21.3401 32.1768 19.7332 32.1768 17.7396C32.1768 15.746 33.7314 14.1389 35.7202 14.1389C36.7929 14.1389 37.5762 14.5619 38.1547 15.1056L39.1072 14.1508C38.2994 13.3777 37.2269 12.7856 35.7202 12.7856C32.9959 12.7856 30.7059 15.0089 30.7059 17.7396C30.7059 20.4701 32.9959 22.6934 35.7202 22.6934C37.1904 22.6934 38.2994 22.21 39.1671 21.3039C40.059 20.4097 40.3363 19.1532 40.3363 18.1381C40.3363 17.8243 40.312 17.5343 40.2638 17.2925H35.7202ZM44.009 21.4368C43.0445 21.4368 42.2129 20.6393 42.2129 19.5036C42.2129 18.3557 43.0445 17.5706 44.009 17.5706C44.973 17.5706 45.8047 18.3557 45.8047 19.5036C45.8047 20.6393 44.973 21.4368 44.009 21.4368ZM44.009 16.3138C42.2488 16.3138 40.8147 17.6549 40.8147 19.5036C40.8147 21.3401 42.2488 22.6934 44.009 22.6934C45.7685 22.6934 47.2028 21.3401 47.2028 19.5036C47.2028 17.6549 45.7685 16.3138 44.009 16.3138ZM50.9763 21.4368C50.0125 21.4368 49.1806 20.6393 49.1806 19.5036C49.1806 18.3557 50.0126 17.5706 50.9763 17.5706C51.9407 17.5706 52.7721 18.3557 52.7721 19.5036C52.7721 20.6393 51.9407 21.4368 50.9763 21.4368ZM50.9763 16.3138C49.2168 16.3138 47.7827 17.6549 47.7827 19.5036C47.7827 21.3401 49.2168 22.6934 50.9763 22.6934C52.7365 22.6934 54.1705 21.3401 54.1705 19.5036C54.1705 17.6549 52.7365 16.3138 50.9763 16.3138Z" fill="#242424"/>
<path d="M15.499 14.5682L7.53461 23.0429C7.53491 23.0446 7.5355 23.0461 7.53579 23.0479C7.78005 23.9682 8.61851 24.6457 9.61358 24.6457C10.0114 24.6457 10.3848 24.5379 10.7051 24.3487L10.7305 24.3337L19.696 19.1475L15.4994 14.5681" fill="#EB3131"/>
<path d="M23.5571 13.1255L23.5495 13.1203L19.6788 10.8708L15.3181 14.7609L19.694 19.1471L23.5442 16.9201C24.2192 16.5547 24.6775 15.8414 24.6775 15.0187C24.6775 14.2019 24.2254 13.4921 23.5571 13.1256" fill="#F6B60B"/>
<path d="M7.53349 6.95825C7.48561 7.13525 7.46045 7.32065 7.46045 7.51317V22.4887C7.46045 22.6809 7.48532 22.8669 7.5338 23.0433L15.7732 14.7851L7.5338 6.95847" fill="#5778C5"/>
<path d="M15.5579 15.0009L19.6806 10.8693L10.7252 5.6642C10.3997 5.46876 10.0198 5.35596 9.61327 5.35596C8.6182 5.35596 7.7786 6.03479 7.5343 6.95611C7.534 6.95701 7.534 6.95763 7.534 6.95842L15.5579 15.0011" fill="#3BAD49"/>
<path d="M35.4583 7.33616H33.2759V7.87757H34.9113C34.8668 8.31939 34.6915 8.66626 34.3957 8.91821C34.1 9.1702 33.7224 9.29672 33.2759 9.29672C32.7861 9.29672 32.3711 9.12565 32.031 8.78584C31.6978 8.43897 31.5283 8.01003 31.5283 7.49326C31.5283 6.97652 31.6978 6.54758 32.031 6.20074C32.3711 5.86092 32.7861 5.69098 33.2759 5.69098C33.5272 5.69098 33.7669 5.73433 33.9866 5.82927C34.2064 5.92414 34.3829 6.05659 34.5208 6.22654L34.9358 5.81052C34.7476 5.59603 34.5091 5.432 34.2133 5.31246C33.9176 5.19291 33.609 5.13554 33.2758 5.13554C32.6224 5.13554 32.0684 5.36286 31.6159 5.81639C31.1635 6.27104 30.9368 6.8312 30.9368 7.49327C30.9368 8.15534 31.1635 8.71672 31.6159 9.17026C32.0683 9.6237 32.6224 9.85112 33.2758 9.85112C33.962 9.85112 34.5091 9.63077 34.9299 9.18309C35.3005 8.8105 35.4898 8.30659 35.4898 7.67614C35.4898 7.56949 35.4769 7.4558 35.4582 7.33625L35.4583 7.33616ZM36.3038 5.23622V9.75025H38.9327V9.19594H36.8824V7.76398H38.7317V7.22256H36.8824V5.79172H38.9327V5.2362L36.3038 5.23622ZM42.6191 5.79174V5.23622H39.5248V5.79174H40.7827V9.75024H41.3613V5.79174H42.6191ZM45.4204 5.23622H44.8418V9.75025H45.4204V5.23622ZM49.2397 5.79174V5.23622H46.1455V5.79174H47.4032V9.75024H47.9819V5.79174H49.2397ZM55.0786 5.82338C54.6321 5.36282 54.085 5.1355 53.4315 5.1355C52.7769 5.1355 52.2299 5.36282 51.7833 5.81635C51.3368 6.26402 51.1171 6.82532 51.1171 7.49323C51.1171 8.16115 51.3368 8.72253 51.7833 9.17022C52.2299 9.62366 52.7769 9.85108 53.4315 9.85108C54.0791 9.85108 54.632 9.62368 55.0786 9.17022C55.5252 8.72255 55.7449 8.1612 55.7449 7.49323C55.7449 6.83117 55.5252 6.27097 55.0786 5.82338ZM52.1983 6.2007C52.5315 5.86088 52.9406 5.69094 53.4315 5.69094C53.9213 5.69094 54.3305 5.86089 54.6578 6.2007C54.9909 6.53467 55.1545 6.97054 55.1545 7.49322C55.1545 8.01709 54.9909 8.45178 54.6578 8.7858C54.3305 9.12562 53.9213 9.29669 53.4315 9.29669C52.9406 9.29669 52.5315 9.12561 52.1983 8.7858C51.8721 8.44478 51.7085 8.01708 51.7085 7.49322C51.7085 6.97055 51.8721 6.54169 52.1983 6.2007ZM57.1196 6.93899L57.0951 6.06823H57.1196L59.4084 9.75021H60.0128V5.23617H59.4341V7.87752L59.4587 8.74828H59.4341L57.2459 5.23617H56.541V9.75021H57.1196V6.93899Z" fill="#242424" stroke="#242424" stroke-width="0.26666" stroke-miterlimit="10"/>
</g>
<defs>
<clipPath id="clip0_1563_6462">
<rect width="101" height="30" fill="white"/>
</clipPath>
</defs>
</svg>
