<svg width="131" height="40" viewBox="0 0 131 40" fill="none" xmlns="http://www.w3.org/2000/svg">
<mask id="mask0_2177_925" style="mask-type:alpha" maskUnits="userSpaceOnUse" x="0" y="0" width="131" height="40">
<rect width="131" height="40" fill="#D9D9D9"/>
</mask>
<g mask="url(#mask0_2177_925)">
<path d="M33.8263 1.76244C39.0494 7.66736 29.7147 35.9709 21.3812 39.5012C13.0478 43.0314 -2.61754 25.3189 0.49402 15.8849C3.60558 6.45089 28.6075 -4.14209 33.8263 1.76244Z" fill="#FFBD06"/>
<path d="M21.1797 30.0862C19.9455 30.0862 18.91 29.8666 18.0733 29.4273C17.2575 28.9881 16.6404 28.3502 16.2221 27.5136C15.8246 26.677 15.6259 25.6522 15.6259 24.4391V16.7215H13.6178C13.2412 16.7215 12.9484 16.6273 12.7392 16.4391C12.53 16.23 12.4254 15.9581 12.4254 15.6234C12.4254 15.2679 12.53 14.996 12.7392 14.8077C12.9484 14.6195 13.2412 14.5254 13.6178 14.5254H15.6259V11.1058C15.6259 10.6247 15.7514 10.2692 16.0024 10.0391C16.2534 9.78812 16.609 9.66263 17.0692 9.66263C17.5294 9.66263 17.8746 9.78812 18.1047 10.0391C18.3557 10.2692 18.4812 10.6247 18.4812 11.1058V14.5254H22.2779C22.6753 14.5254 22.9786 14.6195 23.1878 14.8077C23.397 14.996 23.5016 15.2679 23.5016 15.6234C23.5016 15.9581 23.397 16.23 23.1878 16.4391C22.9786 16.6273 22.6753 16.7215 22.2779 16.7215H18.4812V24.1881C18.4812 25.3384 18.7218 26.2064 19.2029 26.792C19.684 27.3777 20.4789 27.6705 21.5876 27.6705C21.985 27.6705 22.3197 27.6391 22.5916 27.5764C22.8636 27.4927 23.1041 27.4509 23.3133 27.4509C23.5016 27.43 23.6585 27.4927 23.784 27.6391C23.9304 27.7855 24.0036 28.0574 24.0036 28.4548C24.0036 28.7476 23.9513 29.0195 23.8467 29.2705C23.7631 29.5005 23.5853 29.6574 23.3133 29.7411C23.0623 29.8247 22.7276 29.8979 22.3092 29.9607C21.8909 30.0443 21.5144 30.0862 21.1797 30.0862Z" fill="black"/>
<path d="M32.4603 30.0862C30.8077 30.0862 29.3853 29.7724 28.193 29.145C27.0216 28.4966 26.1116 27.5868 25.4632 26.4156C24.8147 25.2234 24.4905 23.8221 24.4905 22.2116C24.4905 20.6221 24.8042 19.2313 25.4318 18.0391C26.0802 16.8469 26.9588 15.9162 28.0675 15.2469C29.197 14.5777 30.4835 14.243 31.9269 14.243C32.9519 14.243 33.8723 14.4208 34.6881 14.7764C35.5248 15.111 36.236 15.6025 36.8217 16.2509C37.4074 16.8992 37.8467 17.694 38.1396 18.6352C38.4533 19.5554 38.6102 20.6012 38.6102 21.7724C38.6102 22.1071 38.5056 22.3685 38.2964 22.5567C38.1082 22.7241 37.8258 22.8077 37.4493 22.8077H26.7182V20.9881H36.7276L36.1942 21.4273C36.1942 20.3398 36.0268 19.4195 35.6921 18.6666C35.3784 17.8927 34.9077 17.3071 34.2802 16.9097C33.6735 16.5123 32.91 16.3136 31.9896 16.3136C30.9855 16.3136 30.1279 16.5541 29.4167 17.0352C28.7055 17.4953 28.1616 18.1541 27.7851 19.0117C27.4085 19.8483 27.2203 20.8208 27.2203 21.9293V22.1175C27.2203 23.9999 27.67 25.4221 28.5695 26.3842C29.469 27.3463 30.7659 27.8273 32.4603 27.8273C33.1297 27.8273 33.8095 27.7437 34.4998 27.5764C35.211 27.409 35.8909 27.1058 36.5393 26.6666C36.8531 26.4783 37.1355 26.3947 37.3865 26.4156C37.6584 26.4156 37.8781 26.4992 38.0454 26.6666C38.2128 26.813 38.3174 27.0012 38.3592 27.2313C38.401 27.4404 38.3697 27.6705 38.2651 27.9215C38.1605 28.1724 37.9618 28.392 37.6689 28.5803C36.9786 29.0613 36.1523 29.4378 35.1901 29.7097C34.2488 29.9607 33.3388 30.0862 32.4603 30.0862Z" fill="black"/>
<path d="M43.1028 30.0234C42.6635 30.0234 42.3184 29.8979 42.0674 29.6469C41.8163 29.396 41.6908 29.03 41.6908 28.5489V15.7489C41.6908 15.2679 41.8163 14.9123 42.0674 14.6822C42.3184 14.4313 42.6635 14.3058 43.1028 14.3058C43.5421 14.3058 43.8768 14.4313 44.1069 14.6822C44.3579 14.9123 44.4834 15.2679 44.4834 15.7489V18.4156L44.1383 17.8509C44.5357 16.7005 45.1737 15.8116 46.0523 15.1842C46.9517 14.5567 48.0186 14.243 49.2527 14.243C50.5497 14.243 51.5956 14.5567 52.3905 15.1842C53.1854 15.7907 53.7188 16.7215 53.9907 17.9764H53.5514C53.928 16.826 54.5973 15.9162 55.5596 15.2469C56.5427 14.5777 57.6828 14.243 58.9797 14.243C60.1302 14.243 61.0715 14.4731 61.8036 14.9332C62.5567 15.3724 63.1215 16.0417 63.498 16.9411C63.8745 17.8195 64.0628 18.9489 64.0628 20.3293V28.5489C64.0628 29.03 63.9373 29.396 63.6863 29.6469C63.4353 29.8979 63.0901 30.0234 62.6508 30.0234C62.1906 30.0234 61.835 29.8979 61.584 29.6469C61.333 29.396 61.2075 29.03 61.2075 28.5489V20.4548C61.2075 19.1162 60.9774 18.1332 60.5172 17.5058C60.057 16.8783 59.283 16.5646 58.1953 16.5646C57.0029 16.5646 56.0511 16.9829 55.3399 17.8195C54.6496 18.6352 54.3045 19.7646 54.3045 21.2077V28.5489C54.3045 29.03 54.179 29.396 53.928 29.6469C53.6979 29.8979 53.3527 30.0234 52.8925 30.0234C52.4323 30.0234 52.0767 29.8979 51.8257 29.6469C51.5747 29.396 51.4491 29.03 51.4491 28.5489V20.4548C51.4491 19.1162 51.2191 18.1332 50.7589 17.5058C50.2986 16.8783 49.5247 16.5646 48.4369 16.5646C47.2446 16.5646 46.2928 16.9829 45.5816 17.8195C44.8913 18.6352 44.5462 19.7646 44.5462 21.2077V28.5489C44.5462 29.5319 44.065 30.0234 43.1028 30.0234Z" fill="black"/>
<path d="M69.5327 35.6705C69.0935 35.6705 68.7483 35.545 68.4973 35.294C68.2463 35.043 68.1208 34.6875 68.1208 34.2273V15.7489C68.1208 15.2679 68.2463 14.9123 68.4973 14.6822C68.7483 14.4313 69.0935 14.3058 69.5327 14.3058C69.9929 14.3058 70.3381 14.4313 70.5682 14.6822C70.8192 14.9123 70.9447 15.2679 70.9447 15.7489V18.6038L70.5996 18.0391C70.9343 16.8888 71.5932 15.9685 72.5763 15.2783C73.5595 14.5881 74.7414 14.243 76.122 14.243C77.4816 14.243 78.6635 14.5672 79.6676 15.2156C80.6717 15.843 81.4561 16.7528 82.0209 17.945C82.5857 19.1162 82.8681 20.5175 82.8681 22.1489C82.8681 23.7594 82.5857 25.1711 82.0209 26.3842C81.477 27.5764 80.6926 28.4966 79.6676 29.145C78.6635 29.7724 77.4816 30.0862 76.122 30.0862C74.7623 30.0862 73.5909 29.7411 72.6077 29.0509C71.6246 28.3607 70.9656 27.4509 70.6309 26.3215H70.9761V34.2273C70.9761 34.6875 70.8506 35.043 70.5996 35.294C70.3485 35.545 69.9929 35.6705 69.5327 35.6705ZM75.463 27.8273C76.3625 27.8273 77.1469 27.6077 77.8163 27.1685C78.5066 26.7293 79.04 26.0914 79.4166 25.2548C79.7931 24.4182 79.9814 23.3829 79.9814 22.1489C79.9814 20.3084 79.5735 18.9071 78.7577 17.945C77.9418 16.9829 76.8436 16.5018 75.463 16.5018C74.5426 16.5018 73.7373 16.7215 73.047 17.1607C72.3776 17.579 71.8547 18.2064 71.4781 19.043C71.1225 19.8796 70.9447 20.9149 70.9447 22.1489C70.9447 23.9894 71.3526 25.4012 72.1684 26.3842C72.9842 27.3463 74.0824 27.8273 75.463 27.8273Z" fill="black"/>
<path d="M93.063 30.0862C91.4104 30.0862 89.988 29.7724 88.7957 29.145C87.6243 28.4966 86.7143 27.5868 86.0659 26.4156C85.4174 25.2234 85.0932 23.8221 85.0932 22.2116C85.0932 20.6221 85.4069 19.2313 86.0345 18.0391C86.6829 16.8469 87.5615 15.9162 88.6702 15.2469C89.7997 14.5777 91.0862 14.243 92.5296 14.243C93.5546 14.243 94.475 14.4208 95.2908 14.7764C96.1275 15.111 96.8387 15.6025 97.4244 16.2509C98.0101 16.8992 98.4494 17.694 98.7423 18.6352C99.056 19.5554 99.2129 20.6012 99.2129 21.7724C99.2129 22.1071 99.1083 22.3685 98.8991 22.5567C98.7109 22.7241 98.4285 22.8077 98.052 22.8077H87.3209V20.9881H97.3303L96.7969 21.4273C96.7969 20.3398 96.6295 19.4195 96.2948 18.6666C95.9811 17.8927 95.5104 17.3071 94.8829 16.9097C94.2762 16.5123 93.5127 16.3136 92.5923 16.3136C91.5882 16.3136 90.7306 16.5541 90.0194 17.0352C89.3082 17.4953 88.7643 18.1541 88.3878 19.0117C88.0112 19.8483 87.823 20.8208 87.823 21.9293V22.1175C87.823 23.9999 88.2727 25.4221 89.1722 26.3842C90.0717 27.3463 91.3686 27.8273 93.063 27.8273C93.7324 27.8273 94.4122 27.7437 95.1025 27.5764C95.8137 27.409 96.4936 27.1058 97.142 26.6666C97.4558 26.4783 97.7382 26.3947 97.9892 26.4156C98.2611 26.4156 98.4808 26.4992 98.6481 26.6666C98.8155 26.813 98.9201 27.0012 98.9619 27.2313C99.0037 27.4404 98.9724 27.6705 98.8678 27.9215C98.7632 28.1724 98.5645 28.392 98.2716 28.5803C97.5813 29.0613 96.755 29.4378 95.7928 29.7097C94.8515 29.9607 93.9415 30.0862 93.063 30.0862Z" fill="black"/>
<path d="M107.094 30.0862C106.048 30.0862 105.097 29.877 104.239 29.4587C103.402 29.0404 102.743 28.4757 102.262 27.7646C101.802 27.0535 101.572 26.2587 101.572 25.3803C101.572 24.2509 101.854 23.362 102.419 22.7136C102.984 22.0652 103.936 21.6051 105.274 21.3332C106.613 21.0404 108.412 20.894 110.671 20.894H112.146V22.7136H110.734C109.123 22.7136 107.847 22.7868 106.906 22.9332C105.986 23.0796 105.337 23.3411 104.961 23.7175C104.584 24.0731 104.396 24.575 104.396 25.2234C104.396 26.0391 104.678 26.7084 105.243 27.2313C105.829 27.7541 106.624 28.0156 107.628 28.0156C108.423 28.0156 109.123 27.8273 109.73 27.4509C110.337 27.0535 110.818 26.5306 111.173 25.8822C111.529 25.213 111.707 24.4496 111.707 23.592V19.9842C111.707 18.7502 111.456 17.8613 110.954 17.3175C110.452 16.7528 109.604 16.4705 108.412 16.4705C107.722 16.4705 107.011 16.5646 106.278 16.7528C105.546 16.9411 104.783 17.2339 103.988 17.6313C103.674 17.7777 103.402 17.83 103.172 17.7881C102.942 17.7254 102.754 17.5999 102.607 17.4116C102.482 17.2025 102.409 16.9829 102.388 16.7528C102.388 16.5018 102.44 16.2613 102.545 16.0313C102.67 15.8012 102.879 15.6339 103.172 15.5293C104.092 15.0692 105.002 14.745 105.902 14.5567C106.822 14.3476 107.68 14.243 108.475 14.243C109.835 14.243 110.954 14.4626 111.832 14.9018C112.711 15.3201 113.37 15.979 113.809 16.8783C114.248 17.7567 114.468 18.8862 114.468 20.2666V28.5489C114.468 29.03 114.353 29.396 114.123 29.6469C113.893 29.8979 113.558 30.0234 113.119 30.0234C112.7 30.0234 112.366 29.8979 112.115 29.6469C111.885 29.396 111.769 29.03 111.769 28.5489V26.3215H112.052C111.885 27.0953 111.571 27.7646 111.111 28.3293C110.65 28.894 110.075 29.3332 109.385 29.6469C108.715 29.9398 107.952 30.0862 107.094 30.0862Z" fill="black"/>
<path d="M119.84 30.0234C119.4 30.0234 119.055 29.8979 118.804 29.6469C118.553 29.396 118.428 29.03 118.428 28.5489V8.90969C118.428 8.42864 118.553 8.07309 118.804 7.84302C119.055 7.59204 119.4 7.46655 119.84 7.46655C120.3 7.46655 120.656 7.59204 120.907 7.84302C121.158 8.07309 121.283 8.42864 121.283 8.90969V21.2705H121.346L127.496 15.2783C127.81 14.9646 128.092 14.7241 128.343 14.5567C128.594 14.3894 128.918 14.3058 129.316 14.3058C129.713 14.3058 130.016 14.4103 130.226 14.6195C130.435 14.8077 130.539 15.0587 130.539 15.3724C130.539 15.6652 130.393 15.9581 130.1 16.2509L123.574 22.5881V21.1764L130.696 28.0469C130.989 28.3398 131.125 28.643 131.104 28.9567C131.104 29.2705 130.989 29.5319 130.759 29.7411C130.55 29.9293 130.267 30.0234 129.912 30.0234C129.494 30.0234 129.148 29.9398 128.876 29.7724C128.625 29.6051 128.333 29.3437 127.998 28.9881L121.346 22.7136H121.283V28.5489C121.283 29.5319 120.802 30.0234 119.84 30.0234Z" fill="black"/>
</g>
</svg>
