<svg width="773" height="717" viewBox="0 0 773 717" fill="none" xmlns="http://www.w3.org/2000/svg">
<path d="M12.063 435.216C10.9917 429.322 6.43887 430.125 7.51013 436.02C19.2939 493.087 43.9327 547.743 79.2841 593.558C83.0335 598.38 86.515 595.433 82.7657 590.878C47.9499 545.332 23.5789 491.479 12.063 435.216Z" fill="#E9E9E9"/>
<path d="M245.864 683.847C209.709 668.308 176.232 646.338 147.309 620.082C118.385 593.558 94.0138 562.211 74.999 527.649C72.3209 522.826 68.3037 524.702 70.9818 529.792C89.9966 564.89 114.903 596.505 144.095 623.565C173.554 650.357 207.299 672.327 243.989 688.402C246.667 689.474 248.274 688.938 248.81 687.866C249.345 686.526 248.274 684.919 245.864 683.847Z" fill="#E9E9E9"/>
<path d="M171.144 113.442C182.66 102.993 195.247 93.8835 208.37 85.31C221.493 76.7365 235.151 69.2347 249.346 62.5367C277.734 49.4085 307.997 40.2992 338.795 35.7445L350.311 34.137C354.061 33.6011 358.078 33.3332 361.827 33.0653C369.594 32.2615 377.36 32.2615 385.127 31.9936C388.876 31.9936 392.893 31.9936 396.643 32.2615L402.535 32.5295L408.427 33.0653C412.176 33.3332 416.193 33.6011 419.943 34.137L431.459 35.4766C442.439 37.0841 453.419 39.2275 464.4 41.9067C466.006 42.1746 467.346 42.7105 468.952 42.9784C475.916 44.8539 483.147 46.9972 490.11 49.4085C490.913 49.6764 491.717 49.9444 492.52 50.2123C493.859 50.7481 495.466 51.284 496.805 51.8198H497.073C498.412 52.3557 500.019 52.8915 501.358 53.4274L508.589 56.1066C510.196 56.6424 511.803 57.4462 513.409 57.982C518.766 60.3933 524.122 62.5367 529.21 65.2159C529.21 65.2159 529.478 65.2159 529.478 65.4838C531.085 66.2876 532.692 67.0914 534.031 67.8951C534.567 68.163 535.102 68.431 535.906 68.6989C537.245 69.2347 538.316 70.0385 539.655 70.5743C539.923 70.5743 539.923 70.8423 540.191 70.8423C545.279 73.5215 550.1 76.2007 554.921 79.4158C568.311 87.4534 580.898 96.2948 592.95 106.476C605.002 116.389 616.25 127.106 626.694 138.626L630.712 142.913L634.461 147.468C636.871 150.415 639.549 153.362 641.96 156.577L648.923 165.954C651.333 169.17 653.476 172.385 655.618 175.6L658.832 180.422C659.903 182.03 660.975 183.637 662.046 185.245C664.188 188.46 666.063 191.943 668.206 195.158C671.955 201.856 675.972 208.822 679.186 215.788C682.667 222.754 685.613 229.988 688.827 237.222C690.166 240.973 691.505 244.456 692.844 248.206C693.38 250.082 694.183 251.957 694.719 253.833L696.594 259.459L698.468 265.621C699.004 267.765 699.807 269.908 700.343 271.784L703.557 284.376C705.432 292.949 707.306 301.255 708.378 309.828C709.181 314.919 713.734 314.383 712.93 309.025C708.378 277.946 699.004 247.403 685.881 218.735C679.186 204.267 671.419 190.603 662.849 177.207C654.011 164.079 644.37 151.487 634.193 139.43C615.446 117.996 593.753 99.242 570.186 83.4346L569.918 83.1667C569.382 82.8987 568.847 82.3629 568.043 82.095C567.508 81.8271 566.972 81.5591 566.704 81.0233C565.633 80.2195 564.294 79.4158 563.223 78.8799C562.687 78.612 561.884 78.0762 561.348 77.8082C560.545 77.2724 559.741 76.7365 558.67 76.2007C557.599 75.3969 556.26 74.8611 555.188 74.0573C554.921 73.7894 554.653 73.7894 554.385 73.5215C547.69 69.5027 540.994 66.0197 534.031 62.5367C533.763 62.5367 533.495 62.2688 533.228 62.2688C532.156 61.7329 531.353 61.1971 530.282 60.9292C529.746 60.6612 528.943 60.3933 528.407 59.8575C527.604 59.5896 526.8 59.0537 525.997 58.7858C525.729 58.7858 525.461 58.5179 525.193 58.5179C524.122 57.982 522.783 57.4462 521.712 56.9103C520.373 56.3745 519.034 55.8386 517.694 55.3028C517.694 55.3028 517.427 55.3028 517.427 55.0349C507.25 50.4802 496.537 46.7293 485.825 43.2463C485.289 42.9784 484.753 42.9784 484.218 42.7105C483.682 42.4426 483.147 42.4426 482.611 42.1746C480.468 41.3709 478.058 40.835 475.916 40.2992C467.346 37.8879 458.776 35.7445 449.938 34.137C445.921 33.3332 442.171 32.5295 438.154 31.9936C437.886 31.9936 437.35 31.9936 437.083 31.7257C432.798 30.9219 428.245 30.3861 423.96 29.8502C423.692 29.8502 423.692 29.8502 423.424 29.8502L420.746 29.5823C418.871 29.3144 416.729 29.3144 414.854 29.0465C410.837 28.7786 407.088 28.5106 403.07 28.2427L391.287 27.9748C387.269 27.7069 383.52 27.9748 379.503 27.9748C375.486 27.9748 371.736 28.2427 367.719 28.5106C359.952 29.0465 351.918 29.5823 344.151 30.654C336.385 31.4578 328.618 33.0653 320.852 34.4049C317.102 35.2087 313.085 36.0124 309.336 37.0841C307.461 37.62 305.586 37.8879 303.444 38.4237L297.284 40.2992C282.019 44.5859 267.021 49.9444 252.559 56.3745C238.097 62.8046 224.171 70.3064 210.78 78.612C207.031 81.0233 203.282 83.4346 199.8 85.8459C196.051 88.2572 192.569 90.9364 189.088 93.6156C185.606 96.2948 182.124 98.9741 178.643 101.653C176.768 102.993 175.161 104.332 173.554 105.94L168.466 110.227C164.449 113.442 167.395 116.925 171.144 113.442Z" fill="#E9E9E9"/>
<path d="M40.4511 453.435C42.058 458.793 46.343 457.721 44.7362 452.363C39.6477 433.341 35.8983 413.782 34.0236 394.224C32.1489 374.666 31.8811 355.107 32.9524 335.549C34.0236 315.991 37.2374 296.433 41.7902 277.142C46.343 257.852 52.5027 239.097 60.0015 220.879C62.144 215.788 58.1268 213.913 55.7165 219.003C47.9499 237.49 41.7902 256.512 37.2374 276.07C32.6846 295.629 29.4708 315.455 28.3995 335.281C27.0605 355.107 27.3283 374.934 29.4708 394.76C31.6133 414.318 35.0949 434.144 40.4511 453.435Z" fill="#E9E9E9"/>
<path d="M207.031 53.4274C241.043 33.3333 278.537 19.1334 317.102 11.3637C336.385 7.34486 355.935 5.46941 375.486 4.66565C385.127 4.39773 395.036 4.66565 404.677 4.93357C409.498 5.20149 414.586 5.73733 419.407 6.00526C424.228 6.27318 429.048 7.07694 434.137 7.61279C439.761 8.41655 440.296 3.86188 434.672 3.05812C429.852 2.52227 424.763 1.71851 419.943 1.45059C415.122 0.914742 410.033 0.64682 405.213 0.378899C395.304 0.110977 385.395 -0.156945 375.486 0.110977C355.667 0.64682 335.849 2.79019 316.299 6.80902C277.198 14.5788 239.169 29.0465 204.888 49.1407C199.8 52.3557 202.21 56.1066 207.031 53.4274Z" fill="#E9E9E9"/>
<path d="M12.063 262.138C4.832 290.538 0.814802 319.474 0.0113622 348.409C-0.256451 354.571 4.29637 354.571 4.56419 348.409C5.36763 320.01 9.38483 291.074 16.348 263.21C17.9549 257.584 13.6698 256.244 12.063 262.138Z" fill="#E9E9E9"/>
<path d="M34.5593 209.894C45.8075 183.369 60.0016 158.185 76.8738 134.876C80.3554 130.053 76.8738 127.374 73.1244 132.196C56.2522 155.773 41.7903 181.226 30.2743 208.018C27.864 213.912 32.149 215.52 34.5593 209.894Z" fill="#E9E9E9"/>
<path d="M99.3701 151.487C103.12 146.128 107.405 140.77 111.422 135.679C115.707 130.589 119.992 125.498 124.277 120.676L131.24 113.442C133.65 111.031 135.793 108.619 138.203 106.476C143.024 101.921 147.844 97.3666 152.933 92.8119C157.218 89.061 154.272 85.5781 149.987 89.329C144.898 93.6157 140.078 98.4383 135.257 102.993C132.847 105.404 130.436 107.816 128.294 110.227L121.331 117.461C116.778 122.551 112.493 127.642 108.208 132.732C103.923 138.091 99.9058 143.181 95.8886 148.808C92.407 153.362 96.1564 156.041 99.3701 151.487Z" fill="#E9E9E9"/>
<path d="M70.4463 277.142C76.606 253.297 85.4438 230.256 96.692 208.554C99.1023 203.999 95.0851 201.856 92.6748 206.411C81.1588 228.38 72.3209 251.957 65.8934 276.07C64.8222 281.161 69.375 282.232 70.4463 277.142Z" fill="#E9E9E9"/>
<path d="M551.439 572.392C504.036 609.365 443.778 629.727 383.788 628.923C379.503 628.923 379.503 633.478 383.788 633.478C399.053 633.478 414.318 632.406 429.316 629.995C444.314 627.584 459.311 623.833 473.773 619.01C488.235 614.188 502.429 608.025 515.82 600.791C529.21 593.558 542.065 585.252 554.117 575.875C557.599 573.463 554.92 569.713 551.439 572.392Z" fill="#E9E9E9"/>
<path d="M559.473 531.4C558.67 530.596 557.063 530.596 555.724 531.668L549.564 537.562C547.422 539.437 545.279 541.313 543.137 543.188C540.994 545.064 538.584 546.939 536.441 548.815C534.031 550.69 531.888 552.565 529.478 554.173C520.105 561.139 510.196 567.033 500.019 572.66C490.645 577.75 480.736 582.037 470.559 585.788H470.291C455.562 591.146 440.029 595.165 424.495 597.844C424.228 597.844 423.692 597.844 423.424 598.112C422.085 598.38 421.014 598.38 419.675 598.648C413.247 599.452 406.82 600.256 400.124 600.523C388.608 601.059 377.092 601.059 365.576 599.988L361.291 599.72L357.006 599.184C354.06 598.916 351.382 598.38 348.436 598.112C342.812 597.04 336.92 596.237 331.296 594.897C325.672 593.825 320.048 591.95 314.424 590.342C311.746 589.539 308.8 588.467 306.122 587.663C304.783 587.127 303.444 586.859 302.105 586.324L298.088 584.716C286.036 579.893 274.252 574.267 263.004 567.837C259.79 565.961 257.38 569.712 260.594 571.856C301.301 595.969 348.972 608.025 396.107 605.614C407.891 605.078 419.675 604.006 431.191 601.595L435.476 600.791L439.761 599.72C442.707 598.916 445.653 598.38 448.331 597.576C453.955 595.969 459.847 594.361 465.203 592.486C470.827 590.61 476.183 588.467 481.807 586.324C487.164 583.912 492.52 581.501 497.876 578.822C503.232 576.143 508.321 573.195 513.409 570.248C518.498 567.033 523.318 564.086 528.139 560.603C538.852 552.833 549.029 544.528 558.402 535.15C560.544 533.543 560.277 532.203 559.473 531.4Z" fill="#E9E9E9"/>
<path d="M241.847 164.079C252.291 156.309 263.272 149.611 274.788 143.449C278.269 141.842 276.127 137.555 272.645 139.43C230.599 161.132 195.247 195.158 171.947 236.15C169.002 241.241 166.323 246.599 163.645 251.69C161.235 257.048 158.557 262.406 156.682 268.033C154.54 273.391 152.665 279.018 150.79 284.644C149.987 287.591 149.183 290.27 148.38 293.217C148.112 294.557 147.576 296.165 147.309 297.504L146.237 301.791C140.613 324.832 138.739 348.409 140.078 371.986C140.881 385.115 142.756 398.243 145.434 411.103C146.237 414.854 150.79 413.782 149.987 410.031C147.576 398.779 145.702 387.258 145.166 375.737L144.898 371.451C144.898 370.111 144.898 368.503 144.631 367.164L144.363 358.59L144.631 350.017C144.631 348.677 144.631 347.07 144.898 345.73L145.166 341.443C146.773 318.402 151.861 295.361 159.896 273.659C175.429 229.988 204.621 191.675 241.847 164.079Z" fill="#E9E9E9"/>
<path d="M162.038 161.936C171.412 151.219 181.589 141.038 192.301 131.929C203.014 122.819 214.53 114.246 226.581 106.476L231.134 103.529L235.687 100.85C238.901 98.9742 241.847 97.3666 245.061 95.4912L254.702 90.6686C257.916 89.0611 261.129 87.7214 264.343 86.1139L269.164 83.9705C270.771 83.1668 272.377 82.6309 274.252 81.8272C277.466 80.4876 280.947 79.148 284.161 78.0763C290.857 75.665 297.552 73.2537 304.515 71.6462C311.478 69.5028 318.441 68.1632 325.404 66.5556C328.886 65.7519 332.368 65.216 335.849 64.6802C337.724 64.4123 339.331 64.1443 341.205 63.8764L346.562 63.0727C360.756 61.1972 374.95 60.3934 389.144 60.3934L399.857 60.6614C403.338 60.6614 406.82 61.1972 410.569 61.4651L415.925 62.001C417.8 62.2689 419.407 62.5368 421.282 62.5368L431.994 63.8764C446.188 66.2877 460.115 69.2349 473.773 73.5216C489.038 78.3442 504.036 84.2385 518.23 91.2044C522.515 93.3478 524.39 89.329 520.373 87.1856C494.395 74.3254 466.542 65.216 437.886 60.3934L432.53 59.5897L427.174 58.7859C423.692 58.2501 419.943 57.7142 416.461 57.4463C409.23 56.9105 401.999 56.1067 394.768 56.1067H389.412H386.734H384.056L373.343 56.3746C369.861 56.3746 366.112 56.9105 362.631 57.1784C359.149 57.4463 355.4 57.7142 351.918 58.2501L341.205 59.5897L330.493 61.4651C327.011 62.001 323.262 62.8047 319.78 63.6085C316.299 64.4123 312.817 65.216 309.336 66.2877C295.409 70.0386 281.483 74.8612 268.36 80.4876C254.97 86.1139 242.115 92.812 229.795 100.314C217.476 107.816 205.692 116.389 194.444 125.498C182.124 135.947 170.341 147.2 159.628 159.257C155.611 162.74 159.092 165.687 162.038 161.936Z" fill="#E9E9E9"/>
<path d="M569.115 153.898C569.115 153.63 569.115 153.63 569.115 153.898C567.776 152.558 566.436 151.755 565.365 150.683C564.562 150.147 564.026 149.343 563.223 148.808C561.348 147.2 559.205 145.325 557.063 143.717C556.795 143.449 556.527 143.449 556.527 143.181C554.653 141.574 552.51 139.966 550.368 138.627C549.832 138.359 549.296 137.823 548.761 137.555C548.225 137.019 547.69 136.751 547.154 136.483C545.279 135.144 543.672 133.804 541.798 132.732C540.994 132.196 540.191 131.661 539.387 131.125C536.977 129.517 534.834 127.91 532.424 126.57C529.746 124.963 527.068 123.355 524.39 121.747C524.122 121.747 523.854 121.48 523.854 121.48C521.979 120.408 520.373 119.604 518.498 118.532C517.427 117.997 516.623 117.461 515.552 116.925C504.036 110.763 491.984 105.404 479.665 100.85C476.183 99.51 472.434 98.4383 468.952 97.3666C462.257 95.2232 455.294 93.3478 448.331 91.7402C446.992 91.4723 445.653 91.2044 444.314 90.9365C443.51 90.6686 442.707 90.6686 441.903 90.4006L440.296 90.1327C437.083 89.5969 433.869 88.7931 430.655 88.5252C429.584 88.2573 428.513 88.2573 427.441 87.9893L426.37 87.7214C423.424 87.1856 420.478 86.9176 417.8 86.6497C416.193 86.3818 414.586 86.3818 412.979 86.1139H412.444C409.498 85.846 406.552 85.578 403.338 85.3101C403.07 85.3101 403.07 85.3101 403.07 85.3101C389.947 84.7743 377.092 84.5064 363.97 85.846L359.149 86.1139C357.542 86.3818 355.935 86.3818 354.328 86.6497C351.115 87.1856 347.901 87.4535 344.687 87.9893C338.26 89.061 331.832 90.1327 325.404 91.7402C318.977 93.0799 312.549 94.9553 306.39 96.8308C303.176 97.9024 300.23 98.9741 297.016 100.046L292.463 101.653L287.911 103.529C280.947 106.208 274.252 109.155 267.557 112.37L257.648 117.461C254.434 119.068 251.22 120.944 248.006 122.819C244.257 124.963 246.667 128.981 250.417 126.838C272.645 113.71 297.016 103.797 321.923 97.6345L331.296 95.4911C334.51 94.6874 337.724 94.4195 340.938 93.6157L345.758 92.8119L350.579 92.2761C353.793 92.0082 357.006 91.4723 360.22 91.2044C366.648 90.6686 373.075 90.1327 379.503 90.1327C382.717 90.1327 385.93 89.8648 389.144 90.1327L398.785 90.4006C406.284 90.6686 414.051 91.4723 421.549 92.2761C425.567 92.8119 429.852 93.3478 433.869 94.1515C434.94 94.4195 436.011 94.4195 437.083 94.6874C437.618 94.6874 438.422 94.9553 438.957 94.9553C440.029 95.2232 441.368 95.4911 442.439 95.7591L446.456 96.5628C449.67 97.3666 452.616 97.9024 455.83 98.7062H456.097L464.935 101.118C473.773 103.797 482.343 107.012 490.913 110.495C501.09 114.782 511.267 119.872 520.908 125.23C521.176 125.498 521.444 125.498 521.712 125.766C524.39 127.374 527.068 128.981 529.478 130.321C531.889 131.928 534.299 133.268 536.441 134.876C538.852 136.483 540.994 138.091 543.404 139.698C544.744 140.77 546.083 141.574 547.422 142.645C547.689 142.645 547.69 142.913 547.957 142.913C549.029 143.717 550.1 144.521 550.903 145.057C551.707 145.593 552.51 146.396 553.314 146.932C553.581 147.2 553.849 147.468 554.385 147.736C558.67 151.219 562.955 154.702 566.972 158.185L567.24 158.453C570.454 161.4 573.667 164.347 576.613 167.294C578.22 168.634 579.827 168.634 580.631 167.83C581.434 167.026 581.434 165.419 579.827 163.811C575.81 159.792 572.596 156.845 569.115 153.898Z" fill="#E9E9E9"/>
<path d="M278.002 611.508C292.196 617.403 306.658 622.225 321.387 625.976C325.672 627.048 326.476 622.493 322.459 621.421C307.729 617.939 293.535 613.116 279.608 607.222C265.682 601.327 252.559 594.093 239.972 586.056C227.385 578.018 215.333 568.641 204.353 558.728C193.373 548.547 182.928 537.562 173.822 525.773C171.144 522.558 167.662 525.238 170.341 528.721C179.714 540.777 190.159 552.03 201.407 562.211C212.655 572.392 224.974 581.769 237.83 590.075C250.417 598.112 264.075 605.346 278.002 611.508Z" fill="#E9E9E9"/>
<path d="M105.798 257.584C111.422 242.044 118.385 226.773 126.419 212.305C128.83 208.286 124.812 205.875 122.402 210.162C114.1 224.897 107.137 240.169 101.245 255.976C95.3529 271.784 91.3357 288.127 88.122 304.738C81.9623 337.96 81.9623 371.718 86.7829 404.941C87.5863 409.763 92.1392 408.96 91.3357 404.137C86.5151 371.183 86.5151 337.96 92.6748 305.274C95.8885 289.466 99.9057 273.123 105.798 257.584Z" fill="#E9E9E9"/>
<path d="M116.242 365.556C115.439 335.549 119.724 305.542 128.83 276.874C137.935 248.206 151.861 221.146 169.805 197.033C172.483 193.55 168.734 190.871 166.056 194.354C147.844 218.735 133.65 246.331 124.277 275.535C115.171 304.738 110.618 335.549 111.422 365.824C111.689 369.843 116.242 369.843 116.242 365.556Z" fill="#E9E9E9"/>
<path d="M600.449 236.418C593.753 224.629 585.987 213.109 577.149 202.392C573.132 197.569 569.115 193.015 564.83 188.46C564.83 188.192 564.562 187.924 564.294 187.924C558.402 181.762 551.975 175.868 545.547 170.241C545.279 169.973 544.744 169.705 544.476 169.17C544.208 168.902 543.94 168.634 543.404 168.366C524.122 152.29 502.161 139.162 478.862 129.785C475.112 128.445 473.505 132.732 477.255 134.072C491.717 139.966 505.643 147.2 518.766 155.773C518.766 155.773 519.033 156.041 519.301 156.041C526.8 160.864 533.763 166.222 540.726 171.849C540.994 172.117 541.262 172.385 541.53 172.653C541.798 172.92 542.333 173.188 542.601 173.456C543.672 174.26 544.744 175.332 545.547 176.135C555.724 184.977 565.097 194.622 573.667 205.071C582.237 215.52 589.736 226.773 596.432 238.293C598.574 241.776 602.591 239.633 600.449 236.418Z" fill="#E9E9E9"/>
<path d="M181.321 575.339C177.839 572.124 174.626 575.339 178.107 578.554C194.712 594.093 212.923 608.025 232.473 619.546C236.49 621.957 238.901 617.938 234.884 615.527C215.601 604.274 197.658 590.61 181.321 575.339Z" fill="#E9E9E9"/>
<path d="M148.38 545.868C151.326 549.618 154.807 546.671 151.861 542.92C137.935 525.238 126.151 506.215 116.51 485.853C114.635 481.566 110.35 483.442 112.493 487.729C122.134 508.626 134.186 527.917 148.38 545.868Z" fill="#E9E9E9"/>
<path d="M117.849 417.265C122.134 437.359 129.097 457.185 137.667 475.94C138.471 477.815 140.078 478.351 141.149 477.815C142.22 477.28 142.756 475.94 141.952 473.797C133.382 455.31 126.687 436.02 122.402 416.193C121.331 412.175 116.778 412.978 117.849 417.265Z" fill="#E9E9E9"/>
<path d="M397.714 112.102C379.235 111.298 360.488 112.37 342.277 115.853C338.527 116.657 339.331 120.944 343.08 120.408C361.024 117.193 379.235 116.121 397.446 116.925C399.321 116.925 400.392 115.853 400.392 114.781C400.66 113.442 399.589 112.102 397.714 112.102Z" fill="#E9E9E9"/>
<path d="M216.672 538.098C219.618 540.777 222.564 537.294 219.886 534.883C206.763 522.29 194.712 508.359 184.802 493.355C182.66 490.14 178.911 492.551 181.053 495.766C190.962 511.038 203.282 525.238 216.672 538.098Z" fill="#E9E9E9"/>
<path d="M231.67 510.502C234.616 513.449 237.562 516.128 240.508 519.075C243.721 521.755 246.667 524.434 249.881 527.113C253.095 529.524 256.309 532.204 259.522 534.615C262.201 536.49 264.879 532.739 262.201 530.864C258.987 528.721 255.773 526.041 252.827 523.63C249.613 521.219 246.667 518.54 243.721 515.86C240.775 513.181 237.83 510.502 235.151 507.555C232.473 504.608 229.527 501.928 227.117 498.713C216.672 486.657 207.299 473.529 199.8 459.597C198.193 456.65 194.176 458.793 195.783 461.74C203.549 475.94 212.923 489.604 223.635 501.66C226.046 504.608 228.992 507.555 231.67 510.502Z" fill="#E9E9E9"/>
<path d="M333.707 539.973C343.884 542.92 354.061 545.064 364.505 546.135C367.451 546.403 367.987 542.117 365.041 541.581C354.864 540.509 344.687 538.366 335.046 535.686C325.137 532.739 315.763 529.256 306.39 524.702C287.911 515.86 271.038 503.804 256.576 489.336C254.434 487.193 251.22 490.408 253.363 492.551C268.36 507.287 285.768 519.611 304.515 528.72C313.888 533.275 323.798 537.026 333.707 539.973Z" fill="#E9E9E9"/>
<path d="M198.729 338.496C194.176 380.292 204.085 423.427 226.314 458.793C227.92 461.204 231.67 458.793 230.063 456.382C208.102 421.82 198.729 379.756 203.014 339.032C203.549 336.085 198.997 335.549 198.729 338.496Z" fill="#E9E9E9"/>
<path d="M248.006 230.524C245.864 232.667 249.345 235.614 251.22 233.739C258.183 226.237 265.682 219.271 273.984 213.109C282.019 206.947 290.589 201.32 299.694 196.498C308.8 191.675 318.173 187.656 327.815 184.441C337.456 181.226 347.365 178.815 357.542 177.207C360.488 176.671 359.685 172.385 356.739 172.653C346.294 174.26 336.117 176.939 326.208 180.154C316.299 183.369 306.658 187.656 297.284 192.479C288.178 197.569 279.341 203.196 271.038 209.626C262.736 215.52 254.97 222.754 248.006 230.524Z" fill="#E9E9E9"/>
<path d="M169.805 367.432C169.805 369.575 170.073 371.451 170.073 373.594L170.608 379.756C170.876 383.775 171.68 387.794 172.215 391.813C173.019 395.831 173.554 399.85 174.358 403.869L175.697 409.763L176.5 412.711L177.304 415.658C178.107 418.873 182.66 417.801 181.589 414.586L180.785 411.639L179.982 408.692L178.643 402.797C177.839 398.779 177.304 395.028 176.5 391.009C175.965 386.99 175.429 383.239 175.161 379.22L174.626 373.326C174.358 371.451 174.358 369.307 174.358 367.432C174.358 363.949 169.805 363.949 169.805 367.432Z" fill="#E9E9E9"/>
<path d="M175.429 336.085C177.036 320.277 180.518 304.47 185.874 289.466C186.945 286.251 182.66 284.644 181.589 287.859C176.233 303.13 172.751 319.206 170.876 335.549C170.608 337.157 171.68 338.228 173.019 338.228C174.09 338.496 175.161 337.692 175.429 336.085Z" fill="#E9E9E9"/>
<path d="M226.314 258.655C218.815 270.712 212.655 283.572 208.102 296.968C207.031 299.915 211.584 301.255 212.387 298.576C216.94 285.448 222.832 272.855 230.331 261.335C231.67 258.655 227.92 256.244 226.314 258.655Z" fill="#E9E9E9"/>
<path d="M228.188 328.851C226.046 340.639 225.242 352.964 225.51 365.02C225.51 367.699 230.063 367.432 230.063 364.752C229.527 352.964 230.599 341.175 232.473 329.655C233.277 327.511 228.724 326.44 228.188 328.851Z" fill="#E9E9E9"/>
<path d="M268.092 182.566C281.483 173.724 295.677 166.223 310.407 160.596C313.621 159.257 312.014 154.97 308.8 156.309C293.535 162.204 279.073 169.706 265.414 178.815C262.736 180.69 265.414 184.441 268.092 182.566Z" fill="#E9E9E9"/>
<path d="M384.859 491.48C385.662 491.48 386.734 491.48 387.537 491.48C387.537 491.48 387.537 491.48 387.805 491.48C388.876 491.48 389.947 491.48 390.751 491.48H392.358C393.429 491.48 394.233 491.48 395.304 491.212C396.107 491.212 396.911 491.212 397.714 490.944C398.518 490.944 399.053 490.944 399.857 490.676C400.392 490.676 401.196 490.408 401.731 490.408C401.999 490.408 402.267 490.408 402.267 490.408C403.874 490.14 405.481 490.14 407.088 489.872L410.837 489.336L412.712 489.068C413.247 489.068 414.051 488.8 414.586 488.532C414.854 488.532 415.39 488.264 415.658 488.264C415.925 488.264 415.925 488.264 416.193 488.264L416.997 487.997C418.871 487.461 420.478 487.193 422.353 486.657C422.621 486.657 422.889 486.389 423.156 486.389L424.228 486.121C427.441 485.049 430.655 483.978 433.869 482.906C434.405 482.638 434.672 482.638 435.208 482.37C436.279 481.834 437.35 481.566 438.422 481.031C438.69 481.031 438.957 480.763 439.225 480.763C440.564 480.227 441.903 479.691 442.975 479.155C448.599 476.476 454.223 473.261 459.579 469.778C480.736 455.846 497.876 435.484 508.053 412.175C510.999 405.745 513.142 398.779 515.016 392.081C515.552 389.937 510.999 389.133 510.731 391.009C504.572 414.586 491.449 436.824 473.505 453.435C455.562 470.046 433.065 481.299 408.427 485.585C406.82 485.853 405.213 486.121 403.606 486.389C403.338 486.389 403.338 486.389 403.07 486.389C398.785 486.925 394.768 487.193 390.483 487.461H388.876C387.537 487.461 386.466 487.461 385.127 487.461C382.717 486.925 382.717 491.48 384.859 491.48Z" fill="#E9E9E9"/>
<path d="M444.046 440.574C439.493 443.789 434.672 446.736 429.584 449.148C424.495 451.559 419.407 453.434 414.051 455.042C412.444 455.578 413.783 459.865 415.39 459.329C421.014 457.721 426.37 455.578 431.459 453.166C436.547 450.755 441.635 447.54 446.456 444.325C451.277 440.842 455.83 437.091 459.847 433.072C463.864 428.786 467.881 424.499 471.095 419.676C472.166 418.337 468.417 415.657 467.346 416.997C464.132 421.552 460.382 425.838 456.633 429.857C453.151 433.608 448.599 437.359 444.046 440.574Z" fill="#E9E9E9"/>
<path d="M429.852 416.461C427.709 418.069 425.567 419.408 423.424 420.748C423.156 420.748 423.156 421.016 422.888 421.016C422.085 421.552 421.282 422.088 420.21 422.356C417.264 423.963 414.051 425.303 410.837 426.642C407.623 427.714 404.409 428.786 400.928 429.321C400.124 429.589 399.321 429.589 398.518 429.857L397.178 430.125C396.643 430.125 396.375 430.125 395.839 430.393C395.036 430.393 394.232 430.661 393.161 430.661C392.358 430.661 391.554 430.661 390.751 430.929C390.215 430.929 389.412 430.929 388.876 430.929C388.608 430.929 388.341 430.929 388.073 430.929C387.805 430.929 387.269 430.929 387.002 430.929C386.466 430.929 385.93 430.929 385.395 430.929C384.591 430.929 383.788 430.929 382.984 430.929C382.449 430.929 382.181 430.929 381.645 430.929H380.306C377.896 430.661 375.218 430.393 372.807 430.125C371.201 429.857 369.861 429.589 368.255 429.054C364.505 427.982 360.488 426.642 357.006 425.303C355.4 424.499 353.793 423.695 352.186 422.891C351.918 422.891 351.65 422.623 351.382 422.623C349.775 421.552 347.901 420.748 346.294 419.676C344.151 418.337 342.009 416.729 340.134 415.122C339.331 414.318 336.385 417.801 337.188 418.605C340.134 421.016 343.348 423.159 346.562 425.035C347.365 425.571 348.169 426.106 349.24 426.642C349.508 426.91 349.775 426.91 350.043 427.178C350.579 427.446 351.115 427.714 351.65 427.982C352.721 428.518 353.793 429.054 354.864 429.589C358.881 431.197 362.898 432.537 366.916 433.608C367.183 433.608 367.183 433.608 367.451 433.608C368.255 433.876 369.326 433.876 370.129 434.144C370.665 434.144 370.933 434.412 371.468 434.412C374.146 434.948 376.557 435.216 379.235 435.484C381.11 435.752 382.984 435.752 385.127 435.752H385.395C386.466 435.752 387.805 435.752 388.876 435.752C389.144 435.752 389.144 435.752 389.412 435.752C389.947 435.752 390.751 435.752 391.287 435.484C391.554 435.484 391.554 435.484 391.822 435.484C398.518 434.948 404.677 433.608 410.837 431.465C412.979 430.661 415.122 429.857 416.997 429.054C422.353 426.91 427.174 423.695 431.726 420.212C431.726 420.212 431.726 420.212 431.726 419.944C437.083 415.925 441.903 411.103 445.92 406.012C448.331 402.797 450.741 399.314 452.884 395.831V395.563C453.151 395.027 453.419 394.76 453.419 394.224C455.026 391.009 456.633 387.526 457.704 384.043C458.775 380.56 459.847 377.077 460.65 373.594L460.918 372.254L461.186 370.915C461.186 370.111 461.454 369.039 461.721 368.235C461.721 366.36 462.257 364.752 462.257 362.877C462.525 361.001 462.257 359.126 462.257 357.518C462.257 356.715 461.989 355.643 461.989 354.839C461.989 354.303 461.989 354.035 461.989 353.5L461.721 352.16C461.454 348.409 460.65 344.658 459.847 340.907C459.579 340.104 459.311 339.032 459.043 338.228C458.775 337.424 458.508 336.353 458.24 335.549L457.972 334.209C457.972 333.673 457.704 333.405 457.436 332.87C457.169 332.066 456.901 331.262 456.633 330.19C455.294 326.975 453.687 323.492 451.812 320.277C449.67 316.794 447.527 313.311 444.849 310.096C444.046 309.293 440.564 312.24 441.368 313.043C450.205 323.76 455.294 336.353 457.169 350.82C457.169 351.624 457.436 352.696 457.436 353.5C457.436 354.303 457.436 355.107 457.436 356.179C457.436 356.715 457.436 356.983 457.436 357.518V358.858C457.436 359.662 457.436 360.466 457.436 361.537C457.436 365.02 456.901 368.235 456.365 371.718C455.83 374.933 454.758 378.416 453.955 381.631C452.884 384.846 451.545 388.062 449.938 391.277C448.063 394.76 446.188 397.975 443.778 401.19C443.778 401.19 443.778 401.19 443.778 401.458C440.564 406.816 435.476 412.174 429.852 416.461Z" fill="#E9E9E9"/>
<path d="M314.156 351.088C314.424 350.285 314.424 349.481 314.424 348.409C314.424 347.873 314.424 347.605 314.692 347.07L314.96 345.73C315.228 344.926 315.228 344.123 315.495 343.319C316.299 339.836 317.37 336.621 318.173 333.406C319.513 330.191 320.852 327.243 322.458 324.028C324.065 321.081 325.94 318.134 328.083 315.187C330.493 311.972 333.171 309.025 335.849 306.346C336.653 305.542 333.707 302.327 332.635 303.13C329.957 305.81 327.279 308.489 325.137 311.436C322.994 314.383 320.852 317.33 318.977 320.545C317.102 323.76 315.495 326.976 314.424 330.459L313.888 331.798L313.353 333.138C313.085 333.941 312.817 334.745 312.549 335.817C312.014 337.692 311.478 339.3 311.21 341.175C310.675 343.051 310.675 344.658 310.139 346.534C310.139 347.338 309.871 348.409 309.871 349.213C309.871 349.749 309.603 350.017 309.603 350.553V351.892C309.068 355.643 309.336 359.394 309.336 363.145C309.336 363.949 309.603 365.02 309.603 365.824C309.603 366.628 309.871 367.7 309.871 368.503L310.139 369.843C310.139 370.379 310.407 370.647 310.407 371.183C310.675 371.986 310.675 373.058 310.943 373.862C311.746 377.345 312.817 380.828 313.888 384.311C315.228 388.062 317.102 391.813 318.977 395.296C319.513 396.367 323.53 393.956 322.994 393.152C316.299 381.096 313.353 367.7 314.156 353.232C314.156 352.964 314.156 352.16 314.156 351.088Z" fill="#E9E9E9"/>
<path d="M357.274 320.009C356.739 320.545 359.417 324.028 359.952 323.76C369.058 317.062 378.967 314.383 390.751 315.187C392.893 315.455 395.036 315.723 397.178 316.258C399.321 316.794 401.196 317.598 403.07 318.134C404.945 318.938 406.82 320.009 408.694 321.081C410.569 322.153 412.176 323.492 414.051 324.832C415.658 326.172 417.264 327.779 418.871 329.387C419.139 329.922 419.675 330.19 419.943 330.726C420.21 331.262 420.478 331.53 421.014 332.066C421.549 332.334 421.549 332.87 422.085 333.405C422.353 333.941 422.889 334.209 422.889 334.745C424.228 336.62 425.031 338.496 426.102 340.371C427.174 342.247 427.709 344.39 428.245 346.266C428.78 348.141 429.048 350.017 429.584 351.892C429.584 352.964 429.852 353.767 429.852 354.839C429.852 355.375 430.12 355.911 430.12 356.447C430.12 356.983 430.12 357.518 430.12 358.054C430.12 358.858 434.672 358.858 434.672 358.054C434.672 351.624 433.333 345.998 431.191 340.639C429.048 335.281 425.567 329.922 421.549 325.636C421.282 325.368 421.014 325.1 421.014 324.832L420.746 324.564L420.478 324.296C419.943 324.028 419.675 323.492 419.139 322.956C418.068 322.153 417.264 321.349 416.193 320.545C415.39 319.741 414.319 319.206 413.247 318.402C412.712 318.134 412.176 317.866 411.64 317.33C411.105 317.062 410.569 316.794 410.034 316.526C407.891 315.455 405.748 314.383 403.606 313.579C401.463 312.775 399.321 311.972 396.911 311.436C394.5 310.9 392.358 310.364 389.948 310.364C389.68 310.364 389.412 310.364 389.144 310.364H388.073C387.537 310.364 386.734 310.364 386.198 310.364C384.859 310.632 383.52 310.364 382.449 310.632C381.11 310.632 380.038 310.9 378.967 310.9C377.896 311.168 376.557 311.168 375.486 311.704C374.414 311.972 373.343 312.24 372.004 312.507C370.933 313.043 369.862 313.043 368.79 313.847C364.505 315.187 360.756 317.33 357.274 320.009Z" fill="#E9E9E9"/>
<path d="M317.102 250.618C320.852 248.207 324.869 246.063 328.618 243.92C328.886 243.92 329.154 243.652 329.422 243.652C330.493 243.116 331.564 242.58 332.635 242.044C332.903 242.044 333.171 241.776 333.439 241.776C335.849 240.705 338.26 239.633 340.67 238.829L342.545 238.293C343.348 238.026 344.151 237.758 345.223 237.49C346.562 236.954 347.633 236.686 348.972 236.418C350.311 236.15 351.382 235.614 352.721 235.346C354.328 235.078 355.935 234.543 357.274 234.275C357.542 234.275 357.81 234.007 358.078 234.007L361.291 233.471C361.827 233.471 362.095 233.203 362.631 233.203C362.898 233.203 362.898 233.203 363.166 233.203C363.702 233.203 364.237 232.935 364.773 232.935C371.736 231.863 378.967 231.06 386.466 231.06C393.429 231.06 400.392 231.863 407.088 232.935H407.355C407.623 232.935 407.891 232.935 408.427 233.203L411.908 234.007C412.979 234.275 414.319 234.543 415.39 234.81C417.8 235.346 419.943 235.882 422.353 236.686C424.228 237.222 425.567 232.935 423.692 232.399C421.282 231.595 418.871 231.06 416.461 230.524C415.39 230.256 414.051 229.988 412.712 229.72L408.962 228.916C406.552 228.648 404.142 228.112 401.463 227.844L397.714 227.577L395.839 227.309H393.965C393.965 227.309 393.965 227.309 393.697 227.309C391.822 227.309 390.215 227.041 388.341 227.041C385.127 226.773 381.913 227.041 378.699 227.041L373.879 227.309C373.075 227.309 372.272 227.309 371.468 227.577L369.058 227.844C366.648 228.112 364.505 228.38 362.095 228.916C361.827 228.916 361.559 228.916 361.291 228.916C357.274 229.72 353.257 230.524 349.508 231.595C349.24 231.595 348.972 231.863 348.704 231.863C348.169 232.131 347.901 232.131 347.365 232.131C345.49 232.667 343.616 233.203 341.741 234.007H341.473C340.134 234.543 338.795 235.078 337.456 235.614L336.385 235.882C335.849 236.15 335.314 236.418 334.778 236.686H334.51C333.975 236.954 333.439 237.222 332.635 237.49C327.815 239.633 322.994 242.044 318.441 244.724C317.906 244.991 317.37 245.259 316.834 245.795C316.299 246.063 315.763 246.331 315.228 246.867C312.817 248.207 310.675 249.814 308.532 251.422L308.264 251.69C295.142 261.067 283.626 272.855 274.788 286.251C270.771 292.146 267.557 298.308 264.343 304.738C263.54 306.613 267.557 308.489 268.36 306.613C279.608 283.304 296.481 264.014 317.102 250.618Z" fill="#E9E9E9"/>
<path d="M434.94 265.889C433.869 265.353 432.798 264.818 431.726 264.282C430.655 263.746 429.316 263.21 428.245 262.674C427.173 262.138 425.834 261.603 424.763 261.335C423.692 260.799 422.353 260.263 421.282 259.995C420.21 259.727 418.871 259.191 417.8 258.655C416.997 258.387 416.461 258.12 415.658 258.12C415.122 257.852 414.586 257.852 414.051 257.584C413.783 257.584 413.515 257.584 413.247 257.316L412.444 257.048L411.64 256.78C410.569 256.512 409.23 256.244 407.891 255.976C407.623 255.976 407.355 255.708 407.087 255.708C406.82 255.708 406.82 255.708 406.552 255.708C405.481 255.44 404.677 255.44 403.606 255.172C403.338 255.172 403.338 255.172 403.07 255.172C400.928 254.904 399.053 254.637 396.911 254.369C395.304 254.101 393.697 254.101 392.358 254.101H392.09C391.822 254.101 391.822 254.101 391.554 254.101C389.68 254.101 388.073 253.833 386.198 253.833C384.591 253.833 382.984 253.833 381.377 253.833H380.574C380.306 253.833 380.038 253.833 379.771 253.833H379.503C378.699 253.833 377.896 254.101 377.092 254.101C376.557 254.101 376.021 254.101 375.753 254.369H375.486C371.2 254.904 366.915 255.44 362.63 256.512H362.363L360.488 256.78C359.952 257.048 359.417 257.048 358.613 257.316L355.132 258.387C352.721 259.191 350.311 259.995 348.169 260.799C345.758 261.603 343.616 262.674 341.205 263.746C340.67 264.014 340.402 264.282 339.866 264.55C339.599 264.55 339.599 264.818 339.331 264.818C337.724 265.621 336.117 266.425 334.51 267.497C333.707 267.765 333.171 268.301 332.368 268.568C331.029 269.372 329.422 270.444 328.083 271.248C327.011 272.051 325.94 272.587 324.869 273.391C321.923 275.534 318.977 277.946 316.299 280.357C315.763 280.893 315.228 281.161 314.96 281.697C313.085 283.304 311.478 285.18 309.603 287.055C306.39 290.538 303.444 294.289 300.766 298.04C297.552 302.862 294.606 307.953 291.928 313.311C291.124 314.919 295.409 316.794 295.945 315.187C298.355 310.096 301.301 305.274 304.247 300.719C307.461 296.164 310.943 291.878 314.692 288.127L314.96 287.859C315.763 287.055 316.834 286.251 317.638 285.18C322.994 280.089 328.886 275.802 335.046 272.051C337.188 270.712 339.599 269.64 341.741 268.301C348.169 265.085 354.596 262.674 361.559 261.067C362.095 261.067 362.63 260.799 363.166 260.799C368.255 259.727 373.343 258.923 378.431 258.387C378.699 258.387 378.967 258.387 378.967 258.387H380.038C380.574 258.387 380.842 258.387 381.377 258.387H382.449H386.198C387.537 258.387 388.608 258.387 389.947 258.387C391.287 258.387 392.358 258.387 393.697 258.655C394.768 258.655 395.839 258.655 396.911 258.923C397.714 258.923 398.25 259.191 399.053 259.191C399.589 259.191 400.124 259.459 400.66 259.459C401.463 259.459 401.999 259.727 402.802 259.727C403.338 259.727 403.874 259.995 404.409 259.995C404.945 259.995 405.213 260.263 405.748 260.263C406.016 260.263 406.552 260.531 406.82 260.531C407.891 260.799 409.23 261.067 410.301 261.335C410.837 261.335 411.373 261.602 411.908 261.602C412.712 261.87 413.515 262.138 414.318 262.138C419.139 263.478 423.692 265.353 428.245 267.497H428.513C429.852 268.033 431.191 268.836 432.53 269.64C434.404 270.444 436.547 266.693 434.94 265.889Z" fill="#E9E9E9"/>
<path d="M572.06 469.51L576.345 462.008L580.363 454.238C581.166 452.899 581.702 451.559 582.237 450.22L584.112 446.201C585.451 442.986 581.434 441.378 579.827 444.325C564.562 478.887 539.655 509.43 508.589 531.4C508.321 531.668 508.321 531.668 508.053 531.936C506.178 533.275 504.036 534.615 502.161 535.955C468.417 558.192 427.977 570.516 387.269 570.516C376.021 570.516 364.505 569.713 353.257 568.105C350.043 567.569 349.24 572.124 352.454 572.66C393.429 578.822 436.011 573.464 473.773 556.317C481.54 552.834 489.306 548.815 496.537 544.528C496.805 544.528 496.805 544.26 497.073 544.26C510.999 535.955 524.122 525.774 535.638 514.521C535.906 514.253 535.906 514.253 536.173 513.985C547.689 502.732 558.134 490.408 566.704 477.012C569.115 474.601 570.721 472.189 572.06 469.51Z" fill="#E9E9E9"/>
<path d="M374.414 462.812C380.306 463.348 386.198 463.616 392.09 463.348C393.697 463.08 393.429 458.525 391.822 458.793C386.198 459.061 380.306 458.793 374.95 458.257C369.326 457.721 363.97 456.382 358.613 455.042C353.257 453.435 348.169 451.559 343.08 449.148C337.992 446.737 333.171 443.789 328.618 440.574C327.279 439.771 324.601 443.254 325.94 444.325C330.761 447.808 335.849 450.755 340.938 453.167C346.294 455.578 351.65 457.721 357.274 459.329C362.898 461.204 368.522 462.276 374.414 462.812Z" fill="#E9E9E9"/>
<path d="M261.129 330.726C261.665 328.851 257.112 327.779 256.576 329.655C254.97 336.889 253.898 344.122 253.63 351.624C253.363 359.126 253.63 366.628 254.434 373.862C255.237 381.096 256.844 388.33 258.719 395.563C260.861 402.529 263.272 409.495 266.486 416.193C267.557 418.069 271.574 415.925 270.503 414.318C267.557 407.888 264.879 401.19 263.004 394.492C261.129 387.794 259.522 380.828 258.719 373.594C257.915 366.628 257.648 359.126 257.915 352.16C258.719 344.658 259.522 337.692 261.129 330.726Z" fill="#E9E9E9"/>
<path d="M286.572 391.544C287.107 393.152 291.392 391.544 290.857 390.205C289.25 384.846 287.911 379.488 286.839 374.13C286.036 368.503 285.768 362.877 285.768 357.251C285.768 351.624 286.304 345.998 287.375 340.639C288.446 335.281 289.785 329.922 291.66 324.564C292.196 323.224 287.911 321.349 287.375 322.957C285.5 328.315 283.893 333.941 282.822 339.836C281.751 345.462 281.215 351.356 281.215 357.251C281.215 363.145 281.483 369.039 282.287 374.933C283.358 380.292 284.697 385.918 286.572 391.544Z" fill="#E9E9E9"/>
<path d="M429.048 294.825C425.567 292.414 421.817 290.27 417.8 288.663C414.051 287.055 410.034 285.448 406.016 284.376C401.999 283.304 397.714 282.5 393.429 282.233C392.09 282.233 391.822 286.787 392.893 286.787C396.911 287.323 400.928 287.859 404.677 288.931C408.427 290.002 412.176 291.342 415.925 292.949C419.675 294.557 423.156 296.432 426.37 298.844C429.584 301.255 432.798 303.666 435.744 306.613C436.547 307.417 439.761 304.202 438.957 303.398C436.011 299.915 432.53 297.236 429.048 294.825Z" fill="#E9E9E9"/>
<path d="M354.061 482.906L352.454 482.37L348.972 481.298C346.562 480.495 344.419 479.691 342.277 479.155L339.063 477.815C337.992 477.28 336.92 477.012 335.849 476.476C333.707 475.404 331.296 474.6 329.422 473.529C327.547 472.725 325.404 476.744 327.279 477.547C329.422 478.887 331.832 479.691 333.975 480.763C335.046 481.298 336.385 481.834 337.456 482.102L340.938 483.442C343.348 484.246 345.758 485.049 347.901 485.853L351.382 486.925L353.257 487.461L355.132 487.996C357.274 488.532 358.078 483.978 356.203 483.442L354.061 482.906Z" fill="#E9E9E9"/>
<path d="M310.139 467.367C311.746 468.706 314.424 464.955 312.817 463.616C305.051 457.989 297.552 451.559 291.124 444.325C289.785 442.718 286.304 445.665 287.643 447.272C294.338 455.042 301.837 461.74 310.139 467.367Z" fill="#E9E9E9"/>
<path d="M294.606 409.495C298.355 416.461 303.176 422.891 308.264 428.786C309.336 430.125 312.817 426.91 311.746 425.839C306.658 420.212 302.373 414.05 298.623 407.352C297.82 406.012 293.803 408.156 294.606 409.495Z" fill="#E9E9E9"/>
<path d="M367.451 284.108C361.827 285.447 356.471 287.591 351.382 290.27C350.311 290.806 352.454 294.825 353.525 294.289C358.345 291.878 363.434 289.734 368.522 288.663C369.594 288.127 368.522 283.84 367.451 284.108Z" fill="#E9E9E9"/>
<path d="M643.834 77.0045C686.149 115.585 719.626 164.347 741.051 217.931C743.193 223.558 747.478 221.95 745.336 216.324C723.91 162.204 689.898 112.906 647.048 73.7895C642.495 69.5027 639.549 72.9857 643.834 77.0045Z" fill="#E9E9E9"/>
<path d="M467.345 14.0429C505.643 23.1523 542.333 38.6917 575.542 59.5896C608.751 80.7554 638.21 107.28 662.849 138.091C666.331 142.377 669.812 139.698 666.331 135.144C641.424 104.065 611.429 77.0045 577.952 55.8387C544.476 34.6729 507.517 18.8655 468.417 9.48827C465.739 8.68451 464.132 9.75619 463.864 10.8279C463.596 11.8996 464.667 13.2392 467.345 14.0429Z" fill="#E9E9E9"/>
<path d="M640.889 562.211C631.247 574.535 620.535 585.788 609.287 596.505C598.039 607.221 585.719 616.867 573.132 625.976C547.69 643.927 519.301 658.127 489.574 668.04L478.326 671.523C474.577 672.594 470.827 673.666 467.078 674.47C459.579 676.613 452.08 677.953 444.314 679.56C440.564 680.364 436.547 680.9 432.798 681.436L427.174 682.24L421.282 682.775C417.532 683.043 413.515 683.579 409.766 683.847L397.982 684.383C382.449 684.919 366.648 684.651 351.115 682.775L345.223 682.24L339.331 681.436C335.581 680.9 331.564 680.364 327.815 679.56L316.299 677.149C312.55 676.345 308.8 675.274 304.783 674.47C298.623 672.862 292.464 670.987 286.304 669.111C285.233 668.843 284.161 668.308 283.09 668.04C282.287 667.772 281.483 667.504 280.948 667.236C279.876 666.7 278.537 666.432 277.466 665.896C276.663 665.628 275.591 665.361 274.788 664.825C273.984 664.557 273.181 664.289 272.378 664.021C266.486 661.878 260.862 659.466 255.238 657.055H254.97C252.827 656.251 250.952 655.179 248.81 654.376C234.616 647.678 220.957 640.444 207.835 631.602C194.712 623.029 182.392 613.652 170.609 603.471C158.825 593.29 147.844 582.037 137.935 570.248C127.758 558.46 118.385 545.867 110.083 532.739L106.869 527.917L103.923 522.826C102.048 519.343 99.9058 516.128 98.2989 512.645L92.9427 502.196C91.068 498.713 89.7289 495.23 88.122 491.479L85.7117 486.121C84.9083 484.245 84.1048 482.638 83.5692 480.762C82.2301 477.012 80.6232 473.529 79.2842 469.778C76.8739 462.276 74.1957 455.042 72.0532 447.54C69.9107 440.038 68.036 432.537 66.4291 424.767C65.6257 421.016 65.0901 416.997 64.2866 413.246C64.0188 411.371 63.4832 409.495 63.2154 407.352L62.4119 401.458L61.6085 395.027C61.3407 392.884 61.0729 390.741 60.8051 388.597L59.7338 375.469C59.466 366.896 59.1982 358.054 59.466 349.481C59.7338 344.39 55.181 344.122 54.9132 349.481C54.1097 380.828 57.8591 412.71 65.8935 443.253C69.9107 458.525 75.267 473.529 81.4267 488.264C87.5864 502.732 95.0852 516.932 103.12 530.328C136.596 584.716 185.07 628.923 242.115 656.519C247.203 658.93 252.559 661.342 257.916 663.485C258.451 663.753 259.255 664.021 259.79 664.289C260.594 664.557 261.665 665.093 262.468 665.361C263.54 665.896 264.611 666.164 265.414 666.7C266.486 667.236 267.557 667.504 268.628 668.04C269.432 668.308 270.235 668.576 270.771 668.844C272.11 669.379 273.717 669.915 275.056 670.451C275.324 670.451 275.591 670.719 275.859 670.719C280.948 672.594 286.036 674.202 291.392 675.809H291.66C293.803 676.345 295.945 677.149 298.088 677.685C313.353 681.972 328.886 684.919 344.687 687.062C360.488 688.938 376.289 689.741 392.09 689.473C396.107 689.473 399.857 689.206 403.874 688.938L409.766 688.67C411.641 688.402 413.783 688.402 415.658 688.134C419.675 687.866 423.424 687.33 427.441 686.794L439.225 684.919C443.242 684.383 446.992 683.579 450.741 682.775C454.491 681.972 458.508 681.168 462.257 680.364C470.024 678.489 477.523 676.613 485.021 673.934C492.52 671.791 500.019 668.844 507.518 666.164C511.267 664.557 514.749 663.217 518.498 661.61C520.373 660.806 522.247 660.002 523.854 659.198L529.211 656.519C543.405 649.821 557.331 641.783 570.454 632.942C583.577 624.101 596.164 614.187 607.68 603.739C610.894 600.791 614.107 597.844 617.321 594.629C620.535 591.414 623.481 588.467 626.695 585.252C629.641 582.037 632.586 578.822 635.532 575.339C637.139 573.731 638.478 572.124 639.817 570.248L644.102 565.158C647.584 561.139 644.102 558.46 640.889 562.211Z" fill="#E9E9E9"/>
<path d="M739.444 378.684C738.373 398.511 735.694 418.069 731.142 437.359C729.803 442.718 734.355 443.789 735.694 438.431C739.979 418.873 742.925 399.046 743.997 379.22C745.068 359.394 744.532 339.3 742.39 319.474C740.247 299.647 736.498 280.357 731.142 261.067C725.785 242.044 718.554 223.29 709.984 205.071C707.574 199.981 703.557 201.856 705.967 206.947C714.537 224.897 721.232 243.384 726.857 262.138C732.213 281.161 735.962 300.183 738.105 319.742C740.247 339.032 740.783 358.858 739.444 378.684Z" fill="#E9E9E9"/>
<path d="M615.982 627.852C586.255 653.572 551.707 673.934 515.016 688.402C496.537 695.636 477.79 700.994 458.508 705.013C448.866 707.156 439.225 708.496 429.584 709.836C424.763 710.371 419.943 710.907 414.854 711.443C410.033 711.979 404.945 711.979 400.124 712.247C394.5 712.515 394.768 717.069 400.392 716.802C405.481 716.534 410.301 716.266 415.39 715.998C420.21 715.462 425.299 714.926 430.119 714.39C440.029 713.051 449.67 711.443 459.311 709.568C478.594 705.549 497.876 699.922 516.355 692.689C553.581 677.953 588.397 657.323 618.66 631.335C623.213 627.584 620.267 624.369 615.982 627.852Z" fill="#E9E9E9"/>
<path d="M768.1 301.255C767.296 295.361 762.744 295.897 763.547 302.059C767.832 330.191 768.903 359.126 766.761 388.062C766.225 393.956 770.778 394.492 771.314 388.33C773.724 358.858 772.653 329.655 768.1 301.255Z" fill="#E9E9E9"/>
<path d="M758.726 443.521C752.299 471.653 742.658 498.981 730.338 524.702C727.66 530.06 731.677 532.203 734.355 526.577C746.943 500.321 756.584 472.725 763.279 444.325C764.35 438.431 759.798 437.627 758.726 443.521Z" fill="#E9E9E9"/>
<path d="M704.896 512.377C702.218 518.539 699.004 524.166 695.79 530.06C692.576 535.954 689.095 541.581 685.613 547.207L680.257 555.513C678.382 558.192 676.508 561.139 674.633 563.818C670.616 569.177 666.866 574.535 662.581 579.626C659.1 583.912 662.581 586.859 666.063 582.573C670.348 577.482 674.365 571.856 678.115 566.497C679.989 563.818 681.864 560.871 683.739 558.192L689.363 549.886C692.844 544.26 696.326 538.366 699.54 532.471C702.753 526.577 705.967 520.683 708.913 514.521C711.591 509.43 707.306 507.555 704.896 512.377Z" fill="#E9E9E9"/>
<path d="M711.323 383.507C709.449 408.156 704.628 432.269 697.397 455.846C695.79 460.668 700.075 462.276 701.682 457.185C709.181 433.34 713.734 408.692 715.876 384.043C716.144 378.684 711.591 378.416 711.323 383.507Z" fill="#E9E9E9"/>
<path d="M641.156 512.913C633.658 524.97 625.623 536.758 616.518 547.743C607.412 558.728 597.771 569.177 587.058 578.822L583.041 582.305L579.024 585.788C576.346 588.199 573.667 590.343 570.721 592.486L562.151 598.916C559.205 601.059 556.26 602.935 553.314 605.078L548.761 608.025C547.154 609.097 545.815 609.901 544.208 610.973C541.262 612.848 538.048 614.724 535.102 616.599C528.943 620.082 522.515 623.565 516.088 626.512C509.66 629.727 503.233 632.406 496.537 635.354C493.323 636.693 489.842 637.765 486.628 639.104C485.021 639.64 483.414 640.444 481.54 640.98L476.451 642.587C462.793 647.142 449.134 650.089 434.94 652.768L425.031 654.376C423.96 654.644 422.621 654.644 421.549 654.912C421.014 654.912 420.478 654.912 419.943 655.18C419.407 655.18 419.139 655.18 418.604 655.448C416.997 655.716 415.658 655.716 414.051 655.983L411.908 656.251C395.572 657.591 378.967 657.859 362.631 656.519C351.65 655.716 340.67 654.108 329.957 652.233C329.422 652.233 329.154 651.965 328.618 651.965C327.011 651.697 325.137 651.161 323.53 650.893C318.709 649.821 313.889 648.75 309.068 647.41C307.193 646.874 305.319 646.338 303.444 645.802C303.444 645.802 303.444 645.802 303.176 645.802C301.034 645.267 299.159 644.731 297.016 643.927C292.464 642.319 291.124 646.874 295.677 648.214C299.427 649.285 303.176 650.357 306.925 651.429C307.461 651.429 307.729 651.697 308.264 651.697C310.407 652.233 312.282 652.768 314.424 653.304C316.031 653.84 317.638 654.108 319.513 654.376C320.048 654.644 320.852 654.644 321.387 654.912C343.348 659.734 365.577 662.146 388.073 661.878H393.429L398.785 661.61C402.267 661.342 406.016 661.342 409.498 661.074C410.569 661.074 411.64 660.806 412.712 660.806C416.729 660.538 420.746 660.002 424.763 659.466C425.299 659.466 425.567 659.466 426.102 659.199C427.441 658.931 429.048 658.931 430.387 658.663C430.655 658.663 431.191 658.663 431.459 658.395L436.279 657.591L438.957 657.055L441.635 656.519L452.348 654.376C455.83 653.572 459.311 652.768 462.793 651.697C466.274 650.893 469.756 649.821 473.237 648.75L483.682 645.534L493.859 641.784C497.341 640.444 500.554 639.104 504.036 637.765C507.25 636.425 510.731 635.086 513.945 633.478C527.068 627.316 539.655 620.082 551.975 612.312C564.026 604.275 575.542 595.433 586.522 586.056C597.235 576.411 607.412 565.962 616.785 554.977C627.23 542.653 636.604 529.524 645.174 515.592C647.584 511.306 643.567 508.894 641.156 512.913Z" fill="#E9E9E9"/>
<path d="M667.67 457.185C666.063 461.472 670.348 463.08 671.955 458.793C677.579 442.986 681.864 426.642 684.542 410.031C687.488 393.42 688.827 376.541 688.827 359.662C689.095 325.904 683.203 292.681 672.491 260.799C670.884 256.244 666.599 257.852 668.206 262.406C678.65 293.753 684.542 326.708 684.274 359.93C684.274 376.541 682.935 393.152 679.989 409.495C677.311 425.303 673.026 441.378 667.67 457.185Z" fill="#E9E9E9"/>
<path d="M650.798 304.47C656.957 333.673 657.761 364.216 654.011 394.224C649.994 423.963 640.889 453.167 627.498 479.959C625.623 483.71 629.64 485.853 631.515 482.102C645.174 454.774 654.279 425.303 658.296 394.76C662.314 364.484 661.242 333.405 655.083 303.666C654.547 299.379 649.994 300.451 650.798 304.47Z" fill="#E9E9E9"/>
<path d="M633.122 183.37C619.999 164.615 604.466 147.736 587.594 132.732C584.112 129.517 581.166 133 584.648 136.215C601.252 151.219 616.518 167.83 629.373 186.317C632.051 190.068 635.8 187.388 633.122 183.37Z" fill="#E9E9E9"/>
<path d="M636.068 255.708C637.675 259.727 641.96 258.12 640.353 254.101C632.586 235.078 622.409 216.592 610.358 199.713C609.019 197.837 607.68 197.837 606.608 198.373C605.805 199.177 605.537 200.516 606.608 202.392C618.392 219.003 628.301 236.954 636.068 255.708Z" fill="#E9E9E9"/>
<path d="M552.242 226.773C554.385 229.452 557.866 226.773 555.724 223.826C545.547 210.965 534.031 199.445 521.176 189.264C517.962 186.585 514.748 184.441 511.535 182.03C508.321 179.619 504.839 177.475 501.358 175.332C497.876 173.188 494.395 171.045 490.913 169.17C487.432 167.294 483.682 165.151 479.933 163.543C476.719 162.204 474.844 166.223 478.058 167.562C481.807 169.17 485.021 171.313 488.771 172.921C492.252 174.796 495.734 176.939 498.947 179.083C502.161 181.226 505.643 183.37 508.857 185.781C512.07 188.192 515.284 190.335 518.498 193.015C531.085 203.196 542.333 214.448 552.242 226.773Z" fill="#E9E9E9"/>
<path d="M406.016 171.045C395.572 169.973 385.127 169.705 374.682 170.241C371.736 170.509 372.004 174.796 374.95 174.796C385.127 173.992 395.304 174.26 405.481 175.332C415.658 176.403 425.835 178.279 435.476 180.958C455.026 186.584 474.041 195.426 490.645 206.946C493.056 208.554 495.734 205.071 493.323 203.196C476.183 191.139 456.901 182.298 436.547 176.403C426.906 174.26 416.461 172.117 406.016 171.045Z" fill="#E9E9E9"/>
<path d="M531.353 290.002C518.23 262.138 497.073 238.293 470.827 222.218C459.043 214.984 446.456 209.09 433.065 205.071H432.798C431.994 204.803 430.923 204.535 430.119 204.267C429.584 203.999 428.78 203.999 428.245 203.732C427.174 203.464 425.834 203.196 424.495 202.928C423.692 202.66 423.156 202.66 422.353 202.392C421.549 202.124 420.746 202.124 419.675 201.856C418.603 201.588 417.264 201.32 416.193 201.052C415.925 201.052 415.658 201.052 415.39 201.052C404.677 198.909 393.697 198.105 382.984 198.373C380.574 198.373 378.164 198.641 376.021 198.641C370.129 198.909 364.237 199.713 358.346 200.784C358.078 200.784 357.81 200.784 357.274 201.052H357.006C351.918 201.856 346.83 203.196 341.741 204.535C312.282 212.841 285.233 229.988 265.147 253.297C259.522 259.727 254.166 266.693 249.613 273.927C248.274 276.07 252.024 278.482 253.363 276.338C269.164 250.886 292.463 230.256 319.513 217.663L324.601 215.252C326.208 214.448 328.083 213.913 329.689 213.109C330.493 212.841 331.296 212.305 332.368 212.037L335.046 211.233C336.92 210.697 338.527 209.894 340.402 209.358C346.562 207.482 352.721 206.143 358.881 205.071C360.488 204.803 362.095 204.535 363.702 204.267C364.505 204.267 365.576 203.999 366.38 203.999C367.183 203.999 367.719 203.732 368.522 203.732C368.79 203.732 369.058 203.732 369.594 203.732C370.397 203.732 371.468 203.464 372.272 203.464C372.54 203.464 373.075 203.464 373.343 203.464C374.146 203.464 375.218 203.196 376.021 203.196C377.092 203.196 378.164 203.196 379.235 202.928H384.591C389.68 202.928 394.768 203.196 399.589 203.464C400.392 203.464 401.196 203.732 401.999 203.732C403.606 203.999 405.213 203.999 406.82 204.267C410.569 204.803 414.586 205.339 418.336 206.143C427.709 208.018 436.815 210.965 445.92 214.716C473.505 226.237 497.876 245.795 514.481 270.444C519.301 277.41 523.586 284.644 527.068 292.146C528.407 294.021 532.692 292.146 531.353 290.002Z" fill="#E9E9E9"/>
<path d="M456.901 503C484.486 489.604 508.053 467.902 523.854 441.646C528.407 434.412 532.156 426.642 535.37 418.605C536.441 416.193 532.156 414.586 531.085 416.997C520.105 444.861 500.554 469.242 476.183 486.389L471.631 489.604C470.024 490.676 468.417 491.479 466.81 492.551C466.007 493.087 465.203 493.623 464.4 493.891L461.989 495.23C460.382 496.034 458.776 497.106 457.169 497.91C450.473 501.393 443.51 504.072 436.547 506.483C433.065 507.555 429.584 508.894 425.835 509.698C423.96 510.234 422.353 510.77 420.478 511.038L414.854 512.109C407.355 513.449 400.124 514.521 392.626 514.521C388.608 514.789 384.859 514.789 380.842 514.521C352.721 513.449 325.405 505.143 301.837 489.872C276.663 473.797 256.309 450.22 243.989 422.892C240.508 415.39 237.562 407.352 235.419 399.314C234.616 396.903 230.331 397.975 231.134 400.386C239.169 429.857 256.041 457.186 278.805 477.815C301.837 498.445 330.493 512.377 360.756 516.932C362.631 517.2 364.505 517.468 366.38 517.736C366.648 517.736 366.648 517.736 366.916 518.004C397.446 522.023 429.316 516.396 456.901 503Z" fill="#E9E9E9"/>
<path d="M574.471 345.73C571.525 303.666 554.385 262.942 525.997 232.131C523.854 229.988 520.64 232.935 522.515 235.078C550.1 265.354 566.972 305.006 569.65 345.998C569.918 348.945 574.471 348.677 574.471 345.73Z" fill="#E9E9E9"/>
<path d="M447.795 537.026C457.704 533.543 467.345 529.256 476.451 524.434C485.557 519.343 494.395 513.717 502.697 507.287C510.999 500.857 518.498 493.623 525.729 485.853C532.692 478.083 539.119 469.778 545.011 460.936C546.618 458.525 542.869 456.114 541.262 458.525C535.638 467.099 529.478 475.404 522.515 482.906C515.552 490.408 508.053 497.374 500.019 503.804C491.984 510.234 483.414 515.86 474.309 520.683C465.203 525.506 456.097 529.792 446.188 533.007C443.51 533.543 444.849 538.098 447.795 537.026Z" fill="#E9E9E9"/>
<path d="M590.272 301.523L591.879 307.417C592.414 309.293 592.95 311.168 593.218 313.312C593.753 316.527 598.306 315.723 597.771 312.24C597.503 310.364 596.967 308.221 596.432 306.346L594.825 300.451C593.753 296.433 592.414 292.682 591.343 288.663C590.004 284.912 588.665 280.893 587.058 277.142L584.648 271.516L583.576 268.837L582.237 266.157C580.631 262.942 576.613 265.086 578.22 268.033L579.559 270.712L580.631 273.391L583.041 279.018C584.648 282.769 585.719 286.519 587.326 290.27C587.862 294.021 589.201 297.772 590.272 301.523Z" fill="#E9E9E9"/>
<path d="M600.181 392.348C602.591 376.273 603.395 359.93 602.323 343.587C602.323 341.979 600.984 341.175 599.913 341.175C598.842 341.175 597.77 342.247 597.77 343.855C598.842 359.662 598.038 375.737 595.628 391.545C595.092 395.028 599.645 395.831 600.181 392.348Z" fill="#E9E9E9"/>
<path d="M568.043 387.258C565.901 400.922 562.152 414.318 557.063 427.178C555.992 429.857 560.009 431.733 561.348 428.786C566.704 415.657 570.454 401.993 572.596 387.794C572.864 385.114 568.311 384.579 568.043 387.258Z" fill="#E9E9E9"/>
<path d="M546.886 360.198C546.886 348.141 545.815 336.085 543.137 324.028C542.601 321.617 538.316 322.689 538.584 325.1C540.994 336.621 542.333 348.409 542.333 360.198C542.333 362.609 546.886 362.877 546.886 360.198Z" fill="#E9E9E9"/>
<path d="M346.83 378.148C345.758 376.541 345.223 374.666 344.687 372.79C344.419 371.718 344.151 370.915 343.884 369.843C343.884 369.307 343.616 368.771 343.616 368.235C343.616 367.7 343.348 367.164 343.348 366.628C343.08 365.824 338.795 366.628 338.795 367.432C339.866 373.862 342.277 378.952 345.223 384.043C348.436 389.133 352.454 393.42 357.542 397.171C357.81 397.439 358.078 397.439 358.346 397.707L358.613 397.975L358.881 398.243C359.417 398.511 359.952 398.778 360.488 399.314C361.559 399.85 362.631 400.654 363.702 401.19C364.773 401.726 365.844 402.261 366.916 402.797C367.451 403.065 367.987 403.333 368.522 403.601C369.058 403.869 369.594 403.869 370.129 404.137C372.272 404.941 374.682 405.744 376.825 406.012C379.235 406.28 381.377 406.816 383.788 406.816C386.198 406.816 388.608 406.816 391.019 406.548C391.287 406.548 391.554 406.548 391.822 406.548L392.626 406.28C393.161 406.28 393.965 406.012 394.5 406.012C395.839 405.744 396.911 405.476 398.25 405.209C399.589 404.941 400.66 404.405 401.731 404.137C402.803 403.601 403.874 403.333 404.945 402.797C406.016 402.529 407.088 401.726 408.159 401.458C409.23 400.922 410.301 400.386 411.105 399.582C414.854 397.439 418.068 394.492 421.282 391.277C421.817 390.741 418.336 387.526 418.068 388.062C410.301 396.099 400.928 400.654 389.144 401.726C387.002 401.726 384.859 401.726 382.717 401.726C380.574 401.458 378.432 401.19 376.557 400.922C374.414 400.386 372.54 399.85 370.397 399.046C368.522 398.243 366.38 397.171 364.505 396.099C362.631 395.028 360.756 393.688 358.881 392.348C358.346 392.08 358.078 391.545 357.542 391.277C357.274 391.009 356.739 390.473 356.203 390.205C355.667 389.937 355.4 389.401 355.132 389.133C354.864 388.865 354.328 388.33 354.061 388.062C352.454 386.454 351.115 384.847 350.043 382.971C348.704 381.899 347.901 380.024 346.83 378.148Z" fill="#E9E9E9"/>
<path d="M518.766 364.485C519.033 357.251 518.766 349.749 517.962 342.247C516.891 334.745 515.552 327.511 513.409 320.545C511.267 313.312 508.589 306.614 505.375 299.915C502.161 293.217 498.412 287.055 494.127 280.893C492.788 279.285 489.306 281.965 490.377 283.572C494.395 289.467 498.144 295.361 501.358 301.791C504.572 308.221 507.25 314.651 509.124 321.617C510.999 328.583 512.606 335.549 513.677 342.783C514.481 350.017 514.748 356.983 514.481 364.217C514.213 366.36 518.766 366.628 518.766 364.485Z" fill="#E9E9E9"/>
<path d="M489.574 376.809C490.645 371.183 490.913 365.288 491.181 359.662C491.181 353.768 490.913 348.141 489.842 342.247C488.771 336.353 487.432 330.726 485.557 325.1C483.682 319.742 481.272 314.383 478.594 309.293C477.79 307.953 473.773 310.096 474.576 311.436C477.255 316.259 479.397 321.349 481.272 326.708C483.146 332.066 484.218 337.424 485.289 343.051C486.36 348.677 486.628 354.303 486.628 359.93C486.628 365.556 486.092 370.915 485.289 376.541C484.753 377.345 489.306 378.416 489.574 376.809Z" fill="#E9E9E9"/>
<path d="M442.171 238.293C440.296 237.49 438.422 241.508 440.296 242.312C449.134 246.331 457.436 251.422 464.935 257.316C466.542 258.655 469.488 255.172 467.613 253.833C459.847 247.671 451.277 242.58 442.171 238.293Z" fill="#E9E9E9"/>
<path d="M467.613 292.414C462.525 286.251 456.901 280.893 450.741 275.802C449.402 274.731 446.724 278.482 448.063 279.285C453.955 284.108 459.579 289.199 464.132 295.093C464.935 296.432 468.685 293.753 467.613 292.414Z" fill="#E9E9E9"/>
</svg>
